#N canvas 815 63 625 301 12;
#X obj 57 79 vsl 15 128 0 255 0 0 empty empty empty 0 -9 0 10 -262144
-1 -1 0 1;
#X floatatom 66 14 5 0 0 2 f-#1-#2-#3 f-#1-#2-#3 -;
#X floatatom 54 218 5 0 0 3 l-#2-#1 - l-#2-#1;
#X text 199 24 Argument 1: input control bus 2: output control bus
3: channel;
#X obj 168 196 int;
#X obj 168 173 line;
#X obj 169 150 pack f f;
#X floatatom 81 92 5 0 0 2 lt-#1-#2-#3 lt-#1-#2-#3 -;
#X connect 0 0 6 0;
#X connect 1 0 0 0;
#X connect 4 0 2 0;
#X connect 5 0 4 0;
#X connect 6 0 5 0;
#X connect 7 0 6 1;
#X coords 0 -1 1 1 110 200 1 50 50;
