#N struct g3 float x float y float q;
#N struct g2 float x float y float q;
#N struct g1 float x float y float q;
#N canvas 72 113 1525 623 12;
#N canvas 73 144 1127 468 UDP 0;
#N canvas 10 73 1430 691 UDP 0;
#X obj 7 192 bng 15 250 50 0 empty empty getting_data 17 7 0 10 -262144
-1 -1;
#X obj 225 189 bng 15 250 50 0 empty empty getting_data 17 7 0 10 -262144
-1 -1;
#X obj 298 212 tgl 15 0 empty empty connected 17 7 0 10 -262144 -1
-1 1 1;
#X obj 454 188 bng 15 250 50 0 empty empty getting_data 17 7 0 10 -262144
-1 -1;
#X obj 528 209 tgl 15 0 empty empty connected 17 7 0 10 -262144 -1
-1 1 1;
#X obj 672 185 bng 15 250 50 0 empty empty getting_data 17 7 0 10 -262144
-1 -1;
#X obj 746 205 tgl 15 0 empty empty connected 17 7 0 10 -262144 -1
-1 1 1;
#X obj 902 184 bng 15 250 50 0 empty empty getting_data 17 7 0 10 -262144
-1 -1;
#X obj 977 202 tgl 15 0 empty empty connected 17 7 0 10 -262144 -1
-1 1 1;
#X obj 1120 181 bng 15 250 50 0 empty empty getting_data 17 7 0 10
-262144 -1 -1;
#X obj 1196 198 tgl 15 0 empty empty connected 17 7 0 10 -262144 -1
-1 1 1;
#X obj 14 434 bng 15 250 50 0 empty empty getting_data 17 7 0 10 -262144
-1 -1;
#X obj 88 447 tgl 15 0 empty empty connected 17 7 0 10 -262144 -1 -1
1 1;
#X obj 232 431 bng 15 250 50 0 empty empty getting_data 17 7 0 10 -262144
-1 -1;
#X obj 306 447 tgl 15 0 empty empty connected 17 7 0 10 -262144 -1
-1 1 1;
#X obj 461 430 bng 15 250 50 0 empty empty getting_data 17 7 0 10 -262144
-1 -1;
#X obj 536 443 tgl 15 0 empty empty connected 17 7 0 10 -262144 -1
-1 1 1;
#X obj 679 427 bng 15 250 50 0 empty empty getting_data 17 7 0 10 -262144
-1 -1;
#X obj 753 444 tgl 15 0 empty empty connected 17 7 0 10 -262144 -1
-1 1 1;
#X obj 909 426 bng 15 250 50 0 empty empty getting_data 17 7 0 10 -262144
-1 -1;
#X obj 982 442 tgl 15 0 empty empty connected 17 7 0 10 -262144 -1
-1 1 1;
#X obj 1127 423 bng 15 250 50 0 empty empty getting_data 17 7 0 10
-262144 -1 -1;
#X obj 1201 440 tgl 15 0 empty empty connected 17 7 0 10 -262144 -1
-1 1 1;
#X obj 80 210 tgl 15 0 empty empty empty 17 7 0 10 -262144 -1 -1 1
1;
#X obj 80 230 s udp_con1;
#X obj 298 231 s udp_con2;
#X obj 528 227 s udp_con3;
#X obj 747 227 s udp_con4;
#X obj 977 221 s udp_con5;
#X obj 1196 217 s udp_con6;
#X obj 88 468 s udp_con7;
#X obj 306 468 s udp_con8;
#X obj 536 466 s udp_con9;
#X obj 753 466 s udp_con10;
#X obj 982 464 s udp_con11;
#X obj 1201 463 s udp_con12;
#X obj 105 575 r udp_con1;
#X obj 192 574 r udp_con2;
#X obj 276 574 r udp_con3;
#X obj 360 575 r udp_con4;
#X obj 443 576 r udp_con5;
#X obj 526 575 r udp_con6;
#X obj 605 576 r udp_con7;
#X obj 689 575 r udp_con8;
#X obj 770 574 r udp_con9;
#X obj 850 575 r udp_con10;
#X obj 938 574 r udp_con11;
#X obj 1025 573 r udp_con12;
#X obj 105 599 outlet;
#X obj 192 598 outlet;
#X obj 273 599 outlet;
#X obj 360 598 outlet;
#X obj 443 598 outlet;
#X obj 530 597 outlet;
#X obj 611 598 outlet;
#X obj 698 597 outlet;
#X obj 770 598 outlet;
#X obj 857 597 outlet;
#X obj 938 598 outlet;
#X obj 1025 597 outlet;
#X obj 81 149 r udp_c1;
#X obj 299 145 r udp_c2;
#X obj 528 142 r udp_c3;
#X obj 746 142 r udp_c4;
#X obj 976 138 r udp_c5;
#X obj 88 385 r udp_c7;
#X obj 306 386 r udp_c8;
#X obj 535 383 r udp_c9;
#X obj 753 383 r udp_c10;
#X obj 982 381 r udp_c11;
#X obj 1201 379 r udp_c12;
#X obj 1194 139 r udp_c6;
#X obj 7 171 UDP_control;
#X obj 225 168 UDP_control;
#X obj 454 167 UDP_control;
#X obj 672 164 UDP_control;
#X obj 902 163 UDP_control;
#X obj 1120 160 UDP_control;
#X obj 14 413 UDP_control;
#X obj 232 410 UDP_control;
#X obj 461 409 UDP_control;
#X obj 679 406 UDP_control;
#X obj 908 405 UDP_control;
#X obj 1127 402 UDP_control;
#X obj 7 120 r GF1_1_control_data;
#X obj 226 120 r GF1_2_control_data;
#X obj 456 120 r GF1_3_control_data;
#X obj 674 120 r GF1_4_control_data;
#X obj 902 120 r GF1_5_control_data;
#X obj 1120 120 r GF1_6_control_data;
#X obj 15 361 r GF1_7_control_data;
#X obj 233 361 r GF1_8_control_data;
#X obj 475 361 r GF1_9_control_data;
#X obj 681 361 r GF1_10_control_data;
#X obj 909 361 r GF1_11_control_data;
#X obj 1127 361 r GF1_12_control_data;
#X obj 8 97 r GF1_1_message;
#X obj 226 96 r GF1_2_message;
#X obj 455 98 r GF1_3_message;
#X obj 673 97 r GF1_4_message;
#X obj 902 98 r GF1_5_message;
#X obj 1120 97 r GF1_6_message;
#X obj 15 334 r GF1_7_message;
#X obj 233 333 r GF1_8_message;
#X obj 463 335 r GF1_9_message;
#X obj 681 333 r GF1_10_message;
#X obj 910 334 r GF1_11_message;
#X obj 1128 334 r GF1_12_message, f 17;
#X connect 2 0 25 0;
#X connect 4 0 26 0;
#X connect 6 0 27 0;
#X connect 8 0 28 0;
#X connect 10 0 29 0;
#X connect 12 0 30 0;
#X connect 14 0 31 0;
#X connect 16 0 32 0;
#X connect 18 0 33 0;
#X connect 20 0 34 0;
#X connect 22 0 35 0;
#X connect 23 0 24 0;
#X connect 36 0 48 0;
#X connect 37 0 49 0;
#X connect 38 0 50 0;
#X connect 39 0 51 0;
#X connect 40 0 52 0;
#X connect 41 0 53 0;
#X connect 42 0 54 0;
#X connect 43 0 55 0;
#X connect 44 0 56 0;
#X connect 45 0 57 0;
#X connect 46 0 58 0;
#X connect 47 0 59 0;
#X connect 60 0 72 1;
#X connect 61 0 73 1;
#X connect 62 0 74 1;
#X connect 63 0 75 1;
#X connect 64 0 76 1;
#X connect 65 0 78 1;
#X connect 66 0 79 1;
#X connect 67 0 80 1;
#X connect 68 0 81 1;
#X connect 69 0 82 1;
#X connect 70 0 83 1;
#X connect 71 0 77 1;
#X connect 72 0 0 0;
#X connect 72 1 23 0;
#X connect 73 0 1 0;
#X connect 73 1 2 0;
#X connect 74 0 3 0;
#X connect 74 1 4 0;
#X connect 75 0 5 0;
#X connect 75 1 6 0;
#X connect 76 0 7 0;
#X connect 76 1 8 0;
#X connect 77 0 9 0;
#X connect 77 1 10 0;
#X connect 78 0 11 0;
#X connect 78 1 12 0;
#X connect 79 0 13 0;
#X connect 79 1 14 0;
#X connect 80 0 15 0;
#X connect 80 1 16 0;
#X connect 81 0 17 0;
#X connect 81 1 18 0;
#X connect 82 0 19 0;
#X connect 82 1 20 0;
#X connect 83 0 21 0;
#X connect 83 1 22 0;
#X connect 84 0 72 0;
#X connect 85 0 73 0;
#X connect 86 0 74 0;
#X connect 87 0 75 0;
#X connect 88 0 76 0;
#X connect 89 0 77 0;
#X connect 90 0 78 0;
#X connect 91 0 79 0;
#X connect 92 0 80 0;
#X connect 93 0 81 0;
#X connect 94 0 82 0;
#X connect 95 0 83 0;
#X connect 96 0 72 0;
#X connect 97 0 73 0;
#X connect 98 0 74 0;
#X connect 99 0 75 0;
#X connect 100 0 76 0;
#X connect 101 0 77 0;
#X connect 102 0 78 0;
#X connect 103 0 79 0;
#X connect 104 0 80 0;
#X connect 105 0 81 0;
#X connect 106 0 82 0;
#X connect 107 0 83 0;
#X restore 805 124 pd UDP;
#X obj 171 141 tgl 15 0 empty empty empty 17 7 0 10 -262144 -1 -1 1
1;
#X obj 222 141 tgl 15 0 empty empty empty 17 7 0 10 -262144 -1 -1 1
1;
#X obj 274 141 tgl 15 0 empty empty empty 17 7 0 10 -262144 -1 -1 1
1;
#X obj 326 141 tgl 15 0 empty empty empty 17 7 0 10 -262144 -1 -1 1
1;
#X obj 378 141 tgl 15 0 empty empty empty 17 7 0 10 -262144 -1 -1 1
1;
#X obj 430 141 tgl 15 0 empty empty empty 17 7 0 10 -262144 -1 -1 1
1;
#X obj 482 141 tgl 15 0 empty empty empty 17 7 0 10 -262144 -1 -1 1
1;
#X obj 534 141 tgl 15 0 empty empty empty 17 7 0 10 -262144 -1 -1 1
1;
#X obj 586 141 tgl 15 0 empty empty empty 17 7 0 10 -262144 -1 -1 1
1;
#X obj 638 141 tgl 15 0 empty empty empty 17 7 0 10 -262144 -1 -1 1
1;
#X obj 690 141 tgl 15 0 empty empty empty 17 7 0 10 -262144 -1 -1 1
1;
#X obj 742 141 tgl 15 0 empty empty empty 17 7 0 10 -262144 -1 -1 1
1;
#X obj 171 121 bng 15 250 50 0 empty empty empty 17 7 0 10 -262144
-1 -1;
#X obj 222 121 bng 15 250 50 0 empty empty empty 17 7 0 10 -262144
-1 -1;
#X obj 274 121 bng 15 250 50 0 empty empty empty 17 7 0 10 -262144
-1 -1;
#X obj 326 121 bng 15 250 50 0 empty empty empty 17 7 0 10 -262144
-1 -1;
#X obj 378 121 bng 15 250 50 0 empty empty empty 17 7 0 10 -262144
-1 -1;
#X obj 430 121 bng 15 250 50 0 empty empty empty 17 7 0 10 -262144
-1 -1;
#X obj 482 121 bng 15 250 50 0 empty empty empty 17 7 0 10 -262144
-1 -1;
#X obj 534 121 bng 15 250 50 0 empty empty empty 17 7 0 10 -262144
-1 -1;
#X obj 586 121 bng 15 250 50 0 empty empty empty 17 7 0 10 -262144
-1 -1;
#X obj 638 121 bng 15 250 50 0 empty empty empty 17 7 0 10 -262144
-1 -1;
#X obj 690 121 bng 15 250 50 0 empty empty empty 17 7 0 10 -262144
-1 -1;
#X obj 742 121 bng 15 250 50 0 empty empty empty 17 7 0 10 -262144
-1 -1;
#N canvas 36 23 1404 638 UDP_connect 0;
#X obj 28 13 inlet;
#X obj 112 11 inlet;
#X obj 193 12 inlet;
#X obj 280 11 inlet;
#X obj 363 11 inlet;
#X obj 448 10 inlet;
#X obj 531 11 inlet;
#X obj 618 10 inlet;
#X obj 690 11 inlet;
#X obj 777 10 inlet;
#X obj 858 11 inlet;
#X obj 945 10 inlet;
#X msg 28 37 \; udp_c1 connect 192.168.0.101 3001;
#X msg 110 79 \; udp_c2 connect 192.168.0.102 3001;
#X msg 196 131 \; udp_c3 connect 192.168.0.103 3001;
#X msg 278 173 \; udp_c4 connect 192.168.0.104 3001;
#X msg 368 229 \; udp_c5 connect 192.168.0.105 3001;
#X msg 450 271 \; udp_c6 connect 192.168.0.106 3001;
#X msg 536 323 \; udp_c7 connect 192.168.0.107 3001;
#X msg 618 365 \; udp_c8 connect 192.168.0.108 3001;
#X msg 700 414 \; udp_c9 connect 192.168.0.109 3001;
#X msg 782 456 \; udp_c10 connect 192.168.0.110 3001;
#X msg 868 508 \; udp_c11 connect 192.168.0.111 3001;
#X msg 950 550 \; udp_c12 connect 192.168.0.112 3001, f 82;
#X connect 0 0 12 0;
#X connect 1 0 13 0;
#X connect 2 0 14 0;
#X connect 3 0 15 0;
#X connect 4 0 16 0;
#X connect 5 0 17 0;
#X connect 6 0 18 0;
#X connect 7 0 19 0;
#X connect 8 0 20 0;
#X connect 9 0 21 0;
#X connect 10 0 22 0;
#X connect 11 0 23 0;
#X restore 857 136 pd UDP_connect;
#X obj 171 161 bng 15 250 50 0 empty empty empty 17 7 0 10 -262144
-1 -1;
#X obj 222 161 bng 15 250 50 0 empty empty empty 17 7 0 10 -262144
-1 -1;
#X obj 274 161 bng 15 250 50 0 empty empty empty 17 7 0 10 -262144
-1 -1;
#X obj 326 161 bng 15 250 50 0 empty empty empty 17 7 0 10 -262144
-1 -1;
#X obj 378 161 bng 15 250 50 0 empty empty empty 17 7 0 10 -262144
-1 -1;
#X obj 430 161 bng 15 250 50 0 empty empty empty 17 7 0 10 -262144
-1 -1;
#X obj 482 161 bng 15 250 50 0 empty empty empty 17 7 0 10 -262144
-1 -1;
#X obj 534 161 bng 15 250 50 0 empty empty empty 17 7 0 10 -262144
-1 -1;
#X obj 586 161 bng 15 250 50 0 empty empty empty 17 7 0 10 -262144
-1 -1;
#X obj 638 161 bng 15 250 50 0 empty empty empty 17 7 0 10 -262144
-1 -1;
#X obj 690 161 bng 15 250 50 0 empty empty empty 17 7 0 10 -262144
-1 -1;
#X obj 742 161 bng 15 250 50 0 empty empty empty 17 7 0 10 -262144
-1 -1;
#N canvas 36 23 1404 638 UDP_disconnect 0;
#X obj 28 13 inlet;
#X obj 112 11 inlet;
#X obj 193 12 inlet;
#X obj 280 11 inlet;
#X obj 363 11 inlet;
#X obj 448 10 inlet;
#X obj 531 11 inlet;
#X obj 618 10 inlet;
#X obj 690 11 inlet;
#X obj 777 10 inlet;
#X obj 858 11 inlet;
#X obj 945 10 inlet;
#X msg 28 37 \; udp_c1 disconnect;
#X msg 110 79 \; udp_c2 disconnect;
#X msg 196 131 \; udp_c3 disconnect;
#X msg 278 173 \; udp_c4 disconnect;
#X msg 368 229 \; udp_c5 disconnect;
#X msg 450 271 \; udp_c6 disconnect;
#X msg 536 323 \; udp_c7 disconnect;
#X msg 618 365 \; udp_c8 disconnect;
#X msg 700 414 \; udp_c9 disconnect;
#X msg 782 456 \; udp_c10 disconnect;
#X msg 868 508 \; udp_c11 disconnect;
#X msg 950 550 \; udp_c12 disconnect;
#X connect 0 0 12 0;
#X connect 1 0 13 0;
#X connect 2 0 14 0;
#X connect 3 0 15 0;
#X connect 4 0 16 0;
#X connect 5 0 17 0;
#X connect 6 0 18 0;
#X connect 7 0 19 0;
#X connect 8 0 20 0;
#X connect 9 0 21 0;
#X connect 10 0 22 0;
#X connect 11 0 23 0;
#X restore 857 176 pd UDP_disconnect;
#X text 103 141 status;
#N canvas 482 71 680 490 UDP_Global 0;
#X msg 55 95 \; udp_c1 connect 192.168.0.101 3001 \; udp_c2 connect
192.168.0.102 3001 \; udp_c3 connect 192.168.0.103 3001 \; udp_c4 connect
192.168.0.104 3001 \; udp_c5 connect 192.168.0.105 3001 \; udp_c6 connect
192.168.0.106 3001 \; udp_c7 connect 192.168.0.107 3001 \; udp_c8 connect
192.168.0.108 3001 \; udp_c9 connect 192.168.0.109 3001 \; udp_c10
connect 192.168.0.110 3001 \; udp_c11 connect 192.168.0.111 3001 \;
udp_c12 connect 192.168.0.112 3001;
#X msg 338 95 \; udp_c1 disconnect \; udp_c2 disconnect \; udp_c3 disconnect
\; udp_c4 disconnect \; udp_c5 disconnect \; udp_c6 disconnect \; udp_c7
disconnect \; udp_c8 disconnect \; udp_c9 disconnect \; udp_c10 disconnect
\; udp_c11 disconnect \; udp_c12 disconnect;
#X obj 55 70 inlet;
#X obj 338 72 inlet;
#X connect 2 0 0 0;
#X connect 3 0 1 0;
#X restore 30 192 pd UDP_Global;
#X obj 30 121 bng 15 250 50 0 empty UDP_connect_all UDP_connect_all_r
17 7 0 10 -159808 -1 -1;
#X obj 30 162 bng 15 250 50 0 empty empty UDP_disconnect_all 17 7 0
10 -262144 -1 -1;
#X text 169 102 Dro;
#X text 220 102 Dru;
#X text 271 102 Ims;
#X text 324 102 Jon;
#X text 369 102 Pilib;
#X text 424 102 Nael;
#X text 479 102 Mas;
#X text 529 102 Sew;
#X text 579 102 Gobo;
#X text 636 102 Us;
#X text 682 102 Imon;
#X text 740 102 Ot;
#X connect 0 0 1 0;
#X connect 0 1 2 0;
#X connect 0 2 3 0;
#X connect 0 3 4 0;
#X connect 0 4 5 0;
#X connect 0 5 6 0;
#X connect 0 6 7 0;
#X connect 0 7 8 0;
#X connect 0 8 9 0;
#X connect 0 9 10 0;
#X connect 0 10 11 0;
#X connect 0 11 12 0;
#X connect 13 0 25 0;
#X connect 14 0 25 1;
#X connect 15 0 25 2;
#X connect 16 0 25 3;
#X connect 17 0 25 4;
#X connect 18 0 25 5;
#X connect 19 0 25 6;
#X connect 20 0 25 7;
#X connect 21 0 25 8;
#X connect 22 0 25 9;
#X connect 23 0 25 10;
#X connect 24 0 25 11;
#X connect 26 0 38 0;
#X connect 27 0 38 1;
#X connect 28 0 38 2;
#X connect 29 0 38 3;
#X connect 30 0 38 4;
#X connect 31 0 38 5;
#X connect 32 0 38 6;
#X connect 33 0 38 7;
#X connect 34 0 38 8;
#X connect 35 0 38 9;
#X connect 36 0 38 10;
#X connect 37 0 38 11;
#X connect 41 0 40 0;
#X connect 42 0 40 1;
#X coords 0 -1 1 1 750 80 1 20 100;
#X restore 35 11 pd UDP;
#N canvas 106 91 1440 800 control_message 0;
#X obj 44 415 spigot;
#X obj 83 391 tgl 15 0 empty mc1 1 17 7 0 10 -262144 -1 -1 0 1;
#X obj 181 416 spigot;
#X obj 220 392 tgl 15 0 empty mc2 2 17 7 0 10 -262144 -1 -1 0 1;
#X obj 313 416 spigot;
#X obj 352 392 tgl 15 0 empty mc3 3 17 7 0 10 -262144 -1 -1 0 1;
#X obj 450 417 spigot;
#X obj 489 393 tgl 15 0 empty mc4 4 17 7 0 10 -262144 -1 -1 0 1;
#X obj 589 417 spigot;
#X obj 628 393 tgl 15 0 empty mc5 5 17 7 0 10 -262144 -1 -1 0 1;
#X obj 725 416 spigot;
#X obj 764 392 tgl 15 0 empty mc6 6 17 7 0 10 -262144 -1 -1 0 1;
#X obj 43 517 spigot;
#X obj 82 493 tgl 15 0 empty mc7 7 17 7 0 10 -262144 -1 -1 0 1;
#X obj 180 517 spigot;
#X obj 219 493 tgl 15 0 empty mc8 8 17 7 0 10 -262144 -1 -1 0 1;
#X obj 315 515 spigot;
#X obj 354 491 tgl 15 0 empty mc9 9 17 7 0 10 -262144 -1 -1 0 1;
#X obj 447 515 spigot;
#X obj 486 491 tgl 15 0 empty mc10 10 17 7 0 10 -262144 -1 -1 0 1;
#X obj 589 514 spigot;
#X obj 628 490 tgl 15 0 empty mc11 11 17 7 0 10 -262144 -1 -1 0 1;
#X obj 729 514 spigot;
#X obj 768 490 tgl 15 0 empty mc12 12 17 7 0 10 -262144 -1 -1 0 1;
#X text 1165 71 all on;
#X msg 1165 93 \; mc1 1 \; mc2 1 \; mc3 1 \; mc4 1 \; mc5 1 \; mc6
1 \; mc7 1 \; mc8 1 \; mc9 1 \; mc10 1 \; mc11 1 \; mc12 1;
#X msg 133 86 \; mc1 0 \; mc2 0 \; mc3 0 \; mc4 0 \; mc5 0 \; mc6 0
\; mc7 0 \; mc8 0 \; mc9 0 \; mc10 0 \; mc11 0 \; mc12 0;
#X text 130 64 all off;
#X text 250 130 adult default position;
#X text 226 201 adult sleep position;
#X obj 1020 376 r adult_data;
#X obj 1201 376 r kid_data;
#X text 271 54 arduino start;
#X text 704 127 kid default position;
#X text 704 198 kid sleep position;
#X msg 273 71 \; adult_data 255 1;
#X text 848 389 1 spigot On;
#X obj 233 12 inlet;
#X obj 233 35 t b b b b;
#X text 848 50 arduino start;
#X msg 850 67 \; adult_data 255 1;
#X obj 810 8 inlet;
#X obj 810 31 t b b b b;
#X obj 1201 399 s GF1_7_data;
#X obj 1201 424 s GF1_8_data;
#X obj 1201 449 s GF1_9_data;
#X obj 1201 474 s GF1_10_data;
#X obj 1201 499 s GF1_11_data;
#X obj 1201 524 s GF1_12_data;
#X obj 1020 399 s GF1_1_data;
#X obj 1020 424 s GF1_2_data;
#X obj 1020 449 s GF1_3_data;
#X obj 1020 474 s GF1_4_data;
#X obj 1020 499 s GF1_5_data;
#X obj 1020 524 s GF1_6_data;
#X obj 43 442 s GF1_1_message;
#X obj 181 443 s GF1_2_message;
#X obj 313 442 s GF1_3_message;
#X obj 589 443 s GF1_5_message;
#X obj 725 442 s GF1_6_message;
#X obj 45 367 r GF1_1_data;
#X obj 182 368 r GF1_2_data;
#X obj 314 368 r GF1_3_data;
#X obj 451 369 r GF1_4_data;
#X obj 590 369 r GF1_5_data;
#X obj 726 368 r GF1_6_data;
#X obj 44 469 r GF1_7_data;
#X obj 43 541 s GF1_7_message;
#X obj 181 469 r GF1_8_data;
#X obj 180 540 s GF1_8_message;
#X obj 448 467 r GF1__data;
#X obj 316 467 r GF1_9_data;
#X obj 315 539 s GF1_9_message;
#X obj 448 538 s GF1_10_message;
#X obj 590 466 r GF1_11_data;
#X obj 589 537 s GF1_11_message;
#X obj 730 466 r GF1_12_data;
#X obj 729 536 s GF1_12_message;
#X msg 251 148 \; adult_data 255 0 0 8 0 1 1 16 186 1 42 1 114 1 90
1 140 1 155 1 125 0 186 1 215 1 104 1 141 1 112 1 124 0 0 8 7 0 0;
#X msg 228 221 \; adult_data 255 0 0 8 0 1 1 16 186 1 42 1 114 1 90
1 140 1 155 1 125 0 186 1 222 1 104 1 141 1 151 0 212 0 0 0 0 0 0;
#X msg 705 146 \; kid_data 255 0 0 8 100 1 1 19 225 1 61 0 0 0 0 0
0 0 0 1 55 1 95 1 22 1 105 1 120 1 120 1 120 0 0 0 0 0 0;
#X msg 706 218 \; kid_data 255 0 0 8 100 1 1 19 225 1 61 0 0 0 0 0
0 0 0 1 55 1 95 1 22 1 105 1 120 1 120 1 120 0 0 0 0 0 0;
#X obj 450 443 s GF1_4_message;
#X connect 0 0 55 0;
#X connect 1 0 0 1;
#X connect 2 0 56 0;
#X connect 3 0 2 1;
#X connect 4 0 57 0;
#X connect 5 0 4 1;
#X connect 6 0 82 0;
#X connect 7 0 6 1;
#X connect 8 0 58 0;
#X connect 9 0 8 1;
#X connect 10 0 59 0;
#X connect 11 0 10 1;
#X connect 12 0 67 0;
#X connect 13 0 12 1;
#X connect 14 0 69 0;
#X connect 15 0 14 1;
#X connect 16 0 72 0;
#X connect 17 0 16 1;
#X connect 18 0 73 0;
#X connect 19 0 18 1;
#X connect 20 0 75 0;
#X connect 21 0 20 1;
#X connect 22 0 77 0;
#X connect 23 0 22 1;
#X connect 30 0 49 0;
#X connect 30 0 50 0;
#X connect 30 0 51 0;
#X connect 30 0 52 0;
#X connect 30 0 53 0;
#X connect 30 0 54 0;
#X connect 31 0 43 0;
#X connect 31 0 44 0;
#X connect 31 0 45 0;
#X connect 31 0 46 0;
#X connect 31 0 47 0;
#X connect 31 0 48 0;
#X connect 37 0 38 0;
#X connect 38 0 26 0;
#X connect 38 1 78 0;
#X connect 38 1 80 0;
#X connect 38 2 35 0;
#X connect 38 3 25 0;
#X connect 41 0 42 0;
#X connect 42 0 26 0;
#X connect 42 1 81 0;
#X connect 42 1 79 0;
#X connect 42 2 40 0;
#X connect 42 3 25 0;
#X connect 60 0 0 0;
#X connect 61 0 2 0;
#X connect 62 0 4 0;
#X connect 63 0 6 0;
#X connect 64 0 8 0;
#X connect 65 0 10 0;
#X connect 66 0 12 0;
#X connect 68 0 14 0;
#X connect 70 0 18 0;
#X connect 71 0 16 0;
#X connect 74 0 20 0;
#X connect 76 0 22 0;
#X restore 801 57 pd control_message;
#X obj 801 13 bng 15 250 50 0 empty empty default_position_all 17 7
0 10 -257985 -1 -1;
#X obj 801 32 bng 15 250 50 0 empty sleep_postion_all sleep_postion_all
17 7 0 10 -16662 -1 -1;
#N canvas 365 125 1322 785 AUDIO 0;
#X obj 35 -1 loadbang;
#X msg 34 25 \; pd dsp 1;
#X obj 69 776 dac~;
#X obj 82 1019 dac~;
#X msg 62 937 start;
#X msg 31 967 stop;
#X obj 70 899 t b b;
#X obj 69 879 bng 15 250 50 0 empty empty empty 17 7 0 10 -262144 -1
-1;
#X floatatom 72 822 5 0 0 1 sec. global_sec -;
#X obj 81 993 readsf~ 2;
#X obj 72 850 sel 2295;
#X obj 37 949 bng 10 250 50 0 empty Stop_Playing_Global STOP 0 -5 0
10 -4160 -1 -1;
#X obj 1033 1276 dac~;
#X msg 1013 1194 start;
#X msg 982 1224 stop;
#X obj 1021 1156 t b b;
#X obj 1020 1136 bng 15 250 50 0 empty empty empty 17 7 0 10 -262144
-1 -1;
#X floatatom 1023 1079 5 0 0 1 sec. global_sec -;
#X obj 1032 1250 readsf~ 2;
#X obj 988 1206 bng 10 250 50 0 empty Stop_Playing_Global STOP 0 -5
0 10 -4160 -1 -1;
#X msg 1072 1195 open ./Audio/Scene09_01.wav;
#X obj 1113 1121 bng 15 250 50 0 empty scene9_start_bang scene9_start_bang
17 7 0 10 -262144 -1 -1;
#X obj 364 1278 dac~;
#X msg 344 1196 start;
#X msg 313 1226 stop;
#X obj 352 1158 t b b;
#X obj 351 1140 bng 15 250 50 0 empty empty empty 17 7 0 10 -262144
-1 -1;
#X floatatom 354 1083 5 0 0 1 sec. global_sec -;
#X obj 363 1252 readsf~ 2;
#X obj 319 1208 bng 10 250 50 0 empty Stop_Playing_Global STOP 0 -5
0 10 -4160 -1 -1;
#X obj 372 779 dac~;
#X obj 762 1023 dac~;
#X msg 742 941 start;
#X msg 711 971 stop;
#X obj 750 903 t b b;
#X obj 749 883 bng 15 250 50 0 empty empty empty 17 7 0 10 -262144
-1 -1;
#X floatatom 752 826 5 0 0 1 sec. global_sec -;
#X obj 761 997 readsf~ 2;
#X obj 717 953 bng 10 250 50 0 empty Stop_Playing_Global STOP 0 -5
0 10 -4160 -1 -1;
#X obj 354 1111 sel 2790;
#X obj 370 1027 dac~;
#X msg 350 945 start;
#X msg 319 975 stop;
#X obj 358 907 t b b;
#X obj 357 887 bng 15 250 50 0 empty empty empty 17 7 0 10 -262144
-1 -1;
#X floatatom 360 830 5 0 0 1 sec. global_sec -;
#X obj 369 1001 readsf~ 2;
#X obj 325 957 bng 10 250 50 0 empty Stop_Playing_Global STOP 0 -5
0 10 -4160 -1 -1;
#X obj 360 858 sel 2550;
#X msg 409 946 open ./Audio/SIMGAK.WAV;
#X msg 801 942 open ./Audio/Scene7_5.wav;
#X obj 752 854 sel 2730;
#X obj 1063 1019 dac~;
#X msg 1043 937 start;
#X msg 1012 967 stop;
#X obj 1051 899 t b b;
#X obj 1050 879 bng 15 250 50 0 empty empty empty 17 7 0 10 -262144
-1 -1;
#X floatatom 1053 822 5 0 0 1 sec. global_sec -;
#X obj 1062 993 readsf~ 2;
#X obj 1018 949 bng 10 250 50 0 empty Stop_Playing_Global STOP 0 -5
0 10 -4160 -1 -1;
#X obj 1053 850 sel 2800;
#X msg 1102 938 open ./Audio/windy_noise.wav;
#X obj 1023 1107 sel 3030;
#X obj 680 1281 dac~;
#X msg 660 1199 start;
#X msg 629 1229 stop;
#X obj 668 1161 t b b;
#X obj 667 1141 bng 15 250 50 0 empty empty empty 17 7 0 10 -262144
-1 -1;
#X floatatom 670 1084 5 0 0 1 sec. global_sec -;
#X obj 679 1255 readsf~ 2;
#X obj 635 1211 bng 10 250 50 0 empty Stop_Playing_Global STOP 0 -5
0 10 -4160 -1 -1;
#X msg 719 1200 open ./Audio/Radio_noise.wav;
#X obj 670 1112 sel 2956;
#X text 428 1104 3min;
#X msg 403 1197 open ./Audio/Scene08_02.wav;
#X msg 121 938 open ./Audio/Scene06_01.wav;
#X obj 178 572 dac~;
#X msg 149 236 start;
#X msg 118 266 stop;
#X obj 157 198 t b b;
#X obj 156 180 bng 15 250 50 0 empty empty empty 17 7 0 10 -262144
-1 -1;
#X obj 168 292 readsf~ 2;
#X obj 118 248 bng 10 250 50 0 empty Stop_Playing_Global STOP 0 -5
0 10 -4160 -1 -1;
#X obj 95 154 t b b;
#X msg 208 237 open ./audio/UnfoldX_performance01.wav;
#X floatatom 96 78 5 0 0 1 sec. global_sec -;
#X obj 95 108 sel 1;
#X obj 93 133 bng 15 250 50 0 empty empty empty 17 7 0 10 -262144 -1
-1;
#X obj 137 387 *~ 1.5;
#X obj 196 388 *~ 1.5;
#X connect 0 0 1 0;
#X connect 4 0 9 0;
#X connect 5 0 9 0;
#X connect 6 0 4 0;
#X connect 6 1 75 0;
#X connect 7 0 6 0;
#X connect 8 0 10 0;
#X connect 9 0 3 0;
#X connect 9 1 3 1;
#X connect 10 0 7 0;
#X connect 11 0 5 0;
#X connect 13 0 18 0;
#X connect 14 0 18 0;
#X connect 15 0 13 0;
#X connect 15 1 20 0;
#X connect 16 0 15 0;
#X connect 17 0 62 0;
#X connect 18 0 12 0;
#X connect 18 1 12 1;
#X connect 19 0 14 0;
#X connect 20 0 18 0;
#X connect 21 0 16 0;
#X connect 23 0 28 0;
#X connect 24 0 28 0;
#X connect 25 0 23 0;
#X connect 25 1 74 0;
#X connect 26 0 25 0;
#X connect 27 0 39 0;
#X connect 28 0 22 0;
#X connect 28 1 22 1;
#X connect 29 0 24 0;
#X connect 32 0 37 0;
#X connect 33 0 37 0;
#X connect 34 0 32 0;
#X connect 34 1 50 0;
#X connect 35 0 34 0;
#X connect 36 0 51 0;
#X connect 37 0 31 0;
#X connect 37 1 31 1;
#X connect 38 0 33 0;
#X connect 39 0 26 0;
#X connect 41 0 46 0;
#X connect 42 0 46 0;
#X connect 43 0 41 0;
#X connect 43 1 49 0;
#X connect 44 0 43 0;
#X connect 45 0 48 0;
#X connect 46 0 40 0;
#X connect 46 1 40 1;
#X connect 47 0 42 0;
#X connect 48 0 44 0;
#X connect 49 0 46 0;
#X connect 50 0 37 0;
#X connect 51 0 35 0;
#X connect 53 0 58 0;
#X connect 54 0 58 0;
#X connect 56 0 55 0;
#X connect 57 0 60 0;
#X connect 58 0 52 0;
#X connect 58 1 52 1;
#X connect 59 0 54 0;
#X connect 60 0 56 0;
#X connect 61 0 58 0;
#X connect 62 0 16 0;
#X connect 64 0 69 0;
#X connect 65 0 69 0;
#X connect 66 0 64 0;
#X connect 66 1 71 0;
#X connect 67 0 66 0;
#X connect 68 0 72 0;
#X connect 69 0 63 0;
#X connect 69 1 63 1;
#X connect 70 0 65 0;
#X connect 71 0 69 0;
#X connect 72 0 67 0;
#X connect 74 0 28 0;
#X connect 75 0 9 0;
#X connect 77 0 81 0;
#X connect 78 0 81 0;
#X connect 79 0 77 0;
#X connect 79 1 84 0;
#X connect 80 0 79 0;
#X connect 81 0 88 0;
#X connect 81 1 89 0;
#X connect 82 0 78 0;
#X connect 83 0 80 0;
#X connect 83 1 82 0;
#X connect 84 0 81 0;
#X connect 85 0 86 0;
#X connect 86 0 87 0;
#X connect 87 0 83 0;
#X connect 88 0 76 0;
#X connect 89 0 76 1;
#X restore 1050 35 pd AUDIO;
#X text 1113 36 Audio;
#N canvas 1039 451 179 81 LeapMotion 0;
#N canvas 75 89 1247 789 node_osc 0;
#X obj 37 58 unpackOSC;
#X symbolatom 471 118 10 0 0 0 - - -;
#X floatatom 471 142 5 0 0 0 - - -;
#X floatatom 515 142 5 0 0 0 - - -;
#X floatatom 559 142 5 0 0 0 - - -;
#X symbolatom 591 118 10 0 0 0 - - -;
#X floatatom 607 150 5 0 0 0 - - -;
#X floatatom 642 150 5 0 0 0 - - -;
#X floatatom 679 150 5 0 0 0 - - -;
#X symbolatom 718 118 10 0 0 0 - - -;
#X floatatom 734 150 5 0 0 0 - - -;
#X floatatom 769 150 5 0 0 0 - - -;
#X floatatom 806 150 5 0 0 0 - - -;
#X obj 471 168 vsl 15 128 0 1 0 0 empty empty empty 0 -9 0 10 -262144
-1 -1 0 1;
#X obj 515 168 vsl 15 128 0 1 0 0 empty empty empty 0 -9 0 10 -262144
-1 -1 0 1;
#X obj 559 168 vsl 15 128 0 1 0 0 empty empty empty 0 -9 0 10 -262144
-1 -1 0 1;
#X obj 606 176 vsl 15 128 0 1 0 0 empty empty empty 0 -9 0 10 -262144
-1 -1 0 1;
#X obj 640 176 vsl 15 128 0 1 0 0 empty empty empty 0 -9 0 10 -262144
-1 -1 0 1;
#X obj 678 176 vsl 15 128 0 1 0 0 empty empty empty 0 -9 0 10 -262144
-1 -1 0 1;
#X obj 735 176 vsl 15 128 0 1 0 0 empty empty empty 0 -9 0 10 -262144
-1 -1 0 1;
#X obj 769 176 vsl 15 128 0 1 0 0 empty empty empty 0 -9 0 10 -262144
-1 -1 0 1;
#X obj 807 176 vsl 15 128 0 1 0 0 empty empty empty 0 -9 0 10 -262144
-1 -1 0 1;
#X obj 471 71 unpack s f f f s f f f s f f f s f f f s f f f, f 91
;
#X symbolatom 847 118 10 0 0 0 - - -;
#X floatatom 863 150 5 0 0 0 - - -;
#X floatatom 898 150 5 0 0 0 - - -;
#X floatatom 935 150 5 0 0 0 - - -;
#X obj 864 176 vsl 15 128 0 1 0 0 empty empty empty 0 -9 0 10 -262144
-1 -1 0 1;
#X obj 898 176 vsl 15 128 0 1 0 0 empty empty empty 0 -9 0 10 -262144
-1 -1 0 1;
#X obj 936 176 vsl 15 128 0 1 0 0 empty empty empty 0 -9 0 10 -262144
-1 -1 0 1;
#X symbolatom 984 118 10 0 0 0 - - -;
#X floatatom 1000 150 5 0 0 0 - - -;
#X floatatom 1035 150 5 0 0 0 - - -;
#X floatatom 1072 150 5 0 0 0 - - -;
#X obj 1001 176 vsl 15 128 0 1 0 0 empty empty empty 0 -9 0 10 -262144
-1 -1 0 1;
#X obj 1035 176 vsl 15 128 0 1 0 0 empty empty empty 0 -9 0 10 -262144
-1 -1 0 1;
#X obj 1073 176 vsl 15 128 0 1 0 0 empty empty empty 0 -9 0 10 -262144
-1 -1 0 1;
#X text 291 88 get range for each joint;
#X text 324 109 thumb 0.75 0.72 0.3;
#X text 260 130 index and others 0.2 0.1 0.4;
#X floatatom 609 528 5 0 0 0 - - -;
#X floatatom 767 526 5 0 0 0 - - -;
#X floatatom 922 521 5 0 0 0 - - -;
#X floatatom 1075 517 5 0 0 0 - - -;
#X obj 609 601 vsl 15 128 0 1 0 0 empty empty empty 0 -9 0 10 -262144
-1 -1 0 1;
#X obj 767 596 vsl 15 128 0 1 0 0 empty empty empty 0 -9 0 10 -262144
-1 -1 0 1;
#X obj 923 596 vsl 15 128 0 1 0 0 empty empty empty 0 -9 0 10 -262144
-1 -1 0 1;
#X obj 1076 595 vsl 15 128 0 1 0 0 empty empty empty 0 -9 0 10 -262144
-1 -1 0 1;
#X obj 73 115 routeOSC /hand;
#X text 780 21 finger 1-5 inverted;
#X obj 767 321 node-osc-finger 3;
#X obj 923 321 node-osc-finger 4;
#X obj 1076 320 node-osc-finger 5;
#X floatatom 416 638 5 0 0 0 - - -;
#X obj 467 608 vsl 15 128 0 1 0 0 empty empty empty 0 -9 0 10 -262144
-1 -1 0 1;
#X obj 608 321 node-osc-finger 2;
#X obj 459 327 node-osc-finger 1;
#X obj 472 50 routeOSC /fingers/raw;
#X symbolatom 45 171 10 0 0 0 - - -;
#X floatatom 70 205 5 0 0 0 - - -;
#X obj 55 406 vsl 15 128 0 1 0 0 empty empty empty 0 -9 0 10 -262144
-1 -1 0 1;
#X symbolatom 117 170 10 0 0 0 - - -;
#X floatatom 121 200 5 0 0 0 - - -;
#X obj 88 408 vsl 15 128 0 1 0 0 empty empty empty 0 -9 0 10 -262144
-1 -1 0 1;
#X obj 260 796 node-osc-robot-select;
#X obj 55 249 clip 0 1;
#X floatatom 121 289 5 0 0 0 - - -;
#X symbolatom 195 172 10 0 0 0 - - -;
#X symbolatom 284 172 10 0 0 0 - - -;
#X floatatom 198 198 5 0 0 0 - - -;
#X floatatom 309 204 5 0 0 0 - - -;
#X obj 68 143 unpack s f s f s f s f s f, f 28;
#X symbolatom 357 171 10 0 0 0 - - -;
#X floatatom 373 207 5 0 0 0 - - -;
#X floatatom 373 311 5 0 0 0 - - -;
#X floatatom 278 299 5 0 0 0 - - -;
#X obj 340 455 vsl 15 128 0 1 0 0 empty empty empty 0 -9 0 10 -262144
-1 -1 0 1;
#X obj 278 319 - 1;
#X obj 278 340 * -1;
#X obj 459 521 * 2;
#X obj 460 545 clip 0 1;
#X obj 441 571 - 1;
#X obj 389 612 * -1;
#X obj 607 551 clip 0 0.7;
#X obj 609 575 / 0.7;
#X obj 767 546 clip 0 0.7;
#X obj 769 570 / 0.7;
#X obj 921 543 clip 0 0.7;
#X obj 923 567 / 0.7;
#X obj 1105 548 clip 0 0.7;
#X obj 1107 572 / 0.7;
#X obj 373 227 clip -200 200;
#X obj 373 248 + 200;
#X obj 373 269 / 400;
#X obj 373 290 clip 0 1;
#X obj 279 236 clip -200 200;
#X obj 278 257 + 200;
#X obj 278 278 / 400;
#X obj 121 222 clip 0.5 1;
#X obj 121 244 - 0.5;
#X obj 121 267 * 2;
#X obj 37 37 udpreceive 3030;
#X obj 289 510 hsl 128 15 0 1 0 0 empty empty empty -2 -8 0 10 -262144
-1 -1 0 1;
#X obj 198 222 clip 50 600;
#X obj 198 246 - 50;
#X obj 197 270 / 550;
#X obj 196 411 vsl 15 128 0 1 0 0 empty empty empty 0 -9 0 10 -262144
-1 -1 0 1;
#X obj 516 678 inlet;
#X obj 560 677 inlet;
#X obj 516 702 - 1;
#X connect 0 0 57 0;
#X connect 0 0 48 0;
#X connect 2 0 13 0;
#X connect 3 0 14 0;
#X connect 4 0 15 0;
#X connect 6 0 16 0;
#X connect 7 0 17 0;
#X connect 8 0 18 0;
#X connect 10 0 19 0;
#X connect 11 0 20 0;
#X connect 12 0 21 0;
#X connect 13 0 56 0;
#X connect 14 0 56 1;
#X connect 15 0 56 2;
#X connect 16 0 55 0;
#X connect 17 0 55 1;
#X connect 18 0 55 2;
#X connect 19 0 50 0;
#X connect 20 0 50 1;
#X connect 21 0 50 2;
#X connect 22 0 1 0;
#X connect 22 1 2 0;
#X connect 22 2 3 0;
#X connect 22 3 4 0;
#X connect 22 4 5 0;
#X connect 22 5 6 0;
#X connect 22 6 7 0;
#X connect 22 7 8 0;
#X connect 22 8 9 0;
#X connect 22 9 10 0;
#X connect 22 10 11 0;
#X connect 22 11 12 0;
#X connect 22 12 23 0;
#X connect 22 13 24 0;
#X connect 22 14 25 0;
#X connect 22 15 26 0;
#X connect 22 16 30 0;
#X connect 22 17 31 0;
#X connect 22 18 32 0;
#X connect 22 19 33 0;
#X connect 24 0 27 0;
#X connect 25 0 28 0;
#X connect 26 0 29 0;
#X connect 27 0 51 0;
#X connect 28 0 51 1;
#X connect 29 0 51 2;
#X connect 31 0 34 0;
#X connect 32 0 35 0;
#X connect 33 0 36 0;
#X connect 34 0 52 0;
#X connect 35 0 52 1;
#X connect 36 0 52 2;
#X connect 40 0 83 0;
#X connect 41 0 85 0;
#X connect 42 0 87 0;
#X connect 43 0 89 0;
#X connect 44 0 64 6;
#X connect 45 0 64 7;
#X connect 46 0 64 8;
#X connect 47 0 64 9;
#X connect 48 0 71 0;
#X connect 50 0 41 0;
#X connect 51 0 42 0;
#X connect 52 0 43 0;
#X connect 53 0 54 0;
#X connect 54 0 64 5;
#X connect 55 0 40 0;
#X connect 56 0 79 0;
#X connect 57 0 22 0;
#X connect 59 0 65 0;
#X connect 60 0 64 0;
#X connect 62 0 98 0;
#X connect 63 0 64 1;
#X connect 65 0 60 0;
#X connect 66 0 63 0;
#X connect 69 0 103 0;
#X connect 70 0 95 0;
#X connect 71 0 58 0;
#X connect 71 1 59 0;
#X connect 71 2 61 0;
#X connect 71 3 62 0;
#X connect 71 4 67 0;
#X connect 71 5 69 0;
#X connect 71 6 68 0;
#X connect 71 7 70 0;
#X connect 71 8 72 0;
#X connect 71 9 73 0;
#X connect 73 0 91 0;
#X connect 74 0 102 0;
#X connect 75 0 77 0;
#X connect 76 0 64 3;
#X connect 77 0 78 0;
#X connect 78 0 76 0;
#X connect 79 0 80 0;
#X connect 80 0 81 0;
#X connect 81 0 82 0;
#X connect 82 0 53 0;
#X connect 83 0 84 0;
#X connect 84 0 44 0;
#X connect 85 0 86 0;
#X connect 86 0 45 0;
#X connect 87 0 88 0;
#X connect 88 0 46 0;
#X connect 89 0 90 0;
#X connect 90 0 47 0;
#X connect 91 0 92 0;
#X connect 92 0 93 0;
#X connect 93 0 94 0;
#X connect 94 0 74 0;
#X connect 95 0 96 0;
#X connect 96 0 97 0;
#X connect 97 0 75 0;
#X connect 98 0 99 0;
#X connect 99 0 100 0;
#X connect 100 0 66 0;
#X connect 101 0 0 0;
#X connect 102 0 64 4;
#X connect 103 0 104 0;
#X connect 104 0 105 0;
#X connect 105 0 106 0;
#X connect 106 0 64 2;
#X connect 107 0 109 0;
#X connect 108 0 64 11;
#X connect 109 0 64 10;
#X restore 8 44 pd node_osc;
#X obj 8 20 nbx 3 20 -1e+37 1e+37 0 0 empty empty LeapMotion_Control
0 -8 0 10 -257985 -1 -1 0 256;
#X obj 81 21 tgl 20 0 empty empty On/Off 22 10 0 10 -257985 -1 -1 0
1;
#X connect 1 0 0 0;
#X connect 2 0 0 1;
#X restore 950 36 pd LeapMotion;
#N canvas 72 826 375 221 Global_Transport 1;
#X floatatom 16 130 5 0 0 1 sec. - global_sec;
#N canvas 525 210 772 590 time 0;
#X floatatom 367 378 5 0 0 0 - - -;
#X msg 398 248 0;
#X text 406 377 sec;
#X obj 365 491 outlet;
#X obj 275 271 / 60;
#X obj 275 298 int;
#X floatatom 104 176 5 0 100 1 min - -;
#X floatatom 165 176 5 0 59 1 sec - -;
#X obj 325 407 % 60;
#X obj 367 279 f;
#X obj 396 278 + 1;
#X obj 519 216 == 0;
#X obj 480 258 spigot;
#X obj 519 238 tgl 15 0 empty empty empty 17 7 0 10 -262144 -1 -1 0
1;
#X obj 190 376 * 60;
#X obj 230 417 +;
#X obj 165 382 bng 15 250 50 0 empty empty empty 17 7 0 10 -262144
-1 -1;
#X floatatom 230 443 5 0 0 0 - - -;
#X obj 111 136 tgl 30 0 Global_Play empty PLAY 0 -5 0 15 -4034 -1 -1
1 1;
#X obj 164 136 bng 30 250 50 0 Stop_Playing_Global empty STOP 0 -5
0 15 -4160 -1 -1;
#X msg 102 67 0;
#X obj 351 29 metro 10;
#X obj 351 55 f;
#X obj 380 54 + 1;
#X floatatom 351 81 5 0 0 1 Global_Step - -;
#X obj 351 111 / 100;
#X obj 351 136 int;
#X obj 351 161 change;
#X obj 351 197 bng 15 250 50 0 empty empty empty 17 7 0 10 -262144
-1 -1;
#X msg 455 34 0;
#X obj 557 -22 == 0;
#X obj 518 20 spigot;
#X obj 557 0 tgl 15 0 empty empty empty 17 7 0 10 -262144 -1 -1 0 1
;
#X obj 503 -7 * 100;
#X obj 485 489 outlet;
#X connect 0 0 4 0;
#X connect 0 0 8 0;
#X connect 0 0 3 0;
#X connect 1 0 9 1;
#X connect 4 0 5 0;
#X connect 5 0 6 0;
#X connect 6 0 14 0;
#X connect 7 0 15 1;
#X connect 7 0 16 0;
#X connect 8 0 7 0;
#X connect 9 0 10 0;
#X connect 9 0 0 0;
#X connect 10 0 9 1;
#X connect 11 0 13 0;
#X connect 12 0 9 1;
#X connect 13 0 12 1;
#X connect 14 0 15 0;
#X connect 15 0 17 0;
#X connect 16 0 15 0;
#X connect 17 0 12 0;
#X connect 17 0 33 0;
#X connect 18 0 11 0;
#X connect 18 0 21 0;
#X connect 18 0 30 0;
#X connect 19 0 1 0;
#X connect 19 0 20 0;
#X connect 19 0 29 0;
#X connect 20 0 18 0;
#X connect 21 0 22 0;
#X connect 22 0 23 0;
#X connect 22 0 24 0;
#X connect 23 0 22 1;
#X connect 24 0 25 0;
#X connect 24 0 34 0;
#X connect 25 0 26 0;
#X connect 26 0 27 0;
#X connect 27 0 28 0;
#X connect 28 0 9 0;
#X connect 29 0 22 1;
#X connect 30 0 32 0;
#X connect 31 0 22 1;
#X connect 32 0 31 1;
#X connect 33 0 31 0;
#X coords 0 -1 1 1 125 100 1 100 100;
#X restore 16 25 pd time;
#X floatatom 134 130 10 0 0 1 Global_Step - Global_Step;
#X obj 113 70 tgl 20 0 Global_Control empty G 20 7 0 15 -262144 -1
-1 0 1;
#X obj 205 29 loadbang;
#X msg 205 51 1;
#X obj 87 6 bng 15 250 50 0 play_intro empty play_intro 17 7 0 10 -262144
-1 -1;
#X connect 1 0 0 0;
#X connect 1 1 2 0;
#X connect 4 0 5 0;
#X connect 5 0 3 0;
#X restore 949 13 pd Global_Transport;
#N canvas 321 471 942 505 start_position 0;
#X obj 26 198 bng 8 250 50 0 empty empty empty 17 7 0 10 -262144 -1
-1;
#X obj 120 114 nbx 4 14 -1e+37 1e+37 0 1 empty empty sec 0 -8 0 10
-262144 -1 -1 -100 256;
#X obj 11 56 bng 15 250 50 0 start_position_all empty empty 17 7 0
10 -262144 -1 -1;
#X obj 25 92 bng 15 250 50 0 empty start_position_all empty 17 7 0
10 -262144 -1 -1;
#X msg 26 111 1;
#X obj 295 117 nbx 4 14 -1e+37 1e+37 0 1 empty empty sec 0 -8 0 10
-262144 -1 -1 -100 256;
#X obj 201 95 bng 15 250 50 0 empty start_position_all empty 17 7 0
10 -262144 -1 -1;
#X msg 202 114 1;
#X obj 13 6 inlet;
#X obj 72 112 bng 15 250 50 0 empty stop_start_position empty 17 7
0 10 -262144 -1 -1;
#X obj 71 33 bng 15 250 50 0 stop_start_position empty empty 17 7 0
10 -262144 -1 -1;
#X obj 71 9 inlet;
#X obj 247 116 bng 15 250 50 0 empty stop_start_position empty 17 7
0 10 -262144 -1 -1;
#X obj 12 32 t b b;
#X obj 43 59 bng 15 250 50 0 start_position_bang empty empty 17 7 0
10 -262144 -1 -1;
#X obj 119 85 bng 15 250 50 0 empty start_position_bang empty 17 7
0 10 -262144 -1 -1;
#X obj 294 90 bng 15 250 50 0 empty start_position_bang empty 17 7
0 10 -262144 -1 -1;
#X obj 27 133 GF2 1 0 60;
#X obj 202 136 GF2 6 0 60;
#X obj 28 252 s GF1_4_control_data;
#X obj 29 227 s GF1_2_control_data;
#X obj 28 276 s GF1_5_control_data;
#X connect 1 0 17 2;
#X connect 2 0 3 0;
#X connect 2 0 6 0;
#X connect 3 0 4 0;
#X connect 4 0 17 0;
#X connect 5 0 18 2;
#X connect 6 0 7 0;
#X connect 7 0 18 0;
#X connect 8 0 13 0;
#X connect 9 0 17 1;
#X connect 11 0 10 0;
#X connect 12 0 18 1;
#X connect 13 0 2 0;
#X connect 13 1 14 0;
#X connect 15 0 1 0;
#X connect 16 0 5 0;
#X connect 17 0 0 0;
#X connect 17 0 20 0;
#X connect 17 0 19 0;
#X connect 17 0 21 0;
#X restore 1290 385 pd start_position;
#X obj 1290 351 bng 15 250 50 0 empty empty start_position_all 17 7
0 10 -262144 -1 -1;
#X obj 1405 365 bng 15 250 50 0 empty empty empty 17 7 0 10 -262144
-1 -1;
#X text 240 276 Start 02:08;
#X obj 242 198 GF2 6 2 75;
#X obj 242 265 bng 8 250 50 0 empty empty empty 17 7 0 10 -262144 -1
-1;
#X obj 411 265 bng 8 250 50 0 empty empty empty 17 7 0 10 -262144 -1
-1;
#X text 410 156 Flying Nael;
#X obj 412 191 GF2 6 22 180;
#X text 262 136 부채춤;
#X text 262 154 Nael;
#X obj 340 162 nbx 4 14 -1e+37 1e+37 0 1 empty empty sec 0 -8 0 10
-262144 -1 -1 155 256;
#X obj 505 167 nbx 4 14 -1e+37 1e+37 0 1 empty empty sec 0 -8 0 10
-262144 -1 -1 230 256;
#X text 571 163 Sufi Dance;
#X obj 666 182 nbx 4 14 -1e+37 1e+37 0 1 empty empty sec 0 -8 0 10
-262144 -1 -1 470 256;
#X obj 52 291 s GF1_4_control_data;
#X obj 53 266 s GF1_2_control_data;
#X obj 52 315 s GF1_5_control_data;
#X obj 575 444 s GF1_4_control_data;
#X obj 575 419 s GF1_2_control_data;
#X obj 574 470 s GF1_5_control_data;
#X obj 575 444 s GF1_4_control_data;
#X obj 575 419 s GF1_2_control_data;
#X obj 574 470 s GF1_5_control_data;
#X obj 573 202 GF2 3 21 120;
#X obj 575 344 GF2 1 4 120;
#X obj 60 458 bng 8 250 50 0 empty empty empty 17 7 0 10 -262144 -1
-1;
#X obj 162 369 nbx 4 14 -1e+37 1e+37 0 1 empty empty sec 0 -8 0 10
-262144 -1 -1 170 256;
#X obj 68 460 s GF1_8_control_data;
#X text 49 360 Kid Dancers x2;
#X obj 60 389 GF2 10 4 240;
#X obj 152 173 nbx 4 14 -1e+37 1e+37 0 1 empty empty sec 0 -8 0 10
-262144 -1 -1 170 256;
#X obj 669 323 nbx 4 14 -1e+37 1e+37 0 1 empty empty sec 0 -8 0 10
-262144 -1 -1 470 256;
#X obj 47 258 bng 8 250 50 0 empty empty empty 17 7 0 10 -262144 -1
-1;
#X obj 579 407 bng 8 250 50 0 empty empty empty 17 7 0 10 -262144 -1
-1;
#X obj 573 266 bng 8 250 50 0 empty empty empty 17 7 0 10 -262144 -1
-1;
#N canvas 316 468 643 332 DMX 1;
#X obj 23 128 metro 100;
#X obj 23 107 tgl 15 0 empty empty empty 17 7 0 10 -262144 -1 -1 1
1;
#X text 164 206 3 Control Lights;
#X text 164 240 4 Make a Scene with Relevant Lights;
#N canvas 72 96 1440 605 Mixer01 0;
#X text 21 14 L1;
#X text 766 16 L2;
#X text 19 228 L3;
#X text 765 226 L4;
#X text 21 445 L5;
#X text 766 441 L6;
#X text 19 660 L7;
#X text 764 657 L8;
#X obj 56 18 F 1 1 1;
#X obj 175 18 F 1 2 1;
#X obj 303 18 F 1 3 1;
#X obj 423 17 F 1 4 1;
#X obj 833 17 F 2 1 1;
#X obj 955 17 F 2 2 1;
#X obj 1080 17 F 2 3 1;
#X obj 1200 16 F 2 4 1;
#X obj 55 241 F 3 1 1;
#X obj 177 241 F 3 2 1;
#X obj 302 241 F 3 3 1;
#X obj 422 240 F 3 4 1;
#X obj 832 240 F 4 1 1;
#X obj 954 240 F 4 2 1;
#X obj 1079 240 F 4 3 1;
#X obj 1199 239 F 4 4 1;
#X obj 53 456 F 5 1 1;
#X obj 175 456 F 5 2 1;
#X obj 300 456 F 5 3 1;
#X obj 420 455 F 5 4 1;
#X obj 830 455 F 6 1 1;
#X obj 952 455 F 6 2 1;
#X obj 1077 455 F 6 3 1;
#X obj 1197 454 F 6 4 1;
#X obj 52 666 F 7 1 1;
#X obj 174 666 F 7 2 1;
#X obj 299 666 F 7 3 1;
#X obj 419 665 F 7 4 1;
#X obj 829 665 F 8 1 1;
#X obj 951 665 F 8 2 1;
#X obj 1076 665 F 8 3 1;
#X obj 1196 664 F 8 4 1;
#X text 25 868 L9;
#X obj 49 874 F 9 1 1;
#X obj 171 874 F 9 2 1;
#X obj 296 874 F 9 3 1;
#X obj 416 873 F 9 4 1;
#X restore 19 201 pd Mixer01;
#N canvas 81 770 1440 278 Control_Messages 0;
#X msg 36 90 \; lt-1-1-1 0 \; f-1-1-1 0 \; lt-1-2-1 0 \; f-1-2-1 0
\; lt-1-3-1 0 \; f-1-3-1 0 \; lt-1-4-1 0 \; f-1-4-1 0 \;;
#X text 58 66 L1;
#X text 155 68 L2;
#X text 261 66 L3;
#X text 358 68 L4;
#X text 465 67 L5;
#X text 562 69 L6;
#X text 668 67 L7;
#X text 765 69 L8;
#X msg 138 91 \; lt-2-1-1 0 \; f-2-1-1 0 \; lt-2-2-1 0 \; f-2-2-1 0
\; lt-2-3-1 0 \; f-2-3-1 0 \; lt-2-4-1 0 \; f-2-4-1 0 \;;
#X msg 239 90 \; lt-3-1-1 0 \; f-3-1-1 0 \; lt-3-2-1 0 \; f-3-2-1 0
\; lt-3-3-1 0 \; f-3-3-1 0 \; lt-3-4-1 0 \; f-3-4-1 0 \;;
#X msg 341 91 \; lt-4-1-1 0 \; f-4-1-1 0 \; lt-4-2-1 0 \; f-4-2-1 0
\; lt-4-3-1 0 \; f-4-3-1 0 \; lt-4-4-1 0 \; f-4-4-1 0 \;;
#X msg 443 91 \; lt-5-1-1 0 \; f-5-1-1 0 \; lt-5-2-1 0 \; f-5-2-1 0
\; lt-5-3-1 0 \; f-5-3-1 0 \; lt-5-4-1 0 \; f-5-4-1 0 \;;
#X msg 545 92 \; lt-6-1-1 0 \; f-6-1-1 0 \; lt-6-2-1 0 \; f-6-2-1 0
\; lt-6-3-1 0 \; f-6-3-1 0 \; lt-6-4-1 0 \; f-6-4-1 0 \;;
#X msg 646 91 \; lt-7-1-1 0 \; f-7-1-1 0 \; lt-7-2-1 0 \; f-7-2-1 0
\; lt-7-3-1 0 \; f-7-3-1 0 \; lt-7-4-1 0 \; f-7-4-1 0 \;;
#X msg 748 92 \; lt-8-1-1 0 \; f-8-1-1 0 \; lt-8-2-1 0 \; f-8-2-1 0
\; lt-8-3-1 0 \; f-8-3-1 0 \; lt-8-4-1 0 \; f-8-4-1 0 \;;
#X text 0 50 Turn off;
#X floatatom 1168 45 5 0 0 2 Transition_Interval Transition_Interval
-;
#X msg 1169 65 \; lt-1-1-1 \$1 \; lt-1-2-1 \$1 \; lt-1-3-1 \$1 \; lt-1-4-1
\$1 \; lt-2-1-1 \$1 \; lt-2-2-1 \$1 \; lt-2-3-1 \$1 \; lt-2-4-1 \$1
\; lt-3-1-1 \$1 \; lt-3-2-1 \$1 \; lt-3-3-1 \$1 \; lt-3-4-1 \$1 \;
lt-4-1-1 \$1 \; lt-4-2-1 \$1 \; lt-4-3-1 \$1 \; lt-4-4-1 \$1 \;;
#X msg 1271 66 \; lt-5-1-1 \$1 \; lt-5-2-1 \$1 \; lt-5-3-1 \$1 \; lt-5-4-1
\$1 \; lt-6-1-1 \$1 \; lt-6-2-1 \$1 \; lt-6-3-1 \$1 \; lt-6-4-1 \$1
\; lt-7-1-1 \$1 \; lt-7-2-1 \$1 \; lt-7-3-1 \$1 \; lt-7-4-1 \$1 \;
lt-8-1-1 \$1 \; lt-8-2-1 \$1 \; lt-8-3-1 \$1 \; lt-8-4-1 \$1 \;;
#X text 75 290 L1;
#X text 172 292 L2;
#X text 278 290 L3;
#X text 375 292 L4;
#X text 482 291 L5;
#X text 579 293 L6;
#X text 685 291 L7;
#X text 782 293 L8;
#X msg 53 314 \; f-1-1-1 0 \; f-1-2-1 0 \; f-1-3-1 0 \; f-1-4-1 0 \;
;
#X msg 155 315 \; f-2-1-1 0 \; f-2-2-1 0 \; f-2-3-1 0 \; f-2-4-1 0
\;;
#X msg 256 314 \; f-3-1-1 0 \; f-3-2-1 0 \; f-3-3-1 0 \; f-3-4-1 0
\;;
#X msg 358 315 \; f-4-1-1 0 \; f-4-2-1 0 \; f-4-3-1 0 \; f-4-4-1 0
\;;
#X msg 460 315 \; f-5-1-1 0 \; f-5-2-1 0 \; f-5-3-1 0 \; f-5-4-1 0
\;;
#X msg 562 316 \; f-6-1-1 0 \; f-6-2-1 0 \; f-6-3-1 0 \; f-6-4-1 0
\;;
#X msg 663 315 \; f-7-1-1 0 \; f-7-2-1 0 \; f-7-3-1 0 \; f-7-4-1 0
\;;
#X msg 765 316 \; f-8-1-1 0 \; f-8-2-1 0 \; f-8-3-1 0 \; f-8-4-1 0
\;;
#X obj 2 300 bng 15 250 50 0 empty empty empty 17 7 0 10 -262144 -1
-1;
#X obj 13 74 bng 15 250 50 0 empty empty empty 17 7 0 10 -262144 -1
-1;
#X text 5 399 set1;
#X msg 974 318 \; Transition_Interval 3000;
#X obj 16 295 t b b;
#X obj 15 277 bng 15 250 50 0 empty set0 set0 17 7 0 10 -262144 -1
-1;
#X msg 1124 45 0;
#X text 2 261 set0;
#X text 80 434 L1;
#X text 177 436 L2;
#X text 283 434 L3;
#X text 380 436 L4;
#X text 487 435 L5;
#X text 584 437 L6;
#X text 690 435 L7;
#X text 787 437 L8;
#X obj 7 444 bng 15 250 50 0 empty empty empty 17 7 0 10 -262144 -1
-1;
#X obj 21 439 t b b;
#X obj 20 421 bng 15 250 50 0 empty set1 set1 17 7 0 10 -262144 -1
-1;
#X text 878 295 L9;
#X text 883 439 L9;
#X msg 861 318 \; f-9-1-1 0 \; f-9-2-1 0 \; f-9-3-1 0 \; f-9-4-1 0
\;;
#X msg 847 93 \; lt-9-1-1 0 \; f-9-1-1 0 \; lt-9-2-1 0 \; f-9-2-1 0
\; lt-9-3-1 0 \; f-9-3-1 0 \; lt-9-4-1 0 \; f-9-4-1 0 \;;
#X text 864 70 L9;
#X text 84 609 L1;
#X text 181 611 L2;
#X text 287 609 L3;
#X text 384 611 L4;
#X text 491 610 L5;
#X text 588 612 L6;
#X text 694 610 L7;
#X text 791 612 L8;
#X obj 11 619 bng 15 250 50 0 empty empty empty 17 7 0 10 -262144 -1
-1;
#X obj 25 614 t b b;
#X obj 24 596 bng 15 250 50 0 empty set2 set2 17 7 0 10 -262144 -1
-1;
#X text 887 614 L9;
#X text 9 574 set2;
#X text 87 774 L1;
#X text 184 776 L2;
#X text 290 774 L3;
#X text 387 776 L4;
#X text 494 775 L5;
#X text 591 777 L6;
#X text 697 775 L7;
#X text 794 777 L8;
#X obj 14 784 bng 15 250 50 0 empty empty empty 17 7 0 10 -262144 -1
-1;
#X obj 28 779 t b b;
#X obj 27 761 bng 15 250 50 0 empty set3 set3 17 7 0 10 -262144 -1
-1;
#X text 890 779 L9;
#X text 12 739 set3;
#X msg 265 633 \; f-3-1-1 0 \; f-3-2-1 253 \; f-3-3-1 0 \; f-3-4-1
0 \;;
#X text 86 945 L1;
#X text 183 947 L2;
#X text 289 945 L3;
#X text 386 947 L4;
#X text 493 946 L5;
#X text 590 948 L6;
#X text 696 946 L7;
#X text 793 948 L8;
#X obj 13 955 bng 15 250 50 0 empty empty empty 17 7 0 10 -262144 -1
-1;
#X obj 27 950 t b b;
#X obj 26 932 bng 15 250 50 0 empty set4 set4 17 7 0 10 -262144 -1
-1;
#X text 889 950 L9;
#X text 11 910 set4;
#X text 87 1098 L1;
#X text 184 1100 L2;
#X text 290 1098 L3;
#X text 387 1100 L4;
#X text 494 1099 L5;
#X text 591 1101 L6;
#X text 697 1099 L7;
#X text 794 1101 L8;
#X obj 14 1108 bng 15 250 50 0 empty empty empty 17 7 0 10 -262144
-1 -1;
#X obj 28 1103 t b b;
#X obj 27 1085 bng 15 250 50 0 empty set5 set5 17 7 0 10 -262144 -1
-1;
#X text 890 1103 L9;
#X msg 985 973 \; Transition_Interval 10000;
#X text 12 1063 set5;
#X text 93 1258 L1;
#X text 190 1260 L2;
#X text 296 1258 L3;
#X text 393 1260 L4;
#X text 500 1259 L5;
#X text 597 1261 L6;
#X text 703 1259 L7;
#X text 800 1261 L8;
#X obj 20 1268 bng 15 250 50 0 empty empty empty 17 7 0 10 -262144
-1 -1;
#X obj 34 1263 t b b;
#X obj 33 1245 bng 15 250 50 0 empty set6 set6 17 7 0 10 -262144 -1
-1;
#X text 896 1263 L9;
#X text 18 1223 set6;
#X text 95 1420 L1;
#X text 192 1422 L2;
#X text 298 1420 L3;
#X text 395 1422 L4;
#X text 502 1421 L5;
#X text 599 1423 L6;
#X text 705 1421 L7;
#X text 802 1423 L8;
#X obj 22 1430 bng 15 250 50 0 empty empty empty 17 7 0 10 -262144
-1 -1;
#X obj 36 1425 t b b;
#X obj 35 1407 bng 15 250 50 0 empty set7 set7 17 7 0 10 -262144 -1
-1;
#X text 898 1425 L9;
#X msg 881 1448 \; f-9-1-1 0 \; f-9-2-1 0 \; f-9-3-1 0 \; f-9-4-1 0
\;;
#X text 20 1385 set7;
#X text 19 1536 set8;
#X text 20 1690 set9;
#X text 98 1578 L1;
#X text 195 1580 L2;
#X text 301 1578 L3;
#X text 398 1580 L4;
#X text 505 1579 L5;
#X text 602 1581 L6;
#X text 708 1579 L7;
#X text 805 1581 L8;
#X obj 25 1588 bng 15 250 50 0 empty empty empty 17 7 0 10 -262144
-1 -1;
#X obj 39 1583 t b b;
#X obj 38 1565 bng 15 250 50 0 empty set8 set8 17 7 0 10 -262144 -1
-1;
#X text 901 1583 L9;
#X msg 884 1606 \; f-9-1-1 0 \; f-9-2-1 253 \; f-9-3-1 0 \; f-9-4-1
0 \;;
#X text 96 1735 L1;
#X text 193 1737 L2;
#X text 299 1735 L3;
#X text 396 1737 L4;
#X text 503 1736 L5;
#X text 600 1738 L6;
#X text 706 1736 L7;
#X text 803 1738 L8;
#X obj 23 1745 bng 15 250 50 0 empty empty empty 17 7 0 10 -262144
-1 -1;
#X obj 37 1740 t b b;
#X obj 36 1722 bng 15 250 50 0 empty set9 set9 17 7 0 10 -262144 -1
-1;
#X text 899 1740 L9;
#X text 25 1838 set10;
#X msg 481 1760 \; f-5-1-1 9 \; f-5-2-1 253 \; f-5-3-1 0 \; f-5-4-1
0 \;;
#X text 98 1876 L1;
#X text 195 1878 L2;
#X text 301 1876 L3;
#X text 398 1878 L4;
#X text 505 1877 L5;
#X text 602 1879 L6;
#X text 708 1877 L7;
#X text 805 1879 L8;
#X obj 25 1886 bng 15 250 50 0 empty empty empty 17 7 0 10 -262144
-1 -1;
#X obj 39 1881 t b b;
#X obj 38 1863 bng 15 250 50 0 empty set10 set10 17 7 0 10 -262144
-1 -1;
#X text 901 1881 L9;
#X msg 883 1904 \; f-9-1-1 0 \; f-9-2-1 253 \; f-9-3-1 0 \; f-9-4-1
0 \;;
#X msg 585 1902 \; f-6-1-1 253 \; f-6-2-1 0 \; f-6-3-1 0 \; f-6-4-1
0 \;;
#X text 102 2032 L1;
#X text 199 2034 L2;
#X text 305 2032 L3;
#X text 402 2034 L4;
#X text 509 2033 L5;
#X text 606 2035 L6;
#X text 712 2033 L7;
#X text 809 2035 L8;
#X obj 29 2042 bng 15 250 50 0 empty empty empty 17 7 0 10 -262144
-1 -1;
#X obj 43 2037 t b b;
#X obj 42 2019 bng 15 250 50 0 empty set11 set11 17 7 0 10 -262144
-1 -1;
#X text 905 2037 L9;
#X msg 80 2056 \; f-1-1-1 32 \; f-1-2-1 0 \; f-1-3-1 0 \; f-1-4-1 0
\;;
#X text 29 1994 set11;
#X msg 182 2057 \; f-2-1-1 84 \; f-2-2-1 0 \; f-2-3-1 0 \; f-2-4-1
0 \;;
#X msg 283 2056 \; f-3-1-1 0 \; f-3-2-1 253 \; f-3-3-1 0 \; f-3-4-1
0 \;;
#X msg 385 2057 \; f-4-1-1 253 \; f-4-2-1 106 \; f-4-3-1 0 \; f-4-4-1
0 \;;
#X msg 487 2057 \; f-5-1-1 2 \; f-5-2-1 140 \; f-5-3-1 34 \; f-5-4-1
0 \;;
#X msg 589 2058 \; f-6-1-1 20 \; f-6-2-1 0 \; f-6-3-1 66 \; f-6-4-1
0 \;;
#X msg 690 2056 \; f-7-1-1 46 \; f-7-2-1 58 \; f-7-3-1 244 \; f-7-4-1
26 \;;
#X msg 791 2058 \; f-8-1-1 253 \; f-8-2-1 0 \; f-8-3-1 0 \; f-8-4-1
102 \;;
#X msg 887 2060 \; f-9-1-1 0 \; f-9-2-1 68 \; f-9-3-1 0 \; f-9-4-1
0 \;;
#X text 105 2192 L1;
#X text 202 2194 L2;
#X text 308 2192 L3;
#X text 405 2194 L4;
#X text 512 2193 L5;
#X text 609 2195 L6;
#X text 715 2193 L7;
#X text 812 2195 L8;
#X obj 32 2202 bng 15 250 50 0 empty empty empty 17 7 0 10 -262144
-1 -1;
#X obj 46 2197 t b b;
#X obj 45 2179 bng 15 250 50 0 empty set12 set12 17 7 0 10 -262144
-1 -1;
#X text 908 2197 L9;
#X text 32 2154 set12;
#X msg 83 2216 \; f-1-1-1 112 \; f-1-2-1 48 \; f-1-3-1 0 \; f-1-4-1
0 \;;
#X msg 185 2217 \; f-2-1-1 0 \; f-2-2-1 170 \; f-2-3-1 253 \; f-2-4-1
0 \;;
#X msg 286 2216 \; f-3-1-1 0 \; f-3-2-1 100 \; f-3-3-1 0 \; f-3-4-1
0 \;;
#X msg 388 2217 \; f-4-1-1 0 \; f-4-2-1 28 \; f-4-3-1 0 \; f-4-4-1
0 \;;
#X msg 490 2217 \; f-5-1-1 2 \; f-5-2-1 134 \; f-5-3-1 34 \; f-5-4-1
0 \;;
#X msg 592 2218 \; f-6-1-1 20 \; f-6-2-1 220 \; f-6-3-1 100 \; f-6-4-1
0 \;;
#X msg 693 2216 \; f-7-1-1 0 \; f-7-2-1 32 \; f-7-3-1 14 \; f-7-4-1
0 \;;
#X msg 794 2218 \; f-8-1-1 30 \; f-8-2-1 110 \; f-8-3-1 178 \; f-8-4-1
90 \;;
#X msg 890 2220 \; f-9-1-1 0 \; f-9-2-1 104 \; f-9-3-1 0 \; f-9-4-1
0 \;;
#X text 109 2355 L1;
#X text 206 2357 L2;
#X text 312 2355 L3;
#X text 409 2357 L4;
#X text 516 2356 L5;
#X text 613 2358 L6;
#X text 719 2356 L7;
#X text 816 2358 L8;
#X obj 36 2365 bng 15 250 50 0 empty empty empty 17 7 0 10 -262144
-1 -1;
#X obj 50 2360 t b b;
#X obj 49 2342 bng 15 250 50 0 empty set13 set13 17 7 0 10 -262144
-1 -1;
#X text 912 2360 L9;
#X msg 87 2379 \; f-1-1-1 112 \; f-1-2-1 48 \; f-1-3-1 0 \; f-1-4-1
0 \;;
#X msg 290 2379 \; f-3-1-1 0 \; f-3-2-1 100 \; f-3-3-1 0 \; f-3-4-1
0 \;;
#X msg 894 2383 \; f-9-1-1 0 \; f-9-2-1 104 \; f-9-3-1 0 \; f-9-4-1
0 \;;
#X text 36 2317 set13;
#X msg 189 2380 \; f-2-1-1 234 \; f-2-2-1 20 \; f-2-3-1 250 \; f-2-4-1
0 \;;
#X msg 392 2380 \; f-4-1-1 26 \; f-4-2-1 18 \; f-4-3-1 0 \; f-4-4-1
0 \;;
#X msg 494 2380 \; f-5-1-1 116 \; f-5-2-1 46 \; f-5-3-1 0 \; f-5-4-1
0 \;;
#X msg 596 2381 \; f-6-1-1 66 \; f-6-2-1 0 \; f-6-3-1 78 \; f-6-4-1
4 \;;
#X msg 697 2379 \; f-7-1-1 30 \; f-7-2-1 10 \; f-7-3-1 0 \; f-7-4-1
0 \;;
#X msg 798 2381 \; f-8-1-1 158 \; f-8-2-1 74 \; f-8-3-1 50 \; f-8-4-1
90 \;;
#X text 110 2504 L1;
#X text 207 2506 L2;
#X text 313 2504 L3;
#X text 410 2506 L4;
#X text 517 2505 L5;
#X text 614 2507 L6;
#X text 720 2505 L7;
#X text 817 2507 L8;
#X msg 190 2529 \; f-2-1-1 0 \; f-2-2-1 0 \; f-2-3-1 0 \; f-2-4-1 0
\;;
#X msg 393 2529 \; f-4-1-1 0 \; f-4-2-1 0 \; f-4-3-1 0 \; f-4-4-1 0
\;;
#X msg 495 2529 \; f-5-1-1 0 \; f-5-2-1 0 \; f-5-3-1 0 \; f-5-4-1 0
\;;
#X msg 597 2530 \; f-6-1-1 0 \; f-6-2-1 0 \; f-6-3-1 0 \; f-6-4-1 0
\;;
#X msg 698 2529 \; f-7-1-1 0 \; f-7-2-1 0 \; f-7-3-1 0 \; f-7-4-1 0
\;;
#X msg 800 2530 \; f-8-1-1 0 \; f-8-2-1 0 \; f-8-3-1 0 \; f-8-4-1 0
\;;
#X obj 37 2514 bng 15 250 50 0 empty empty empty 17 7 0 10 -262144
-1 -1;
#X obj 51 2509 t b b;
#X obj 50 2491 bng 15 250 50 0 empty set14 set14 17 7 0 10 -262144
-1 -1;
#X text 913 2509 L9;
#X text 37 2475 set14;
#X msg 88 2528 \; f-1-1-1 253 \; f-1-2-1 0 \; f-1-3-1 0 \; f-1-4-1
0 \;;
#X text 112 2652 L1;
#X text 209 2654 L2;
#X text 315 2652 L3;
#X text 412 2654 L4;
#X text 519 2653 L5;
#X text 616 2655 L6;
#X text 722 2653 L7;
#X text 819 2655 L8;
#X msg 192 2677 \; f-2-1-1 0 \; f-2-2-1 0 \; f-2-3-1 0 \; f-2-4-1 0
\;;
#X msg 395 2677 \; f-4-1-1 0 \; f-4-2-1 0 \; f-4-3-1 0 \; f-4-4-1 0
\;;
#X msg 497 2677 \; f-5-1-1 0 \; f-5-2-1 0 \; f-5-3-1 0 \; f-5-4-1 0
\;;
#X msg 599 2678 \; f-6-1-1 0 \; f-6-2-1 0 \; f-6-3-1 0 \; f-6-4-1 0
\;;
#X msg 700 2677 \; f-7-1-1 0 \; f-7-2-1 0 \; f-7-3-1 0 \; f-7-4-1 0
\;;
#X msg 802 2678 \; f-8-1-1 0 \; f-8-2-1 0 \; f-8-3-1 0 \; f-8-4-1 0
\;;
#X obj 39 2662 bng 15 250 50 0 empty empty empty 17 7 0 10 -262144
-1 -1;
#X msg 1011 2680 \; Transition_Interval 3000;
#X obj 53 2657 t b b;
#X obj 52 2639 bng 15 250 50 0 empty set15 set15 17 7 0 10 -262144
-1 -1;
#X text 915 2657 L9;
#X msg 90 2676 \; f-1-1-1 253 \; f-1-2-1 0 \; f-1-3-1 0 \; f-1-4-1
0 \;;
#X text 39 2623 set15;
#X msg 291 2528 \; f-3-1-1 0 \; f-3-2-1 253 \; f-3-3-1 0 \; f-3-4-1
0 \;;
#X msg 896 2533 \; f-9-1-1 0 \; f-9-2-1 253 \; f-9-3-1 0 \; f-9-4-1
0 \;;
#X msg 293 2676 \; f-3-1-1 0 \; f-3-2-1 0 \; f-3-3-1 0 \; f-3-4-1 0
\;;
#X msg 898 2681 \; f-9-1-1 0 \; f-9-2-1 0 \; f-9-3-1 0 \; f-9-4-1 0
\;;
#X text 118 2804 L1;
#X text 215 2806 L2;
#X text 321 2804 L3;
#X text 418 2806 L4;
#X text 525 2805 L5;
#X text 622 2807 L6;
#X text 728 2805 L7;
#X text 825 2807 L8;
#X msg 198 2829 \; f-2-1-1 0 \; f-2-2-1 0 \; f-2-3-1 0 \; f-2-4-1 0
\;;
#X msg 401 2829 \; f-4-1-1 0 \; f-4-2-1 0 \; f-4-3-1 0 \; f-4-4-1 0
\;;
#X msg 503 2829 \; f-5-1-1 0 \; f-5-2-1 0 \; f-5-3-1 0 \; f-5-4-1 0
\;;
#X msg 605 2830 \; f-6-1-1 0 \; f-6-2-1 0 \; f-6-3-1 0 \; f-6-4-1 0
\;;
#X msg 706 2829 \; f-7-1-1 0 \; f-7-2-1 0 \; f-7-3-1 0 \; f-7-4-1 0
\;;
#X msg 808 2830 \; f-8-1-1 0 \; f-8-2-1 0 \; f-8-3-1 0 \; f-8-4-1 0
\;;
#X obj 45 2814 bng 15 250 50 0 empty empty empty 17 7 0 10 -262144
-1 -1;
#X msg 1017 2832 \; Transition_Interval 3000;
#X obj 59 2809 t b b;
#X obj 58 2791 bng 15 250 50 0 empty set16 set16 17 7 0 10 -262144
-1 -1;
#X text 921 2809 L9;
#X msg 904 2833 \; f-9-1-1 0 \; f-9-2-1 0 \; f-9-3-1 0 \; f-9-4-1 0
\;;
#X text 45 2775 set16;
#X msg 96 2828 \; f-1-1-1 0 \; f-1-2-1 0 \; f-1-3-1 0 \; f-1-4-1 0
\;;
#X msg 299 2828 \; f-3-1-1 0 \; f-3-2-1 253 \; f-3-3-1 0 \; f-3-4-1
0 \;;
#X text 115 2946 L1;
#X text 212 2948 L2;
#X text 318 2946 L3;
#X text 415 2948 L4;
#X text 522 2947 L5;
#X text 619 2949 L6;
#X text 725 2947 L7;
#X text 822 2949 L8;
#X msg 195 2971 \; f-2-1-1 0 \; f-2-2-1 0 \; f-2-3-1 0 \; f-2-4-1 0
\;;
#X msg 398 2971 \; f-4-1-1 0 \; f-4-2-1 0 \; f-4-3-1 0 \; f-4-4-1 0
\;;
#X msg 500 2971 \; f-5-1-1 0 \; f-5-2-1 0 \; f-5-3-1 0 \; f-5-4-1 0
\;;
#X msg 602 2972 \; f-6-1-1 0 \; f-6-2-1 0 \; f-6-3-1 0 \; f-6-4-1 0
\;;
#X msg 703 2971 \; f-7-1-1 0 \; f-7-2-1 0 \; f-7-3-1 0 \; f-7-4-1 0
\;;
#X msg 805 2972 \; f-8-1-1 0 \; f-8-2-1 0 \; f-8-3-1 0 \; f-8-4-1 0
\;;
#X obj 42 2956 bng 15 250 50 0 empty empty empty 17 7 0 10 -262144
-1 -1;
#X msg 1014 2974 \; Transition_Interval 3000;
#X obj 56 2951 t b b;
#X obj 55 2933 bng 15 250 50 0 empty set17 set17 17 7 0 10 -262144
-1 -1;
#X text 918 2951 L9;
#X msg 93 2970 \; f-1-1-1 0 \; f-1-2-1 0 \; f-1-3-1 0 \; f-1-4-1 0
\;;
#X msg 296 2970 \; f-3-1-1 0 \; f-3-2-1 0 \; f-3-3-1 0 \; f-3-4-1 0
\;;
#X msg 901 2975 \; f-9-1-1 0 \; f-9-2-1 253 \; f-9-3-1 0 \; f-9-4-1
0 \;;
#X text 116 3076 L1;
#X text 213 3078 L2;
#X text 319 3076 L3;
#X text 416 3078 L4;
#X text 523 3077 L5;
#X text 620 3079 L6;
#X text 726 3077 L7;
#X text 823 3079 L8;
#X msg 196 3101 \; f-2-1-1 0 \; f-2-2-1 0 \; f-2-3-1 0 \; f-2-4-1 0
\;;
#X msg 399 3101 \; f-4-1-1 0 \; f-4-2-1 0 \; f-4-3-1 0 \; f-4-4-1 0
\;;
#X msg 501 3101 \; f-5-1-1 0 \; f-5-2-1 0 \; f-5-3-1 0 \; f-5-4-1 0
\;;
#X msg 603 3102 \; f-6-1-1 0 \; f-6-2-1 0 \; f-6-3-1 0 \; f-6-4-1 0
\;;
#X msg 704 3101 \; f-7-1-1 0 \; f-7-2-1 0 \; f-7-3-1 0 \; f-7-4-1 0
\;;
#X msg 806 3102 \; f-8-1-1 0 \; f-8-2-1 0 \; f-8-3-1 0 \; f-8-4-1 0
\;;
#X obj 43 3086 bng 15 250 50 0 empty empty empty 17 7 0 10 -262144
-1 -1;
#X msg 1015 3104 \; Transition_Interval 3000;
#X obj 57 3081 t b b;
#X obj 56 3063 bng 15 250 50 0 empty set18 set18 17 7 0 10 -262144
-1 -1;
#X text 919 3081 L9;
#X msg 94 3100 \; f-1-1-1 0 \; f-1-2-1 0 \; f-1-3-1 0 \; f-1-4-1 0
\;;
#X msg 902 3105 \; f-9-1-1 0 \; f-9-2-1 253 \; f-9-3-1 0 \; f-9-4-1
0 \;;
#X text 42 2917 set17;
#X text 43 3047 set18;
#X msg 297 3100 \; f-3-1-1 0 \; f-3-2-1 253 \; f-3-3-1 0 \; f-3-4-1
0 \;;
#X text 119 3208 L1;
#X text 216 3210 L2;
#X text 322 3208 L3;
#X text 419 3210 L4;
#X text 526 3209 L5;
#X text 623 3211 L6;
#X text 729 3209 L7;
#X text 826 3211 L8;
#X obj 46 3218 bng 15 250 50 0 empty empty empty 17 7 0 10 -262144
-1 -1;
#X msg 1018 3236 \; Transition_Interval 3000;
#X obj 60 3213 t b b;
#X obj 59 3195 bng 15 250 50 0 empty set19 set19 17 7 0 10 -262144
-1 -1;
#X text 922 3213 L9;
#X text 46 3179 set19;
#X msg 97 3232 \; f-1-1-1 253 \; f-1-2-1 0 \; f-1-3-1 0 \; f-1-4-1
0 \;;
#X msg 198 3232 \; f-2-1-1 0 \; f-2-2-1 253 \; f-2-3-1 253 \; f-2-4-1
0 \;;
#X msg 300 3232 \; f-3-1-1 0 \; f-3-2-1 0 \; f-3-3-1 0 \; f-3-4-1 0
\;;
#X msg 402 3233 \; f-4-1-1 0 \; f-4-2-1 0 \; f-4-3-1 42 \; f-4-4-1
0 \;;
#X msg 504 3233 \; f-5-1-1 144 \; f-5-2-1 0 \; f-5-3-1 100 \; f-5-4-1
0 \;;
#X msg 606 3234 \; f-6-1-1 0 \; f-6-2-1 186 \; f-6-3-1 0 \; f-6-4-1
0 \;;
#X msg 707 3233 \; f-7-1-1 0 \; f-7-2-1 34 \; f-7-3-1 50 \; f-7-4-1
0 \;;
#X msg 809 3234 \; f-8-1-1 78 \; f-8-2-1 246 \; f-8-3-1 170 \; f-8-4-1
98 \;;
#X msg 905 3237 \; f-9-1-1 0 \; f-9-2-1 0 \; f-9-3-1 0 \; f-9-4-1 0
\;;
#X text 119 3344 L1;
#X text 216 3346 L2;
#X text 322 3344 L3;
#X text 419 3346 L4;
#X text 526 3345 L5;
#X text 623 3347 L6;
#X text 729 3345 L7;
#X text 826 3347 L8;
#X obj 46 3354 bng 15 250 50 0 empty empty empty 17 7 0 10 -262144
-1 -1;
#X msg 1018 3372 \; Transition_Interval 3000;
#X obj 60 3349 t b b;
#X obj 59 3331 bng 15 250 50 0 empty set20 set20 17 7 0 10 -262144
-1 -1;
#X text 922 3349 L9;
#X msg 198 3368 \; f-2-1-1 0 \; f-2-2-1 253 \; f-2-3-1 253 \; f-2-4-1
0 \;;
#X text 46 3316 set20;
#X msg 97 3368 \; f-1-1-1 50 \; f-1-2-1 0 \; f-1-3-1 0 \; f-1-4-1 0
\;;
#X msg 300 3368 \; f-3-1-1 0 \; f-3-2-1 253 \; f-3-3-1 0 \; f-3-4-1
0 \;;
#X msg 402 3369 \; f-4-1-1 2 \; f-4-2-1 28 \; f-4-3-1 0 \; f-4-4-1
0 \;;
#X msg 504 3369 \; f-5-1-1 253 \; f-5-2-1 0 \; f-5-3-1 0 \; f-5-4-1
0 \;;
#X msg 606 3370 \; f-6-1-1 0 \; f-6-2-1 253 \; f-6-3-1 0 \; f-6-4-1
0 \;;
#X msg 707 3369 \; f-7-1-1 20 \; f-7-2-1 34 \; f-7-3-1 0 \; f-7-4-1
0 \;;
#X msg 809 3370 \; f-8-1-1 253 \; f-8-2-1 204 \; f-8-3-1 200 \; f-8-4-1
92 \;;
#X msg 905 3373 \; f-9-1-1 0 \; f-9-2-1 253 \; f-9-3-1 0 \; f-9-4-1
0 \;;
#X text 48 3454 set21;
#X text 127 3493 L1;
#X text 224 3495 L2;
#X text 330 3493 L3;
#X text 427 3495 L4;
#X text 534 3494 L5;
#X text 631 3496 L6;
#X text 737 3494 L7;
#X text 834 3496 L8;
#X obj 54 3503 bng 15 250 50 0 empty empty empty 17 7 0 10 -262144
-1 -1;
#X obj 68 3498 t b b;
#X obj 67 3480 bng 15 250 50 0 empty set21 set21 17 7 0 10 -262144
-1 -1;
#X text 930 3498 L9;
#X msg 105 3517 \; f-1-1-1 112 \; f-1-2-1 48 \; f-1-3-1 0 \; f-1-4-1
0 \;;
#X msg 207 3518 \; f-2-1-1 234 \; f-2-2-1 20 \; f-2-3-1 250 \; f-2-4-1
0 \;;
#X msg 410 3518 \; f-4-1-1 26 \; f-4-2-1 18 \; f-4-3-1 0 \; f-4-4-1
0 \;;
#X msg 512 3518 \; f-5-1-1 116 \; f-5-2-1 46 \; f-5-3-1 0 \; f-5-4-1
0 \;;
#X msg 614 3519 \; f-6-1-1 66 \; f-6-2-1 0 \; f-6-3-1 78 \; f-6-4-1
4 \;;
#X msg 715 3517 \; f-7-1-1 30 \; f-7-2-1 10 \; f-7-3-1 0 \; f-7-4-1
0 \;;
#X msg 816 3519 \; f-8-1-1 158 \; f-8-2-1 74 \; f-8-3-1 50 \; f-8-4-1
90 \;;
#X msg 307 3517 \; f-3-1-1 0 \; f-3-2-1 0 \; f-3-3-1 0 \; f-3-4-1 0
\;;
#X msg 912 3521 \; f-9-1-1 0 \; f-9-2-1 0 \; f-9-3-1 0 \; f-9-4-1 0
\;;
#X text 128 3644 L1;
#X text 225 3646 L2;
#X text 331 3644 L3;
#X text 428 3646 L4;
#X text 535 3645 L5;
#X text 632 3647 L6;
#X text 738 3645 L7;
#X text 835 3647 L8;
#X msg 106 3668 \; f-1-1-1 0 \; f-1-2-1 0 \; f-1-3-1 0 \; f-1-4-1 0
\;;
#X obj 55 3654 bng 15 250 50 0 empty empty empty 17 7 0 10 -262144
-1 -1;
#X obj 69 3649 t b b;
#X obj 68 3631 bng 15 250 50 0 empty set22 set22 17 7 0 10 -262144
-1 -1;
#X text 931 3649 L9;
#X msg 914 3672 \; f-9-1-1 0 \; f-9-2-1 0 \; f-9-3-1 0 \; f-9-4-1 0
\;;
#X msg 208 3669 \; f-2-1-1 226 \; f-2-2-1 0 \; f-2-3-1 0 \; f-2-4-1
0 \;;
#X msg 411 3669 \; f-4-1-1 118 \; f-4-2-1 94 \; f-4-3-1 150 \; f-4-4-1
0 \;;
#X msg 513 3669 \; f-5-1-1 253 \; f-5-2-1 0 \; f-5-3-1 0 \; f-5-4-1
0 \;;
#X msg 615 3670 \; f-6-1-1 74 \; f-6-2-1 218 \; f-6-3-1 0 \; f-6-4-1
0 \;;
#X msg 716 3669 \; f-7-1-1 0 \; f-7-2-1 40 \; f-7-3-1 58 \; f-7-4-1
0 \;;
#X msg 818 3670 \; f-8-1-1 230 \; f-8-2-1 54 \; f-8-3-1 0 \; f-8-4-1
90 \;;
#X text 53 3609 set22;
#X msg 309 3668 \; f-3-1-1 0 \; f-3-2-1 0 \; f-3-3-1 0 \; f-3-4-1 0
\;;
#X text 131 3801 L1;
#X text 228 3803 L2;
#X text 334 3801 L3;
#X text 431 3803 L4;
#X text 538 3802 L5;
#X text 635 3804 L6;
#X text 741 3802 L7;
#X text 838 3804 L8;
#X obj 58 3811 bng 15 250 50 0 empty empty empty 17 7 0 10 -262144
-1 -1;
#X obj 72 3806 t b b;
#X obj 71 3788 bng 15 250 50 0 empty set23 set23 17 7 0 10 -262144
-1 -1;
#X text 934 3806 L9;
#X msg 211 3826 \; f-2-1-1 0 \; f-2-2-1 253 \; f-2-3-1 253 \; f-2-4-1
253 \;;
#X msg 821 3827 \; f-8-1-1 216 \; f-8-2-1 110 \; f-8-3-1 192 \; f-8-4-1
74 \;;
#X msg 109 3825 \; f-1-1-1 32 \; f-1-2-1 0 \; f-1-3-1 0 \; f-1-4-1
0 \;;
#X msg 414 3826 \; f-4-1-1 24 \; f-4-2-1 76 \; f-4-3-1 0 \; f-4-4-1
0 \;;
#X msg 516 3826 \; f-5-1-1 2 \; f-5-2-1 0 \; f-5-3-1 253 \; f-5-4-1
0 \;;
#X msg 618 3827 \; f-6-1-1 253 \; f-6-2-1 0 \; f-6-3-1 0 \; f-6-4-1
0 \;;
#X msg 719 3825 \; f-7-1-1 34 \; f-7-2-1 0 \; f-7-3-1 0 \; f-7-4-1
0 \;;
#X text 58 3763 set23;
#X msg 312 3825 \; f-3-1-1 0 \; f-3-2-1 0 \; f-3-3-1 0 \; f-3-4-1 0
\;;
#X msg 916 3829 \; f-9-1-1 0 \; f-9-2-1 0 \; f-9-3-1 0 \; f-9-4-1 0
\;;
#X msg 986 802 \; Transition_Interval 5000;
#X msg 983 637 \; Transition_Interval 3000;
#X msg 986 1126 \; Transition_Interval 5000;
#X msg 992 1286 \; Transition_Interval 5000;
#X msg 994 1448 \; Transition_Interval 5000;
#X msg 997 1606 \; Transition_Interval 5000;
#X msg 995 1763 \; Transition_Interval 5000;
#X msg 997 1904 \; Transition_Interval 5000;
#X msg 1001 2060 \; Transition_Interval 5000;
#X msg 1004 2220 \; Transition_Interval 5000;
#X msg 1008 2383 \; Transition_Interval 5000;
#X msg 1009 2532 \; Transition_Interval 5000;
#X msg 1026 3521 \; Transition_Interval 5000;
#X msg 1027 3672 \; Transition_Interval 5000;
#X msg 1030 3829 \; Transition_Interval 5000;
#X msg 979 462 \; Transition_Interval 5000;
#X msg 167 799 \; f-2-1-1 253 \; f-2-2-1 0 \; f-2-3-1 0 \; f-2-4-1
0 \;;
#X msg 268 798 \; f-3-1-1 78 \; f-3-2-1 0 \; f-3-3-1 0 \; f-3-4-1 0
\;;
#X msg 370 799 \; f-4-1-1 102 \; f-4-2-1 253 \; f-4-3-1 48 \; f-4-4-1
40 \;;
#X msg 472 799 \; f-5-1-1 253 \; f-5-2-1 20 \; f-5-3-1 70 \; f-5-4-1
62 \;;
#X msg 574 800 \; f-6-1-1 0 \; f-6-2-1 26 \; f-6-3-1 253 \; f-6-4-1
150 \;;
#X msg 675 799 \; f-7-1-1 253 \; f-7-2-1 253 \; f-7-3-1 0 \; f-7-4-1
76 \;;
#X msg 777 800 \; f-8-1-1 122 \; f-8-2-1 106 \; f-8-3-1 144 \; f-8-4-1
122 \;;
#X msg 873 802 \; f-9-1-1 184 \; f-9-2-1 88 \; f-9-3-1 172 \; f-9-4-1
0 \;;
#X msg 64 969 \; f-1-1-1 0 \; f-1-2-1 178 \; f-1-3-1 0 \; f-1-4-1 0
\;;
#X msg 166 970 \; f-2-1-1 0 \; f-2-2-1 253 \; f-2-3-1 0 \; f-2-4-1
0 \;;
#X msg 267 969 \; f-3-1-1 253 \; f-3-2-1 0 \; f-3-3-1 0 \; f-3-4-1
0 \;;
#X msg 369 970 \; f-4-1-1 253 \; f-4-2-1 98 \; f-4-3-1 54 \; f-4-4-1
40 \;;
#X msg 471 970 \; f-5-1-1 253 \; f-5-2-1 242 \; f-5-3-1 20 \; f-5-4-1
62 \;;
#X msg 573 971 \; f-6-1-1 246 \; f-6-2-1 10 \; f-6-3-1 253 \; f-6-4-1
24 \;;
#X msg 674 970 \; f-7-1-1 48 \; f-7-2-1 253 \; f-7-3-1 0 \; f-7-4-1
76 \;;
#X msg 776 971 \; f-8-1-1 216 \; f-8-2-1 118 \; f-8-3-1 234 \; f-8-4-1
122 \;;
#X msg 872 973 \; f-9-1-1 0 \; f-9-2-1 253 \; f-9-3-1 172 \; f-9-4-1
0 \;;
#X msg 58 458 \; f-1-1-1 0 \; f-1-2-1 253 \; f-1-3-1 0 \; f-1-4-1 0
\;;
#X msg 261 458 \; f-3-1-1 0 \; f-3-2-1 253 \; f-3-3-1 0 \; f-3-4-1
0 \;;
#X msg 866 462 \; f-9-1-1 0 \; f-9-2-1 253 \; f-9-3-1 0 \; f-9-4-1
0 \;;
#X msg 62 633 \; f-1-1-1 0 \; f-1-2-1 253 \; f-1-3-1 0 \; f-1-4-1 0
\;;
#X msg 164 634 \; f-2-1-1 0 \; f-2-2-1 0 \; f-2-3-1 253 \; f-2-4-1
0 \;;
#X msg 367 634 \; f-4-1-1 102 \; f-4-2-1 144 \; f-4-3-1 253 \; f-4-4-1
40 \;;
#X msg 469 634 \; f-5-1-1 16 \; f-5-2-1 253 \; f-5-3-1 2 \; f-5-4-1
62 \;;
#X msg 572 635 \; f-6-1-1 253 \; f-6-2-1 64 \; f-6-3-1 0 \; f-6-4-1
150 \;;
#X msg 672 634 \; f-7-1-1 253 \; f-7-2-1 110 \; f-7-3-1 253 \; f-7-4-1
76 \;;
#X msg 774 635 \; f-8-1-1 253 \; f-8-2-1 253 \; f-8-3-1 26 \; f-8-4-1
94 \;;
#X msg 870 637 \; f-9-1-1 0 \; f-9-2-1 253 \; f-9-3-1 0 \; f-9-4-1
0 \;;
#X msg 65 798 \; f-1-1-1 0 \; f-1-2-1 253 \; f-1-3-1 0 \; f-1-4-1 0
\;;
#X msg 160 459 \; f-2-1-1 253 \; f-2-2-1 96 \; f-2-3-1 0 \; f-2-4-1
0 \;;
#X msg 363 459 \; f-4-1-1 253 \; f-4-2-1 144 \; f-4-3-1 0 \; f-4-4-1
0 \;;
#X msg 465 459 \; f-5-1-1 253 \; f-5-2-1 0 \; f-5-3-1 198 \; f-5-4-1
0 \;;
#X msg 567 460 \; f-6-1-1 0 \; f-6-2-1 253 \; f-6-3-1 0 \; f-6-4-1
6 \;;
#X msg 770 460 \; f-8-1-1 0 \; f-8-2-1 253 \; f-8-3-1 26 \; f-8-4-1
94 \;;
#X msg 668 459 \; f-7-1-1 70 \; f-7-2-1 253 \; f-7-3-1 0 \; f-7-4-1
0 \;;
#X msg 65 1122 \; f-1-1-1 0 \; f-1-2-1 253 \; f-1-3-1 0 \; f-1-4-1
0 \;;
#X msg 167 1123 \; f-2-1-1 253 \; f-2-2-1 0 \; f-2-3-1 0 \; f-2-4-1
0 \;;
#X msg 268 1122 \; f-3-1-1 0 \; f-3-2-1 253 \; f-3-3-1 0 \; f-3-4-1
0 \;;
#X msg 370 1123 \; f-4-1-1 168 \; f-4-2-1 0 \; f-4-3-1 253 \; f-4-4-1
0 \;;
#X msg 472 1123 \; f-5-1-1 253 \; f-5-2-1 0 \; f-5-3-1 20 \; f-5-4-1
62 \;;
#X msg 574 1124 \; f-6-1-1 0 \; f-6-2-1 253 \; f-6-3-1 0 \; f-6-4-1
0 \;;
#X msg 675 1123 \; f-7-1-1 253 \; f-7-2-1 0 \; f-7-3-1 82 \; f-7-4-1
0 \;;
#X msg 777 1124 \; f-8-1-1 0 \; f-8-2-1 54 \; f-8-3-1 253 \; f-8-4-1
122 \;;
#X msg 873 1127 \; f-9-1-1 0 \; f-9-2-1 253 \; f-9-3-1 172 \; f-9-4-1
0 \;;
#X msg 71 1282 \; f-1-1-1 0 \; f-1-2-1 253 \; f-1-3-1 0 \; f-1-4-1
0 \;;
#X msg 173 1283 \; f-2-1-1 253 \; f-2-2-1 253 \; f-2-3-1 0 \; f-2-4-1
0 \;;
#X msg 274 1282 \; f-3-1-1 0 \; f-3-2-1 253 \; f-3-3-1 0 \; f-3-4-1
0 \;;
#X msg 376 1283 \; f-4-1-1 253 \; f-4-2-1 253 \; f-4-3-1 0 \; f-4-4-1
0 \;;
#X msg 478 1283 \; f-5-1-1 0 \; f-5-2-1 253 \; f-5-3-1 0 \; f-5-4-1
0 \;;
#X msg 580 1284 \; f-6-1-1 253 \; f-6-2-1 0 \; f-6-3-1 0 \; f-6-4-1
0 \;;
#X msg 681 1283 \; f-7-1-1 82 \; f-7-2-1 90 \; f-7-3-1 253 \; f-7-4-1
0 \;;
#X msg 783 1284 \; f-8-1-1 253 \; f-8-2-1 54 \; f-8-3-1 0 \; f-8-4-1
122 \;;
#X msg 879 1286 \; f-9-1-1 0 \; f-9-2-1 253 \; f-9-3-1 0 \; f-9-4-1
0 \;;
#X msg 73 1444 \; f-1-1-1 0 \; f-1-2-1 253 \; f-1-3-1 0 \; f-1-4-1
0 \;;
#X msg 175 1445 \; f-2-1-1 253 \; f-2-2-1 0 \; f-2-3-1 0 \; f-2-4-1
0 \;;
#X msg 276 1444 \; f-3-1-1 0 \; f-3-2-1 253 \; f-3-3-1 0 \; f-3-4-1
0 \;;
#X msg 377 1445 \; f-4-1-1 0 \; f-4-2-1 253 \; f-4-3-1 0 \; f-4-4-1
0 \;;
#X msg 480 1445 \; f-5-1-1 0 \; f-5-2-1 0 \; f-5-3-1 253 \; f-5-4-1
132 \;;
#X msg 582 1446 \; f-6-1-1 0 \; f-6-2-1 253 \; f-6-3-1 0 \; f-6-4-1
0 \;;
#X msg 683 1445 \; f-7-1-1 32 \; f-7-2-1 190 \; f-7-3-1 38 \; f-7-4-1
0 \;;
#X msg 785 1446 \; f-8-1-1 253 \; f-8-2-1 0 \; f-8-3-1 0 \; f-8-4-1
160 \;;
#X msg 76 1602 \; f-1-1-1 0 \; f-1-2-1 0 \; f-1-3-1 0 \; f-1-4-1 0
\;;
#X msg 178 1603 \; f-2-1-1 253 \; f-2-2-1 0 \; f-2-3-1 253 \; f-2-4-1
0 \;;
#X msg 279 1602 \; f-3-1-1 0 \; f-3-2-1 253 \; f-3-3-1 0 \; f-3-4-1
0 \;;
#X msg 381 1603 \; f-4-1-1 0 \; f-4-2-1 253 \; f-4-3-1 253 \; f-4-4-1
0 \;;
#X msg 483 1603 \; f-5-1-1 253 \; f-5-2-1 0 \; f-5-3-1 253 \; f-5-4-1
132 \;;
#X msg 585 1604 \; f-6-1-1 253 \; f-6-2-1 0 \; f-6-3-1 0 \; f-6-4-1
0 \;;
#X msg 686 1603 \; f-7-1-1 253 \; f-7-2-1 190 \; f-7-3-1 0 \; f-7-4-1
0 \;;
#X msg 788 1604 \; f-8-1-1 0 \; f-8-2-1 253 \; f-8-3-1 0 \; f-8-4-1
122 \;;
#X msg 74 1759 \; f-1-1-1 0 \; f-1-2-1 253 \; f-1-3-1 0 \; f-1-4-1
0 \;;
#X msg 176 1760 \; f-2-1-1 0 \; f-2-2-1 253 \; f-2-3-1 0 \; f-2-4-1
0 \;;
#X msg 277 1759 \; f-3-1-1 0 \; f-3-2-1 0 \; f-3-3-1 0 \; f-3-4-1 0
\;;
#X msg 379 1760 \; f-4-1-1 0 \; f-4-2-1 104 \; f-4-3-1 253 \; f-4-4-1
0 \;;
#X msg 684 1760 \; f-7-1-1 0 \; f-7-2-1 214 \; f-7-3-1 253 \; f-7-4-1
0 \;;
#X msg 786 1761 \; f-8-1-1 0 \; f-8-2-1 253 \; f-8-3-1 0 \; f-8-4-1
150 \;;
#X msg 583 1761 \; f-6-1-1 0 \; f-6-2-1 253 \; f-6-3-1 0 \; f-6-4-1
0 \;;
#X msg 882 1763 \; f-9-1-1 0 \; f-9-2-1 0 \; f-9-3-1 0 \; f-9-4-1 0
\;;
#X msg 76 1900 \; f-1-1-1 253 \; f-1-2-1 0 \; f-1-3-1 0 \; f-1-4-1
0 \;;
#X msg 178 1901 \; f-2-1-1 0 \; f-2-2-1 253 \; f-2-3-1 253 \; f-2-4-1
0 \;;
#X msg 279 1900 \; f-3-1-1 253 \; f-3-2-1 0 \; f-3-3-1 0 \; f-3-4-1
0 \;;
#X msg 381 1901 \; f-4-1-1 24 \; f-4-2-1 178 \; f-4-3-1 0 \; f-4-4-1
0 \;;
#X msg 483 1901 \; f-5-1-1 0 \; f-5-2-1 0 \; f-5-3-1 253 \; f-5-4-1
0 \;;
#X msg 686 1900 \; f-7-1-1 164 \; f-7-2-1 0 \; f-7-3-1 0 \; f-7-4-1
0 \;;
#X msg 788 1902 \; f-8-1-1 253 \; f-8-2-1 110 \; f-8-3-1 253 \; f-8-4-1
110 \;;
#X connect 17 0 18 0;
#X connect 17 0 19 0;
#X connect 36 0 28 0;
#X connect 36 0 29 0;
#X connect 36 0 30 0;
#X connect 36 0 31 0;
#X connect 36 0 32 0;
#X connect 36 0 33 0;
#X connect 36 0 34 0;
#X connect 36 0 35 0;
#X connect 37 0 0 0;
#X connect 37 0 9 0;
#X connect 37 0 10 0;
#X connect 37 0 11 0;
#X connect 37 0 12 0;
#X connect 37 0 13 0;
#X connect 37 0 14 0;
#X connect 37 0 15 0;
#X connect 37 0 58 0;
#X connect 40 0 36 0;
#X connect 40 0 57 0;
#X connect 40 1 39 0;
#X connect 41 0 40 0;
#X connect 42 0 18 0;
#X connect 42 0 19 0;
#X connect 52 0 509 0;
#X connect 52 0 521 0;
#X connect 52 0 510 0;
#X connect 52 0 522 0;
#X connect 52 0 523 0;
#X connect 52 0 524 0;
#X connect 52 0 526 0;
#X connect 52 0 525 0;
#X connect 53 0 52 0;
#X connect 53 0 511 0;
#X connect 53 1 491 0;
#X connect 54 0 53 0;
#X connect 68 0 512 0;
#X connect 68 0 513 0;
#X connect 68 0 86 0;
#X connect 68 0 514 0;
#X connect 68 0 515 0;
#X connect 68 0 516 0;
#X connect 68 0 517 0;
#X connect 68 0 518 0;
#X connect 69 0 68 0;
#X connect 69 0 519 0;
#X connect 69 1 477 0;
#X connect 70 0 69 0;
#X connect 81 0 520 0;
#X connect 81 0 492 0;
#X connect 81 0 493 0;
#X connect 81 0 494 0;
#X connect 81 0 495 0;
#X connect 81 0 496 0;
#X connect 81 0 497 0;
#X connect 81 0 498 0;
#X connect 82 0 81 0;
#X connect 82 0 499 0;
#X connect 82 1 476 0;
#X connect 83 0 82 0;
#X connect 95 0 500 0;
#X connect 95 0 501 0;
#X connect 95 0 502 0;
#X connect 95 0 503 0;
#X connect 95 0 504 0;
#X connect 95 0 505 0;
#X connect 95 0 506 0;
#X connect 95 0 507 0;
#X connect 96 0 95 0;
#X connect 96 0 508 0;
#X connect 96 1 112 0;
#X connect 97 0 96 0;
#X connect 108 0 527 0;
#X connect 108 0 528 0;
#X connect 108 0 529 0;
#X connect 108 0 530 0;
#X connect 108 0 531 0;
#X connect 108 0 532 0;
#X connect 108 0 533 0;
#X connect 108 0 534 0;
#X connect 109 0 108 0;
#X connect 109 0 535 0;
#X connect 109 1 478 0;
#X connect 110 0 109 0;
#X connect 122 0 536 0;
#X connect 122 0 537 0;
#X connect 122 0 538 0;
#X connect 122 0 539 0;
#X connect 122 0 540 0;
#X connect 122 0 541 0;
#X connect 122 0 542 0;
#X connect 122 0 543 0;
#X connect 123 0 122 0;
#X connect 123 0 544 0;
#X connect 123 1 479 0;
#X connect 124 0 123 0;
#X connect 135 0 545 0;
#X connect 135 0 546 0;
#X connect 135 0 547 0;
#X connect 135 0 548 0;
#X connect 135 0 549 0;
#X connect 135 0 550 0;
#X connect 135 0 551 0;
#X connect 135 0 552 0;
#X connect 136 0 135 0;
#X connect 136 0 139 0;
#X connect 136 1 480 0;
#X connect 137 0 136 0;
#X connect 151 0 553 0;
#X connect 151 0 554 0;
#X connect 151 0 555 0;
#X connect 151 0 556 0;
#X connect 151 0 557 0;
#X connect 151 0 558 0;
#X connect 151 0 559 0;
#X connect 151 0 560 0;
#X connect 152 0 151 0;
#X connect 152 0 155 0;
#X connect 152 1 481 0;
#X connect 153 0 152 0;
#X connect 164 0 561 0;
#X connect 164 0 562 0;
#X connect 164 0 563 0;
#X connect 164 0 564 0;
#X connect 164 0 169 0;
#X connect 164 0 567 0;
#X connect 164 0 565 0;
#X connect 164 0 566 0;
#X connect 165 0 164 0;
#X connect 165 0 568 0;
#X connect 165 1 482 0;
#X connect 166 0 165 0;
#X connect 178 0 569 0;
#X connect 178 0 570 0;
#X connect 178 0 571 0;
#X connect 178 0 572 0;
#X connect 178 0 573 0;
#X connect 178 0 183 0;
#X connect 178 0 574 0;
#X connect 178 0 575 0;
#X connect 179 0 178 0;
#X connect 179 0 182 0;
#X connect 179 1 483 0;
#X connect 180 0 179 0;
#X connect 192 0 196 0;
#X connect 192 0 198 0;
#X connect 192 0 199 0;
#X connect 192 0 200 0;
#X connect 192 0 201 0;
#X connect 192 0 202 0;
#X connect 192 0 203 0;
#X connect 192 0 204 0;
#X connect 193 0 192 0;
#X connect 193 0 205 0;
#X connect 193 1 484 0;
#X connect 194 0 193 0;
#X connect 214 0 219 0;
#X connect 214 0 220 0;
#X connect 214 0 221 0;
#X connect 214 0 222 0;
#X connect 214 0 223 0;
#X connect 214 0 224 0;
#X connect 214 0 225 0;
#X connect 214 0 226 0;
#X connect 215 0 214 0;
#X connect 215 0 227 0;
#X connect 215 1 485 0;
#X connect 216 0 215 0;
#X connect 236 0 240 0;
#X connect 236 0 244 0;
#X connect 236 0 241 0;
#X connect 236 0 245 0;
#X connect 236 0 246 0;
#X connect 236 0 247 0;
#X connect 236 0 248 0;
#X connect 236 0 249 0;
#X connect 237 0 236 0;
#X connect 237 0 242 0;
#X connect 237 1 486 0;
#X connect 238 0 237 0;
#X connect 264 0 269 0;
#X connect 264 0 258 0;
#X connect 264 0 291 0;
#X connect 264 0 259 0;
#X connect 264 0 260 0;
#X connect 264 0 261 0;
#X connect 264 0 262 0;
#X connect 264 0 263 0;
#X connect 265 0 264 0;
#X connect 265 0 292 0;
#X connect 265 1 487 0;
#X connect 266 0 265 0;
#X connect 284 0 289 0;
#X connect 284 0 278 0;
#X connect 284 0 293 0;
#X connect 284 0 279 0;
#X connect 284 0 280 0;
#X connect 284 0 281 0;
#X connect 284 0 282 0;
#X connect 284 0 283 0;
#X connect 286 0 284 0;
#X connect 286 0 294 0;
#X connect 286 1 285 0;
#X connect 287 0 286 0;
#X connect 309 0 316 0;
#X connect 309 0 303 0;
#X connect 309 0 317 0;
#X connect 309 0 304 0;
#X connect 309 0 305 0;
#X connect 309 0 306 0;
#X connect 309 0 307 0;
#X connect 309 0 308 0;
#X connect 311 0 309 0;
#X connect 311 0 314 0;
#X connect 311 1 310 0;
#X connect 312 0 311 0;
#X connect 332 0 337 0;
#X connect 332 0 326 0;
#X connect 332 0 338 0;
#X connect 332 0 327 0;
#X connect 332 0 328 0;
#X connect 332 0 329 0;
#X connect 332 0 330 0;
#X connect 332 0 331 0;
#X connect 334 0 332 0;
#X connect 334 0 339 0;
#X connect 334 1 333 0;
#X connect 335 0 334 0;
#X connect 354 0 359 0;
#X connect 354 0 348 0;
#X connect 354 0 363 0;
#X connect 354 0 349 0;
#X connect 354 0 350 0;
#X connect 354 0 351 0;
#X connect 354 0 352 0;
#X connect 354 0 353 0;
#X connect 356 0 354 0;
#X connect 356 0 360 0;
#X connect 356 1 355 0;
#X connect 357 0 356 0;
#X connect 372 0 378 0;
#X connect 372 0 379 0;
#X connect 372 0 380 0;
#X connect 372 0 381 0;
#X connect 372 0 382 0;
#X connect 372 0 383 0;
#X connect 372 0 384 0;
#X connect 372 0 385 0;
#X connect 374 0 372 0;
#X connect 374 0 386 0;
#X connect 374 1 373 0;
#X connect 375 0 374 0;
#X connect 395 0 402 0;
#X connect 395 0 400 0;
#X connect 395 0 403 0;
#X connect 395 0 404 0;
#X connect 395 0 405 0;
#X connect 395 0 406 0;
#X connect 395 0 407 0;
#X connect 395 0 408 0;
#X connect 397 0 395 0;
#X connect 397 0 409 0;
#X connect 397 1 396 0;
#X connect 398 0 397 0;
#X connect 419 0 423 0;
#X connect 419 0 424 0;
#X connect 419 0 430 0;
#X connect 419 0 425 0;
#X connect 419 0 426 0;
#X connect 419 0 427 0;
#X connect 419 0 428 0;
#X connect 419 0 429 0;
#X connect 420 0 419 0;
#X connect 420 0 431 0;
#X connect 420 1 488 0;
#X connect 421 0 420 0;
#X connect 441 0 440 0;
#X connect 441 0 446 0;
#X connect 441 0 453 0;
#X connect 441 0 447 0;
#X connect 441 0 448 0;
#X connect 441 0 449 0;
#X connect 441 0 450 0;
#X connect 441 0 451 0;
#X connect 442 0 441 0;
#X connect 442 0 445 0;
#X connect 442 1 489 0;
#X connect 443 0 442 0;
#X connect 462 0 468 0;
#X connect 462 0 466 0;
#X connect 462 0 474 0;
#X connect 462 0 469 0;
#X connect 462 0 470 0;
#X connect 462 0 471 0;
#X connect 462 0 472 0;
#X connect 462 0 467 0;
#X connect 463 0 462 0;
#X connect 463 0 475 0;
#X connect 463 1 490 0;
#X connect 464 0 463 0;
#X restore 17 241 pd Control_Messages;
#X text 47 105 2 start clock;
#X text 168 67 1 Open Comport;
#N canvas 630 395 626 534 DMX_data_serial 1;
#X obj 39 306 list prepend 255;
#X obj 39 331 list append 254;
#X obj 38 293 bng 8 250 50 0 empty empty empty 17 7 0 10 -262144 -1
-1;
#X text 121 267 bus 1;
#X text 7 11 control bus;
#X text 30 33 1;
#X msg 228 342 devices;
#X obj 39 432 prepend set;
#X msg 39 456 255 1 4 0 133 0 0 254;
#X msg 348 339 close;
#X obj 78 33 RGBW 1 4 1 1;
#X obj 22 268 r RGBW-OUT-1;
#X obj 78 59 RGBW 5 4 2 1;
#X obj 78 85 RGBW 9 4 3 1;
#X obj 79 111 RGBW 13 4 4 1;
#X obj 78 139 RGBW 17 4 5 1;
#X obj 80 165 RGBW 21 4 6 1;
#X obj 80 190 RGBW 25 4 7 1;
#X obj 80 215 RGBW 29 4 8 1;
#X text 38 479 255 \, DMX_address \, n_channel \, control_1 \, control_2
\, control_3 \, control_4 \, 254, f 80;
#X obj 74 384 print;
#X obj 81 239 RGBW 33 4 9 1;
#X text 37 239 9;
#X msg 291 341 open 0;
#X obj 228 370 comport 0 57600;
#X connect 0 0 1 0;
#X connect 1 0 7 0;
#X connect 1 0 24 0;
#X connect 6 0 24 0;
#X connect 7 0 8 0;
#X connect 9 0 24 0;
#X connect 11 0 2 0;
#X connect 11 0 0 0;
#X connect 23 0 24 0;
#X restore 19 65 pd DMX_data_serial;
#X obj 23 153 s l_clock;
#X connect 0 0 9 0;
#X connect 1 0 0 0;
#X restore 951 148 pd DMX;
#X obj 951 178 Ladderbot03;
#X text 235 177 Start 02:35;
#X text 413 172 Start 03:50;
#X text 571 180 Start 07:50;
#X obj 886 218 nbx 4 14 -1e+37 1e+37 0 1 empty global_sec sec 0 -8
0 10 -262144 -1 -1 202 256;
#X obj 1156 172 bng 15 250 50 0 set1 empty set1 17 7 0 10 -262144 -1
-1;
#X obj 890 341 bng 15 250 50 0 set2 empty set2 17 7 0 10 -262144 -1
-1;
#X obj 947 341 bng 15 250 50 0 set3 empty set3 17 7 0 10 -262144 -1
-1;
#X obj 990 339 bng 15 250 50 0 set4 empty set4 17 7 0 10 -262144 -1
-1;
#X obj 1033 341 bng 15 250 50 0 set5 empty set5 17 7 0 10 -262144 -1
-1;
#X obj 1076 339 bng 15 250 50 0 set6 empty set6 17 7 0 10 -262144 -1
-1;
#X obj 1120 341 bng 15 250 50 0 set7 empty set7 17 7 0 10 -262144 -1
-1;
#X obj 1163 339 bng 15 250 50 0 set8 empty set8 17 7 0 10 -262144 -1
-1;
#X obj 840 366 bng 15 250 50 0 set9 empty set9 17 7 0 10 -262144 -1
-1;
#X obj 891 364 bng 15 250 50 0 set10 empty set10 17 7 0 10 -262144
-1 -1;
#X obj 948 364 bng 15 250 50 0 set11 empty set11 17 7 0 10 -262144
-1 -1;
#X obj 996 364 bng 15 250 50 0 set12 empty set12 17 7 0 10 -262144
-1 -1;
#X obj 1041 365 bng 15 250 50 0 set13 empty set13 17 7 0 10 -262144
-1 -1;
#X obj 1087 363 bng 15 250 50 0 set14 empty set14 17 7 0 10 -262144
-1 -1;
#X obj 1136 363 bng 15 250 50 0 set15 empty set15 17 7 0 10 -262144
-1 -1;
#X obj 1186 362 bng 15 250 50 0 set16 empty set16 17 7 0 10 -262144
-1 -1;
#X obj 841 390 bng 15 250 50 0 set17 empty set17 17 7 0 10 -262144
-1 -1;
#X obj 892 388 bng 15 250 50 0 set18 empty set18 17 7 0 10 -262144
-1 -1;
#X obj 949 388 bng 15 250 50 0 set19 empty set19 17 7 0 10 -262144
-1 -1;
#X obj 997 388 bng 15 250 50 0 set20 empty set20 17 7 0 10 -262144
-1 -1;
#X obj 1042 389 bng 15 250 50 0 set21 empty set21 17 7 0 10 -262144
-1 -1;
#X obj 1088 387 bng 15 250 50 0 set22 empty set22 17 7 0 10 -262144
-1 -1;
#X obj 1137 387 bng 15 250 50 0 set23 empty set23 17 7 0 10 -262144
-1 -1;
#X obj 1187 386 bng 15 250 50 0 set0 empty set0 17 7 0 10 -262144 -1
-1;
#X text 1071 182 5;
#X text 1016 150 0;
#X obj 52 339 s GF1_1_control_data;
#X obj 52 192 GF2 3 3 240;
#X obj 67 489 s GF1_7_control_data;
#X obj 67 520 s GF1_11_control_data;
#X obj 1294 313 bng 15 250 50 0 set9 empty set9 17 7 0 10 -262144 -1
-1;
#X obj 875 258 sel 10 60 90 110 150 170 185 200 220 240 260 290 310
400 412 420 450 470 475 480 490 495 500 510 520 540 545 548 580 590
;
#X connect 2 0 1 0;
#X connect 3 0 1 1;
#X connect 9 0 8 0;
#X connect 10 0 8 1;
#X connect 12 0 13 0;
#X connect 16 0 14 0;
#X connect 19 0 12 2;
#X connect 20 0 16 2;
#X connect 22 0 32 2;
#X connect 32 0 43 0;
#X connect 33 0 27 0;
#X connect 33 0 26 0;
#X connect 33 0 28 0;
#X connect 33 0 42 0;
#X connect 35 0 38 2;
#X connect 38 0 34 0;
#X connect 38 0 36 0;
#X connect 38 0 78 0;
#X connect 38 0 79 0;
#X connect 39 0 77 2;
#X connect 40 0 33 2;
#X connect 49 0 81 0;
#X connect 77 0 24 0;
#X connect 77 0 23 0;
#X connect 77 0 25 0;
#X connect 77 0 41 0;
#X connect 77 0 76 0;
#X connect 81 0 51 0;
#X connect 81 1 52 0;
#X connect 81 2 53 0;
#X connect 81 3 54 0;
#X connect 81 4 55 0;
#X connect 81 5 56 0;
#X connect 81 6 57 0;
#X connect 81 7 58 0;
#X connect 81 8 59 0;
#X connect 81 9 60 0;
#X connect 81 10 61 0;
#X connect 81 11 62 0;
#X connect 81 12 58 0;
#X connect 81 13 59 0;
#X connect 81 14 73 0;
#X connect 81 15 63 0;
#X connect 81 16 64 0;
#X connect 81 17 65 0;
#X connect 81 18 66 0;
#X connect 81 19 67 0;
#X connect 81 20 64 0;
#X connect 81 21 68 0;
#X connect 81 22 69 0;
#X connect 81 23 70 0;
#X connect 81 24 71 0;
#X connect 81 25 72 0;
#X connect 81 26 71 0;
#X connect 81 27 72 0;
#X connect 81 28 73 0;
#X connect 81 29 9 0;
#X connect 81 29 80 0;
