#N canvas 451 68 989 755 10;
#X obj 460 197 vsl 15 128 0 1 0 0 empty empty empty 0 -9 0 10 -262144
-1 -1 0 1;
#X obj 399 202 vsl 15 128 0 1 0 0 empty empty empty 0 -9 0 10 -262144
-1 -1 0 1;
#X obj 385 547 vsl 15 128 0 1 0 0 empty empty empty 0 -9 0 10 -262144
-1 -1 11430 1;
#X obj 198 29 inlet;
#X obj 432 28 inlet;
#X floatatom 411 689 5 0 0 0 - - -;
#X obj 386 711 outlet;
#X obj 370 203 bng 15 250 50 0 empty empty empty 17 7 0 10 -262144
-1 -1;
#X msg 505 193 0.5;
#X obj 447 389 *;
#X floatatom 453 421 5 0 0 0 - - -;
#X obj 464 340 * 0.8;
#X floatatom 489 373 5 0 0 0 - - -;
#X obj 489 451 -;
#X floatatom 488 487 5 0 0 0 - - -;
#X obj 509 412 / 2;
#X msg 506 551 0.6;
#X obj 440 520 + 0.5;
#X floatatom 906 100 5 0 0 2 robot_id - -;
#X obj 906 122 < 7;
#X obj 905 146 tgl 15 0 empty empty empty 17 7 0 10 -262144 -1 -1 0
1;
#X obj 292 159 spigot;
#X floatatom 813 95 5 0 0 2 robot_id - -;
#X obj 812 141 tgl 15 0 empty empty empty 17 7 0 10 -262144 -1 -1 1
1;
#X obj 199 162 spigot;
#X obj 813 117 >= 7;
#X obj 862 44 inlet;
#X obj 465 144 tgl 15 0 empty empty empty 17 7 0 10 -262144 -1 -1 0
1;
#X obj 432 164 spigot;
#X obj 612 549 vsl 15 128 0 1 0 0 empty empty empty 0 -9 0 10 -262144
-1 -1 1270 1;
#X floatatom 638 691 5 0 0 0 - - -;
#X obj 613 713 outlet;
#X text 476 27 s9;
#X text 238 30 s8;
#X obj 644 140 tgl 15 0 empty empty empty 17 7 0 10 -262144 -1 -1 1
1;
#X obj 611 170 spigot;
#X obj 611 192 - 1;
#X obj 611 217 * -1;
#X obj 199 241 - 1;
#X obj 199 266 * -1;
#X obj 649 46 inlet;
#X text 647 30 s10;
#X obj 787 547 vsl 15 128 0 1 0 0 empty empty empty 0 -9 0 10 -262144
-1 -1 0 1;
#X floatatom 813 689 5 0 0 0 - - -;
#X obj 788 711 outlet;
#X obj 762 263 spigot;
#X obj 763 289 - 1;
#X obj 763 314 * -1;
#X obj 807 262 spigot;
#X obj 325 140 tgl 15 0 empty empty empty 17 7 0 10 -262144 -1 -1 0
1;
#X obj 232 145 tgl 15 0 empty empty empty 17 7 0 10 -262144 -1 -1 0
1;
#X connect 0 0 7 0;
#X connect 0 0 11 0;
#X connect 1 0 9 0;
#X connect 2 0 5 0;
#X connect 2 0 6 0;
#X connect 3 0 21 0;
#X connect 3 0 24 0;
#X connect 4 0 28 0;
#X connect 4 0 35 0;
#X connect 7 0 1 0;
#X connect 8 0 0 0;
#X connect 9 0 10 0;
#X connect 10 0 13 0;
#X connect 11 0 9 1;
#X connect 11 0 12 0;
#X connect 12 0 15 0;
#X connect 13 0 14 0;
#X connect 14 0 17 0;
#X connect 15 0 13 1;
#X connect 16 0 17 1;
#X connect 17 0 2 0;
#X connect 18 0 19 0;
#X connect 19 0 20 0;
#X connect 20 0 48 1;
#X connect 20 0 49 0;
#X connect 20 0 27 0;
#X connect 21 0 1 0;
#X connect 22 0 25 0;
#X connect 23 0 45 1;
#X connect 23 0 50 0;
#X connect 23 0 34 0;
#X connect 24 0 38 0;
#X connect 25 0 23 0;
#X connect 26 0 18 0;
#X connect 26 0 22 0;
#X connect 27 0 28 1;
#X connect 28 0 0 0;
#X connect 28 0 29 0;
#X connect 29 0 30 0;
#X connect 29 0 31 0;
#X connect 34 0 35 1;
#X connect 35 0 36 0;
#X connect 36 0 37 0;
#X connect 37 0 29 0;
#X connect 38 0 39 0;
#X connect 39 0 2 0;
#X connect 40 0 45 0;
#X connect 42 0 43 0;
#X connect 42 0 44 0;
#X connect 45 0 46 0;
#X connect 46 0 47 0;
#X connect 47 0 42 0;
#X connect 48 0 42 0;
#X connect 49 0 21 1;
#X connect 50 0 24 1;
