#N canvas 980 495 450 300 12;
#X floatatom 26 19 5 0 0 1 sec. global_sec - 0;
#X obj 64 273 outlet;
#X obj 26 42 sel \$1;
#X msg 108 12 11;
#X obj 26 68 bangbang 5, f 27;
#X obj 72 107 delay 500;
#X obj 117 138 delay 1000;
#X obj 164 174 delay 1500;
#X obj 208 204 delay 2000;
#X connect 0 0 2 0;
#X connect 2 0 4 0;
#X connect 3 0 2 0;
#X connect 4 0 1 0;
#X connect 4 1 5 0;
#X connect 4 2 6 0;
#X connect 4 3 7 0;
#X connect 4 4 8 0;
#X connect 5 0 1 0;
#X connect 6 0 1 0;
#X connect 7 0 1 0;
#X connect 8 0 1 0;
