#N canvas 572 119 480 490 12;
#N canvas 216 399 1665 498 MIDI 0;
#X obj 84 2 ctlin;
#X obj 46 84 pack f f f;
#X text 146 108 channel;
#X obj 2 351 s c1_s1_1;
#X floatatom 2 328 5 0 0 0 - - - 0;
#X floatatom 39 375 5 0 0 0 - - - 0;
#X floatatom 77 328 5 0 0 0 - - - 0;
#X floatatom 115 375 5 0 0 0 - - - 0;
#X obj 46 133 s ch1;
#X obj 43 32 t b f;
#X obj 16 55 delay 1;
#X obj 2 260 r ch1;
#X obj 2 282 route 13 29 49 77, f 22;
#X obj 2 306 sc1;
#X obj 39 306 sc1;
#X obj 77 305 sc1;
#X obj 115 306 sc1;
#X floatatom 188 328 5 0 0 0 - - - 0;
#X floatatom 225 375 5 0 0 0 - - - 0;
#X floatatom 263 328 5 0 0 0 - - - 0;
#X floatatom 301 375 5 0 0 0 - - - 0;
#X obj 188 260 r ch1;
#X obj 188 306 sc1;
#X obj 225 306 sc1;
#X obj 263 305 sc1;
#X obj 301 306 sc1;
#X obj 188 282 route 14 30 50 78, f 22;
#X obj 39 398 s c1_s1_2;
#X obj 77 351 s c1_s1_3;
#X obj 115 398 s c1_s1_4;
#X obj 188 351 s c1_s2_1;
#X obj 225 398 s c1_s2_2;
#X obj 263 351 s c1_s2_3;
#X obj 301 398 s c1_s2_4;
#X floatatom 372 329 5 0 0 0 - - - 0;
#X floatatom 409 376 5 0 0 0 - - - 0;
#X floatatom 447 329 5 0 0 0 - - - 0;
#X floatatom 485 376 5 0 0 0 - - - 0;
#X obj 372 261 r ch1;
#X obj 372 307 sc1;
#X obj 409 307 sc1;
#X obj 447 306 sc1;
#X obj 485 307 sc1;
#X floatatom 558 329 5 0 0 0 - - - 0;
#X floatatom 595 376 5 0 0 0 - - - 0;
#X floatatom 633 329 5 0 0 0 - - - 0;
#X floatatom 671 376 5 0 0 0 - - - 0;
#X obj 558 261 r ch1;
#X obj 558 307 sc1;
#X obj 595 307 sc1;
#X obj 633 306 sc1;
#X obj 671 307 sc1;
#X obj 372 283 route 15 31 51 79, f 22;
#X obj 558 283 route 16 32 52 80, f 22;
#X obj 372 352 s c1_s3_1;
#X obj 447 352 s c1_s3_3;
#X obj 409 399 s c1_s3_2;
#X obj 485 399 s c1_s3_4;
#X obj 558 352 s c1_s4_1;
#X obj 595 399 s c1_s4_2;
#X obj 633 352 s c1_s4_3;
#X obj 671 399 s c1_s4_4;
#X floatatom 740 328 5 0 0 0 - - - 0;
#X floatatom 777 375 5 0 0 0 - - - 0;
#X floatatom 815 328 5 0 0 0 - - - 0;
#X floatatom 853 375 5 0 0 0 - - - 0;
#X obj 740 260 r ch1;
#X obj 740 306 sc1;
#X obj 777 306 sc1;
#X obj 815 305 sc1;
#X obj 853 306 sc1;
#X floatatom 926 328 5 0 0 0 - - - 0;
#X floatatom 963 375 5 0 0 0 - - - 0;
#X floatatom 1001 328 5 0 0 0 - - - 0;
#X floatatom 1039 375 5 0 0 0 - - - 0;
#X obj 926 260 r ch1;
#X obj 926 306 sc1;
#X obj 963 306 sc1;
#X obj 1001 305 sc1;
#X obj 1039 306 sc1;
#X floatatom 1110 329 5 0 0 0 - - - 0;
#X floatatom 1147 376 5 0 0 0 - - - 0;
#X floatatom 1185 329 5 0 0 0 - - - 0;
#X floatatom 1223 376 5 0 0 0 - - - 0;
#X obj 1110 261 r ch1;
#X obj 1110 307 sc1;
#X obj 1147 307 sc1;
#X obj 1185 306 sc1;
#X obj 1223 307 sc1;
#X floatatom 1296 329 5 0 0 0 - - - 0;
#X floatatom 1333 376 5 0 0 0 - - - 0;
#X floatatom 1371 329 5 0 0 0 - - - 0;
#X floatatom 1409 376 5 0 0 0 - - - 0;
#X obj 1296 261 r ch1;
#X obj 1296 307 sc1;
#X obj 1333 307 sc1;
#X obj 1371 306 sc1;
#X obj 1409 307 sc1;
#X obj 740 282 route 17 33 53 81, f 22;
#X obj 926 282 route 18 34 54 82, f 22;
#X obj 1110 283 route 19 35 55 83, f 22;
#X obj 740 351 s c1_s5_1;
#X obj 815 351 s c1_s5_3;
#X obj 777 398 s c1_s5_2;
#X obj 853 397 s c1_s5_4;
#X obj 926 351 s c1_s6_1;
#X obj 1001 351 s c1_s6_3;
#X obj 963 398 s c1_s6_2;
#X obj 1039 398 s c1_s6_4;
#X obj 1110 352 s c1_s7_1;
#X obj 1185 352 s c1_s7_3;
#X obj 1147 399 s c1_s7_2;
#X obj 1223 399 s c1_s7_4;
#X obj 1296 352 s c1_s8_1;
#X obj 1371 352 s c1_s8_3;
#X obj 1333 399 s c1_s8_2;
#X obj 1409 399 s c1_s8_4;
#X obj 1296 283 route 20 36 56 84, f 22;
#X obj 46 108 route 1 2 3 9;
#X obj 112 132 s ch9;
#X obj 501 35 r ch9;
#X obj 501 83 change;
#X obj 553 83 change;
#X obj 501 108 sel 127;
#X obj 501 59 route 106 107 105, f 22;
#X obj 501 131 bng 15 250 50 0 ts1 empty ts1 17 7 0 10 #fcfcfc #000000 #000000;
#X obj 557 108 sel 127;
#X obj 557 131 bng 15 250 50 0 ts2 empty ts2 17 7 0 10 #fcfcfc #000000 #000000;
#X obj 613 82 change;
#X obj 613 108 sel 127;
#X obj 613 131 bng 15 250 50 0 device empty device 17 7 0 10 #fcfcfc #000000 #000000;
#X obj 697 81 change;
#X obj 749 81 change;
#X obj 697 106 sel 127;
#X obj 697 129 bng 15 250 50 0 ts1_ch1 empty ts1_ch1 17 7 0 10 #fcfcfc #000000 #000000;
#X obj 753 106 sel 127;
#X obj 753 129 bng 15 250 50 0 ts2_ch1 empty ts2_ch1 17 7 0 10 #fcfcfc #000000 #000000;
#X obj 697 33 r ch1;
#X obj 257 100 pack f f f;
#X text 357 124 channel;
#X obj 254 48 t b f;
#X obj 227 71 delay 1;
#X obj 257 124 route 1 2 3 9;
#X obj 340 16 notein;
#X obj 257 149 s ch1_note;
#X obj 375 152 s ch9_note;
#X obj 955 74 change;
#X obj 1052 76 change;
#X obj 955 99 sel 127;
#X obj 955 122 bng 15 250 50 0 ts1_ch1_note empty ts1_ch1_note 17 7 0 10 #fcfcfc #000000 #000000;
#X obj 1056 101 sel 127;
#X obj 1056 124 bng 15 250 50 0 ts2_ch1_note empty ts2_ch1_note 17 7 0 10 #fcfcfc #000000 #000000;
#X obj 955 26 r ch1_note;
#X obj 955 50 route 107 108 105, f 22;
#X obj 1155 76 change;
#X obj 1155 102 sel 127;
#X obj 1155 125 bng 15 250 50 0 device_ch1 empty device_ch1 17 7 0 10 #fcfcfc #000000 #000000;
#X obj 1226 65 route 107 108 105, f 22;
#X obj 1327 91 change;
#X obj 1327 117 sel 127;
#X obj 1327 140 bng 15 250 50 0 device_ch9_note empty device_ch1 17 7 0 10 #fcfcfc #000000 #000000;
#X obj 1226 41 r ch9_note;
#X obj 697 57 route 106 107 104 105, f 22;
#X obj 816 85 change;
#X obj 868 85 change;
#X obj 816 110 sel 127;
#X obj 816 133 bng 15 250 50 0 ts3_ch1 empty ts3_ch1 17 7 0 10 #fcfcfc #000000 #000000;
#X obj 872 110 sel 127;
#X obj 872 133 bng 15 250 50 0 ts4_ch1 empty ts4_ch1 17 7 0 10 #fcfcfc #000000 #000000;
#X connect 0 0 1 2;
#X connect 0 1 1 1;
#X connect 0 2 9 0;
#X connect 1 0 118 0;
#X connect 4 0 3 0;
#X connect 5 0 27 0;
#X connect 6 0 28 0;
#X connect 7 0 29 0;
#X connect 9 0 10 0;
#X connect 9 1 1 0;
#X connect 10 0 1 0;
#X connect 11 0 12 0;
#X connect 12 0 13 0;
#X connect 12 1 14 0;
#X connect 12 2 15 0;
#X connect 12 3 16 0;
#X connect 13 0 4 0;
#X connect 14 0 5 0;
#X connect 15 0 6 0;
#X connect 16 0 7 0;
#X connect 17 0 30 0;
#X connect 18 0 31 0;
#X connect 19 0 32 0;
#X connect 20 0 33 0;
#X connect 21 0 26 0;
#X connect 22 0 17 0;
#X connect 23 0 18 0;
#X connect 24 0 19 0;
#X connect 25 0 20 0;
#X connect 26 0 22 0;
#X connect 26 1 23 0;
#X connect 26 2 24 0;
#X connect 26 3 25 0;
#X connect 34 0 54 0;
#X connect 35 0 56 0;
#X connect 36 0 55 0;
#X connect 37 0 57 0;
#X connect 38 0 52 0;
#X connect 39 0 34 0;
#X connect 40 0 35 0;
#X connect 41 0 36 0;
#X connect 42 0 37 0;
#X connect 43 0 58 0;
#X connect 44 0 59 0;
#X connect 45 0 60 0;
#X connect 46 0 61 0;
#X connect 47 0 53 0;
#X connect 48 0 43 0;
#X connect 49 0 44 0;
#X connect 50 0 45 0;
#X connect 51 0 46 0;
#X connect 52 0 39 0;
#X connect 52 1 40 0;
#X connect 52 2 41 0;
#X connect 52 3 42 0;
#X connect 53 0 48 0;
#X connect 53 1 49 0;
#X connect 53 2 50 0;
#X connect 53 3 51 0;
#X connect 62 0 101 0;
#X connect 63 0 103 0;
#X connect 64 0 102 0;
#X connect 65 0 104 0;
#X connect 66 0 98 0;
#X connect 67 0 62 0;
#X connect 68 0 63 0;
#X connect 69 0 64 0;
#X connect 70 0 65 0;
#X connect 71 0 105 0;
#X connect 72 0 107 0;
#X connect 73 0 106 0;
#X connect 74 0 108 0;
#X connect 75 0 99 0;
#X connect 76 0 71 0;
#X connect 77 0 72 0;
#X connect 78 0 73 0;
#X connect 79 0 74 0;
#X connect 80 0 109 0;
#X connect 81 0 111 0;
#X connect 82 0 110 0;
#X connect 83 0 112 0;
#X connect 84 0 100 0;
#X connect 85 0 80 0;
#X connect 86 0 81 0;
#X connect 87 0 82 0;
#X connect 88 0 83 0;
#X connect 89 0 113 0;
#X connect 90 0 115 0;
#X connect 91 0 114 0;
#X connect 92 0 116 0;
#X connect 93 0 117 0;
#X connect 94 0 89 0;
#X connect 95 0 90 0;
#X connect 96 0 91 0;
#X connect 97 0 92 0;
#X connect 98 0 67 0;
#X connect 98 1 68 0;
#X connect 98 2 69 0;
#X connect 98 3 70 0;
#X connect 99 0 76 0;
#X connect 99 1 77 0;
#X connect 99 2 78 0;
#X connect 99 3 79 0;
#X connect 100 0 85 0;
#X connect 100 1 86 0;
#X connect 100 2 87 0;
#X connect 100 3 88 0;
#X connect 117 0 94 0;
#X connect 117 1 95 0;
#X connect 117 2 96 0;
#X connect 117 3 97 0;
#X connect 118 0 8 0;
#X connect 118 3 119 0;
#X connect 120 0 124 0;
#X connect 121 0 123 0;
#X connect 122 0 126 0;
#X connect 123 0 125 0;
#X connect 124 0 121 0;
#X connect 124 1 122 0;
#X connect 124 2 128 0;
#X connect 126 0 127 0;
#X connect 128 0 129 0;
#X connect 129 0 130 0;
#X connect 131 0 133 0;
#X connect 132 0 135 0;
#X connect 133 0 134 0;
#X connect 135 0 136 0;
#X connect 137 0 162 0;
#X connect 138 0 142 0;
#X connect 140 0 141 0;
#X connect 140 1 138 0;
#X connect 141 0 138 0;
#X connect 142 0 144 0;
#X connect 142 3 145 0;
#X connect 143 0 138 1;
#X connect 143 1 138 2;
#X connect 143 2 140 0;
#X connect 146 0 148 0;
#X connect 147 0 150 0;
#X connect 148 0 149 0;
#X connect 150 0 151 0;
#X connect 152 0 153 0;
#X connect 153 0 146 0;
#X connect 153 1 147 0;
#X connect 153 2 154 0;
#X connect 154 0 155 0;
#X connect 155 0 156 0;
#X connect 157 2 158 0;
#X connect 158 0 159 0;
#X connect 159 0 160 0;
#X connect 161 0 157 0;
#X connect 162 0 131 0;
#X connect 162 1 132 0;
#X connect 162 2 163 0;
#X connect 162 3 164 0;
#X connect 163 0 165 0;
#X connect 164 0 167 0;
#X connect 165 0 166 0;
#X connect 167 0 168 0;
#X restore 14 27 pd MIDI;
#X text 13 292 Robot;
#X text 15 155 Light;
#X text 11 5 Control;
#N canvas 801 231 894 841 AUDIO 1;
#X obj 26 39 loadbang;
#X msg 26 86 \; pd dsp 1;
#X obj 90 499 dac~;
#X msg 86 272 start;
#X msg 55 302 stop;
#X obj 94 234 t b b;
#X obj 93 216 bng 15 250 50 0 empty empty empty 17 7 0 10 #fcfcfc #000000 #000000;
#X obj 105 328 readsf~ 2;
#X obj 55 284 bng 10 250 50 0 empty Stop_Playing_Global STOP 0 -5 0 10 #0400fc #000000 #000000;
#X obj 32 190 t b b;
#X obj 30 61 bng 15 250 50 0 empty 0sec 0sec 17 7 0 10 #fcfcfc #000000 #000000;
#X obj 90 453 *~;
#X obj 108 431 vline~;
#X obj 151 452 *~;
#X obj 169 430 vline~;
#X msg 240 384 0 10000;
#X obj 180 357 loadbang;
#X obj 32 163 bang_at 11;
#X msg 181 384 5 5000;
#X msg 145 273 open ./Sound/bawiseom.wav;
#X obj 460 452 dac~;
#X msg 456 225 start;
#X msg 425 255 stop;
#X obj 464 187 t b b;
#X obj 463 169 bng 15 250 50 0 empty empty empty 17 7 0 10 #fcfcfc #000000 #000000;
#X obj 475 281 readsf~ 2;
#X obj 425 237 bng 10 250 50 0 empty Stop_Playing_Global STOP 0 -5 0 10 #0400fc #000000 #000000;
#X obj 402 143 t b b;
#X obj 460 406 *~;
#X obj 478 384 vline~;
#X obj 521 405 *~;
#X obj 539 383 vline~;
#X msg 610 337 0 10000;
#X obj 550 310 loadbang;
#X obj 405 125 bng 15 250 50 0 empty empty empty 17 7 0 10 #fcfcfc #000000 #000000;
#X msg 515 226 open ./Sound/BUK.WAV;
#X msg 552 337 10 7000;
#X obj 684 224 delay 160000;
#X obj 405 101 bang_at 818;
#X connect 0 0 1 0;
#X connect 3 0 7 0;
#X connect 4 0 7 0;
#X connect 5 0 3 0;
#X connect 5 1 19 0;
#X connect 6 0 5 0;
#X connect 7 0 11 0;
#X connect 7 1 13 0;
#X connect 8 0 4 0;
#X connect 9 0 6 0;
#X connect 9 1 8 0;
#X connect 10 0 1 0;
#X connect 11 0 2 0;
#X connect 12 0 11 1;
#X connect 13 0 2 1;
#X connect 14 0 13 1;
#X connect 15 0 14 0;
#X connect 15 0 12 0;
#X connect 16 0 18 0;
#X connect 17 0 9 0;
#X connect 18 0 12 0;
#X connect 18 0 14 0;
#X connect 19 0 7 0;
#X connect 21 0 25 0;
#X connect 22 0 25 0;
#X connect 23 0 21 0;
#X connect 23 1 35 0;
#X connect 24 0 23 0;
#X connect 25 0 28 0;
#X connect 25 1 30 0;
#X connect 26 0 22 0;
#X connect 27 0 24 0;
#X connect 27 1 26 0;
#X connect 28 0 20 0;
#X connect 29 0 28 1;
#X connect 30 0 20 1;
#X connect 31 0 30 1;
#X connect 32 0 31 0;
#X connect 32 0 29 0;
#X connect 33 0 36 0;
#X connect 34 0 27 0;
#X connect 35 0 25 0;
#X connect 36 0 29 0;
#X connect 36 0 31 0;
#X connect 37 0 32 0;
#X connect 38 0 34 0;
#X restore 10 100 pd AUDIO;
#X text 10 76 Audio;
#N canvas 11 709 1792 326 Global_Transport 1;
#X floatatom 125 157 5 0 0 1 sec. - global_sec 0;
#N canvas 704 265 772 590 time 0;
#X floatatom 367 378 5 0 0 0 - - - 0;
#X msg 398 248 0;
#X text 406 377 sec;
#X obj 365 491 outlet;
#X obj 275 271 / 60;
#X obj 275 298 int;
#X floatatom 104 176 5 0 100 1 min - - 0;
#X floatatom 165 176 5 0 59 1 sec - - 0;
#X obj 325 407 % 60;
#X obj 367 279 f;
#X obj 396 278 + 1;
#X obj 519 216 == 0;
#X obj 480 258 spigot;
#X obj 519 238 tgl 15 0 empty empty empty 17 7 0 10 #fcfcfc #000000 #000000 0 1;
#X obj 190 376 * 60;
#X obj 230 417 +;
#X obj 165 382 bng 15 250 50 0 empty empty empty 17 7 0 10 #fcfcfc #000000 #000000;
#X floatatom 230 443 5 0 0 0 - - - 0;
#X obj 111 136 tgl 30 0 Global_Play empty PLAY 0 -5 0 15 #00fc04 #000000 #000000 0 1;
#X obj 164 136 bng 30 250 50 0 Stop_Playing_Global empty STOP 0 -5 0 15 #0400fc #000000 #000000;
#X msg 102 67 0;
#X obj 351 29 metro 10;
#X obj 351 55 f;
#X obj 380 54 + 1;
#X floatatom 351 81 5 0 0 1 Global_Step - - 0;
#X obj 351 111 / 100;
#X obj 351 136 int;
#X obj 351 161 change;
#X obj 351 197 bng 15 250 50 0 empty empty empty 17 7 0 10 #fcfcfc #000000 #000000;
#X msg 455 34 0;
#X obj 557 -22 == 0;
#X obj 518 20 spigot;
#X obj 557 0 tgl 15 0 empty empty empty 17 7 0 10 #fcfcfc #000000 #000000 0 1;
#X obj 503 -7 * 100;
#X obj 485 489 outlet;
#X obj 150 6 r position_sense;
#X obj 150 29 t b b;
#X msg 150 52 1;
#X obj 197 31 r EndOfExhibition;
#X obj 197 60 delay 1000;
#X obj 59 7 bang_at 1070;
#X connect 0 0 4 0;
#X connect 0 0 8 0;
#X connect 0 0 3 0;
#X connect 1 0 9 1;
#X connect 4 0 5 0;
#X connect 5 0 6 0;
#X connect 6 0 14 0;
#X connect 7 0 15 1;
#X connect 7 0 16 0;
#X connect 8 0 7 0;
#X connect 9 0 10 0;
#X connect 9 0 0 0;
#X connect 10 0 9 1;
#X connect 11 0 13 0;
#X connect 12 0 9 1;
#X connect 13 0 12 1;
#X connect 14 0 15 0;
#X connect 15 0 17 0;
#X connect 16 0 15 0;
#X connect 17 0 12 0;
#X connect 17 0 33 0;
#X connect 18 0 11 0;
#X connect 18 0 21 0;
#X connect 18 0 30 0;
#X connect 19 0 1 0;
#X connect 19 0 20 0;
#X connect 19 0 29 0;
#X connect 20 0 18 0;
#X connect 21 0 22 0;
#X connect 22 0 23 0;
#X connect 22 0 24 0;
#X connect 23 0 22 1;
#X connect 24 0 25 0;
#X connect 24 0 34 0;
#X connect 25 0 26 0;
#X connect 26 0 27 0;
#X connect 27 0 28 0;
#X connect 28 0 9 0;
#X connect 29 0 22 1;
#X connect 30 0 32 0;
#X connect 31 0 22 1;
#X connect 32 0 31 1;
#X connect 33 0 31 0;
#X connect 35 0 36 0;
#X connect 36 0 37 0;
#X connect 36 1 19 0;
#X connect 37 0 18 0;
#X connect 38 0 39 0;
#X connect 39 0 19 0;
#X connect 40 0 36 0;
#X coords 0 -1 1 1 125 100 1 100 100;
#X restore 125 52 pd time;
#X obj 222 97 tgl 20 0 Global_Control empty G 20 7 0 15 #fcfcfc #000000 #000000 0 1;
#X obj 372 53 hsl 1070 10 0 1070 0 0 empty empty empty -2 -8 0 10 #fcfcfc #000000 #000000 0 1;
#X floatatom 369 29 5 0 0 1 sec. global_sec - 0;
#X text 298 71 Robot;
#X text 296 134 Windbell;
#X text 292 208 Light;
#X text 768 194 P6;
#X text 766 90 Nael;
#X text 778 66 Ochetuji;
#X text 852 193 P7;
#X text 1007 191 P8;
#X text 1010 74 Ladders move;
#X text 1067 190 P12;
#X text 1217 187 P10;
#X text 627 91 L4 pass----;
#X text 1334 68 GoToSenSorPosition;
#X text 383 67 Bawiseom--------------------------------------------;
#X text 1039 126 Ring--------;
#X text 793 128 Ring----------;
#X text 555 130 Ring-------;
#X text 1216 125 Ring--------;
#X text 526 91 Ladder2-------;
#X text 1174 72;
#X text 1064 92 HowToStandUP-----;
#X text 1188 71 GF3;
#X connect 1 0 0 0;
#X connect 4 0 3 0;
#X restore 80 27 pd Global_Transport;
#N canvas 1052 118 410 488 Xbee_commands 1;
#N canvas 311 369 1361 713 DancingLadders 0;
#X msg 375 57 \; xbee_command 255 1 0;
#X msg 372 102 \; xbee_command 255 1 1;
#X msg 371 141 \; xbee_command 255 1 2;
#X msg 372 180 \; xbee_command 255 1 3;
#X msg 371 218 \; xbee_command 255 1 4;
#X msg 375 267 \; xbee_command 255 1 5;
#X msg 372 312 \; xbee_command 255 1 6;
#X msg 371 351 \; xbee_command 255 1 7;
#X msg 372 390 \; xbee_command 255 1 8;
#X msg 371 428 \; xbee_command 255 1 9;
#X text 253 45 Home;
#X text 217 87 Play normal speed;
#X text 302 120 Stop;
#X text 222 178 Play slow speed;
#X text 220 229 Normal profile;
#X text 217 274 low profile;
#X text 217 318 high profile;
#X text 160 340 stop at sensor position;
#X text 235 390 collapse;
#X text 232 431 stand up;
#X text 402 15 Ladder1;
#X text 574 11 Ladder2;
#X msg 553 58 \; xbee_command 255 2 0;
#X msg 552 102 \; xbee_command 255 2 1;
#X msg 551 141 \; xbee_command 255 2 2;
#X msg 552 180 \; xbee_command 255 2 3;
#X msg 551 218 \; xbee_command 255 2 4;
#X msg 554 267 \; xbee_command 255 2 5;
#X msg 552 312 \; xbee_command 255 2 6;
#X msg 552 351 \; xbee_command 255 2 7;
#X msg 552 390 \; xbee_command 255 2 8;
#X msg 551 428 \; xbee_command 255 2 9;
#X text 763 15 Ladder3;
#X text 935 11 Ladder4;
#X msg 736 57 \; xbee_command 255 3 0;
#X msg 733 102 \; xbee_command 255 3 1;
#X msg 732 141 \; xbee_command 255 3 2;
#X msg 733 180 \; xbee_command 255 3 3;
#X msg 732 218 \; xbee_command 255 3 4;
#X msg 736 267 \; xbee_command 255 3 5;
#X msg 733 312 \; xbee_command 255 3 6;
#X msg 732 351 \; xbee_command 255 3 7;
#X msg 732 390 \; xbee_command 255 3 8;
#X msg 732 428 \; xbee_command 255 3 9;
#X msg 916 57 \; xbee_command 255 4 0;
#X msg 913 102 \; xbee_command 255 4 1;
#X msg 912 141 \; xbee_command 255 4 2;
#X msg 913 180 \; xbee_command 255 4 3;
#X msg 912 218 \; xbee_command 255 4 4;
#X msg 915 267 \; xbee_command 255 4 5;
#X msg 913 312 \; xbee_command 255 4 6;
#X msg 912 351 \; xbee_command 255 4 7;
#X msg 913 390 \; xbee_command 255 4 8;
#X msg 912 428 \; xbee_command 255 4 9;
#X text 1115 23 Ladder5;
#X msg 1088 58 \; xbee_command 255 5 0;
#X msg 1085 103 \; xbee_command 255 5 1;
#X msg 1084 142 \; xbee_command 255 5 2;
#X msg 1085 181 \; xbee_command 255 5 3;
#X msg 1084 219 \; xbee_command 255 5 4;
#X msg 1088 268 \; xbee_command 255 5 5;
#X msg 1085 313 \; xbee_command 255 5 6;
#X msg 1084 352 \; xbee_command 255 5 7;
#X msg 1084 391 \; xbee_command 255 5 8;
#X msg 1084 429 \; xbee_command 255 5 9;
#X obj 320 41 bng 15 250 50 0 empty empty empty 17 7 0 10 #fcfcfc #000000 #000000;
#X obj 347 88 bng 15 250 50 0 empty empty empty 17 7 0 10 #fcfcfc #000000 #000000;
#X obj 292 129 bng 15 250 50 0 empty empty empty 17 7 0 10 #fcfcfc #000000 #000000;
#X obj 330 339 bng 15 250 50 0 empty empty empty 17 7 0 10 #fcfcfc #000000 #000000;
#X obj 338 165 bng 15 250 50 0 empty empty empty 17 7 0 10 #fcfcfc #000000 #000000;
#X obj 265 16 r EndOfExhibition;
#X obj 508 26 bangbang_at 410;
#X obj 183 108 bangbang_at 10;
#X obj 628 23 bangbang_at 1190;
#X obj 480 -4 bangbang_at 185;
#X obj 61 183 bangbang_at 660;
#X obj 64 207 bangbang_at 680;
#X obj 62 233 bangbang_at 700;
#X obj 82 55 bangbang_at 650;
#X obj 85 80 bangbang_at 670;
#X obj 88 146 bangbang_at 645;
#X obj 87 16 bangbang_at 640;
#X obj 543 487 bangbang_at 970;
#X obj 84 319 bangbang_at 970;
#X connect 65 0 0 0;
#X connect 65 0 34 0;
#X connect 65 0 44 0;
#X connect 65 0 55 0;
#X connect 66 0 1 0;
#X connect 66 0 23 0;
#X connect 66 0 35 0;
#X connect 66 0 45 0;
#X connect 66 0 56 0;
#X connect 67 0 2 0;
#X connect 67 0 24 0;
#X connect 67 0 36 0;
#X connect 67 0 46 0;
#X connect 67 0 57 0;
#X connect 68 0 7 0;
#X connect 68 0 29 0;
#X connect 68 0 41 0;
#X connect 68 0 51 0;
#X connect 68 0 62 0;
#X connect 69 0 3 0;
#X connect 69 0 37 0;
#X connect 69 0 47 0;
#X connect 69 0 58 0;
#X connect 70 0 65 0;
#X connect 71 0 24 0;
#X connect 72 0 67 0;
#X connect 73 0 22 0;
#X connect 74 0 25 0;
#X connect 75 0 69 0;
#X connect 76 0 69 0;
#X connect 77 0 69 0;
#X connect 78 0 65 0;
#X connect 79 0 65 0;
#X connect 80 0 69 0;
#X connect 81 0 65 0;
#X connect 82 0 29 0;
#X connect 83 0 68 0;
#X restore 53 33 pd DancingLadders;
#N canvas 72 136 561 415 Nael 0;
#X obj 126 77 inlet;
#X msg 167 252 \; xbee_command 255 6 1;
#X msg 168 213 \; xbee_command 255 6 0;
#X msg 168 292 \; xbee_command 255 6 2;
#X text 221 180 Nael;
#X text 332 221 default;
#X text 338 255 play;
#X text 340 293 Stop;
#X obj 127 212 t b b;
#X obj 126 185 bng 15 250 50 0 empty empty empty 17 7 0 10 #fcfcfc #000000 #000000;
#X obj 126 154 bang_at 400;
#X obj 24 155 bang_at 800;
#X obj 269 127 r EndOfExhibition;
#X obj 271 187 t b b;
#X obj 270 160 bng 15 250 50 0 empty empty empty 17 7 0 10 #fcfcfc #000000 #000000;
#X obj 215 46 loadbang;
#X obj 215 72 delay 10000;
#X connect 0 0 9 0;
#X connect 8 0 1 0;
#X connect 8 1 3 0;
#X connect 9 0 8 0;
#X connect 10 0 9 0;
#X connect 12 0 14 0;
#X connect 13 0 2 0;
#X connect 13 1 3 0;
#X connect 14 0 13 0;
#X connect 15 0 16 0;
#X connect 16 0 2 0;
#X restore 54 98 pd Nael;
#X obj 54 76 bng 15 250 50 0 empty empty empty 17 7 0 10 #fcfcfc #000000 #000000;
#N canvas 72 96 1415 725 Ochetuji 1;
#X obj 85 30 inlet;
#X obj 156 28 inlet;
#X obj 232 27 inlet;
#X text 257 117 Ochetuji;
#X msg 220 148 \; xbee_command 255 8 0;
#X msg 218 187 \; xbee_command 255 8 1;
#X msg 220 228 \; xbee_command 255 8 2;
#X text 386 153 Bow;
#X text 385 187 Stop;
#X text 386 235 Bawiseom;
#X obj 116 238 t b b;
#X obj 123 111 t b b;
#X obj 76 110 bng 15 250 50 0 empty empty empty 17 7 0 10 #fcfcfc #000000 #000000;
#X obj 116 219 bng 15 250 50 0 empty empty empty 17 7 0 10 #fcfcfc #000000 #000000;
#X obj 217 84 r EndOfExhibition;
#X obj 29 197 bang_at 0;
#X obj 76 84 bangbang_at 420;
#X obj 69 150 bangbang_at 405;
#X connect 0 0 12 0;
#X connect 1 0 5 0;
#X connect 2 0 13 0;
#X connect 10 0 6 0;
#X connect 11 0 4 0;
#X connect 12 0 11 0;
#X connect 13 0 10 0;
#X connect 14 0 5 0;
#X connect 16 0 12 0;
#X connect 17 0 5 0;
#X restore 54 189 pd Ochetuji;
#X obj 54 138 bng 15 250 50 0 empty empty Bow 17 7 0 10 #fcfcfc #000000 #000000;
#X obj 91 157 bng 15 250 50 0 empty empty Stop 17 7 0 10 #fcfcfc #000000 #000000;
#X obj 128 138 bng 15 250 50 0 empty empty Bawiseom 17 7 0 10 #fcfcfc #000000 #000000;
#N canvas 72 96 657 352 HowToStandUP 0;
#X obj 102 40 inlet;
#X obj 189 44 inlet;
#X text 315 98 How TO Stand Up;
#X msg 313 127 \; xbee_command 255 7 1;
#X text 484 128 Play;
#X text 487 181 Stop;
#X msg 314 174 \; xbee_command 255 7 2;
#X obj 181 106 bangbang_at 1050;
#X obj 36 82 bangbang_at 700;
#X obj 59 150 bangbang_at 3;
#X obj 185 187 bangbang_at 1150;
#X obj 178 153 bangbang_at 818;
#X connect 0 0 3 0;
#X connect 1 0 6 0;
#X connect 7 0 3 0;
#X connect 8 0 3 0;
#X connect 9 0 6 0;
#X connect 10 0 6 0;
#X connect 11 0 6 0;
#X restore 55 251 pd HowToStandUP;
#X obj 55 229 bng 15 250 50 0 empty empty Play 17 7 0 10 #fcfcfc #000000 #000000;
#X obj 157 228 bng 15 250 50 0 empty empty Stop 17 7 0 10 #fcfcfc #000000 #000000;
#X obj 56 288 bng 15 250 50 0 empty empty Play 17 7 0 10 #fcfcfc #000000 #000000;
#X obj 130 288 bng 15 250 50 0 empty empty Stop 17 7 0 10 #fcfcfc #000000 #000000;
#N canvas 871 218 897 448 Windbell 0;
#X obj 443 74 inlet;
#X obj 490 74 inlet;
#X text 474 121 Windbell and Landscape;
#X text 652 156 On;
#X text 652 202 Off;
#X obj 9 120 bang_at 200;
#X obj 9 165 bang_at 278;
#X obj 99 120 bang_at 420;
#X obj 99 165 bang_at 550;
#X obj 185 87 bang_at 670;
#X obj 186 114 bang_at 750;
#X obj 274 120 bang_at 850;
#X obj 274 166 bang_at 950;
#X obj 361 97 bang_at 1150;
#X obj 367 161 bang_at 1250;
#X obj 21 192 bang_at 0;
#X obj 681 177 r EndOfExhibition;
#X msg 472 150 \; xbee_command 255 11 1;
#X msg 473 197 \; xbee_command 255 11 0;
#X connect 0 0 17 0;
#X connect 1 0 18 0;
#X connect 5 0 17 0;
#X connect 6 0 18 0;
#X connect 7 0 17 0;
#X connect 8 0 18 0;
#X connect 11 0 17 0;
#X connect 12 0 18 0;
#X connect 14 0 18 0;
#X connect 15 0 18 0;
#X connect 16 0 18 0;
#X restore 56 310 pd Windbell;
#X obj 57 344 bng 15 250 50 0 empty empty Play 17 7 0 10 #fcfcfc #000000 #000000;
#X obj 131 344 bng 15 250 50 0 empty empty Stop 17 7 0 10 #fcfcfc #000000 #000000;
#N canvas 72 96 626 375 FanLight 0;
#X msg 307 178 \; xbee_command 255 12 1;
#X msg 306 217 \; xbee_command 255 12 2;
#X msg 310 133 \; xbee_command 255 12 0;
#X msg 307 256 \; xbee_command 255 12 3;
#X msg 306 294 \; xbee_command 255 12 4;
#X text 355 105 Fan Light;
#X text 479 306 middle;
#X text 480 139 STOP;
#X text 478 266 Left Low;
#X text 476 224 Left Top;
#X text 480 187 Top;
#X obj 229 116 bng 15 250 50 0 empty empty empty 17 7 0 10 #fcfcfc #000000 #000000;
#X obj 144 279 bng 15 250 50 0 empty empty empty 17 7 0 10 #fcfcfc #000000 #000000;
#X obj 76 113 r EndOfExhibition;
#X obj 229 90 bangbang_at 5;
#X obj 132 31 inlet;
#X obj 274 29 inlet;
#X obj 144 253 bangbang_at 390;
#X connect 11 0 2 0;
#X connect 12 0 4 0;
#X connect 13 0 2 0;
#X connect 14 0 11 0;
#X connect 15 0 12 0;
#X connect 16 0 11 0;
#X connect 17 0 12 0;
#X restore 57 367 pd FanLight;
#X text 4 2 ROBOT;
#X connect 2 0 1 0;
#X connect 4 0 3 0;
#X connect 5 0 3 1;
#X connect 6 0 3 2;
#X connect 8 0 7 0;
#X connect 9 0 7 1;
#X connect 10 0 12 0;
#X connect 11 0 12 1;
#X connect 13 0 15 0;
#X connect 14 0 15 1;
#X restore 15 317 pd Xbee_commands;
#X text 137 319 Wireless Control Message;
#N canvas 410 266 852 790 colsing 0;
#X obj 483 173 zexy;
#X msg 478 202 bang;
#X floatatom 516 312 0 0 0 0 - - - 0;
#X floatatom 485 312 0 0 0 0 - - - 0;
#X floatatom 451 312 0 0 0 0 - - - 0;
#X obj 478 231 time;
#X floatatom 501 266 0 0 0 0 - - - 0;
#X text 558 269 msec;
#X text 559 291 sec;
#X text 560 312 min;
#X text 559 334 hours;
#X obj 454 344 pack;
#X obj 505 374 prepend set;
#X msg 504 402 17 48;
#X floatatom 572 206 5 0 0 1 sec. global_sec - 0;
#X obj 516 562 list-compare;
#X obj 513 650 s EndOfExhibition;
#X obj 597 506 loadbang;
#X obj 358 567 list-compare;
#X obj 439 511 loadbang;
#X obj 356 623 select 1;
#X obj 356 597 change;
#X msg 439 538 18 0;
#X obj 356 649 s EndOfExhibition_6pm;
#X obj 519 619 select 1;
#X obj 519 593 change;
#X msg 597 533 17 50;
#X obj 497 620 bng 15 250 50 0 empty empty empty 17 7 0 10 #fcfcfc #000000 #000000;
#X obj 507 630 bng 15 250 50 0 empty empty empty 17 7 0 10 #fcfcfc #000000 #000000;
#X obj 115 33 inlet;
#X obj 109 171 s EndOfExhibition_6pm;
#X obj 119 62 s EndOfExhibition;
#X obj 110 141 delay 300000;
#X connect 1 0 5 0;
#X connect 3 0 11 1;
#X connect 4 0 11 0;
#X connect 5 0 4 0;
#X connect 5 1 3 0;
#X connect 5 2 2 0;
#X connect 5 3 6 0;
#X connect 11 0 12 0;
#X connect 11 0 15 0;
#X connect 11 0 18 0;
#X connect 12 0 13 0;
#X connect 15 0 25 0;
#X connect 17 0 26 0;
#X connect 18 0 21 0;
#X connect 19 0 22 0;
#X connect 20 0 23 0;
#X connect 21 0 20 0;
#X connect 22 0 18 1;
#X connect 24 0 16 0;
#X connect 25 0 24 0;
#X connect 26 0 15 1;
#X connect 27 0 16 0;
#X connect 29 0 31 0;
#X connect 29 0 32 0;
#X connect 32 0 30 0;
#X restore 16 440 pd colsing;
#X obj 16 419 bng 15 250 50 0 empty empty End_Of_Exhibition 17 7 0 10 #fcfcfc #000000 #000000;
#N canvas 561 461 515 563 COMPORTS 1;
#X msg 171 412 devices;
#X obj 62 411 r xbee_command;
#X msg 283 414 close;
#N canvas 691 96 776 701 from_Xbee 0;
#X obj 105 237 bng 15 250 50 0 empty empty empty 17 7 0 10 #fcfcfc #000000 #000000;
#X msg 138 98 zlclear;
#X obj 106 49 t a a;
#X obj 61 550 print;
#X obj 125 260 s position_sense;
#X obj 37 89 print;
#X obj 88 10 inlet;
#X obj 138 74 sel 50;
#X obj 106 127 zl group 4;
#X obj 105 182 list-compare;
#X msg 206 149 50 53 53 56;
#X obj 105 210 sel 1;
#X obj 223 117 loadbang;
#X msg 105 311 bang;
#X floatatom 120 398 0 0 0 0 - - - 0;
#X floatatom 112 421 0 0 0 0 - - - 0;
#X floatatom 105 444 0 0 0 0 - - - 0;
#X obj 105 340 time;
#X floatatom 128 375 0 0 0 0 - - - 0;
#X text 185 378 msec;
#X text 186 400 sec;
#X text 187 421 min;
#X text 186 443 hours;
#X text 98 286 local;
#X obj 61 498 pack f f f, f 13;
#X msg 61 527 Ochetuji position sense at \$1 h \$2 m \$3 s;
#X connect 0 0 4 0;
#X connect 0 0 13 0;
#X connect 1 0 8 0;
#X connect 2 0 8 0;
#X connect 2 1 7 0;
#X connect 6 0 2 0;
#X connect 7 0 1 0;
#X connect 8 0 9 0;
#X connect 9 0 11 0;
#X connect 10 0 9 1;
#X connect 11 0 0 0;
#X connect 12 0 10 0;
#X connect 13 0 17 0;
#X connect 14 0 24 2;
#X connect 15 0 24 1;
#X connect 16 0 24 0;
#X connect 17 0 16 0;
#X connect 17 1 15 0;
#X connect 17 2 14 0;
#X connect 17 3 18 0;
#X connect 24 0 25 0;
#X connect 25 0 3 0;
#X restore 179 500 pd from_Xbee;
#X msg 231 413 open 0;
#X obj 165 326 t b b;
#X obj 164 307 bng 15 250 50 0 empty empty empty 17 7 0 10 #fcfcfc #000000 #000000;
#X obj 300 244 loadbang;
#X msg 157 364 baud 115200;
#X obj 179 446 comport;
#X msg 244 364 devicename /dev/ttyTeensy;
#X obj 249 242 inlet;
#X obj 300 275 delay 5000;
#X connect 0 0 9 0;
#X connect 1 0 9 0;
#X connect 2 0 9 0;
#X connect 4 0 9 0;
#X connect 5 0 8 0;
#X connect 5 1 10 0;
#X connect 6 0 5 0;
#X connect 7 0 12 0;
#X connect 8 0 9 0;
#X connect 10 0 9 0;
#X connect 11 0 6 0;
#X connect 12 0 6 0;
#X restore 292 237 pd COMPORTS;
#X obj 292 215 bng 15 250 50 0 empty empty connect_Xbee 17 7 0 10 #fcfcfc #000000 #000000;
#N canvas 637 632 640 398 EndOfExhibition 0;
#X obj 80 99 time, f 15;
#X obj 82 81 bng 15 250 50 0 empty empty empty 17 7 0 10 #fcfcfc #000000 #000000;
#X obj 175 148 prepend set;
#X obj 81 226 list-compare;
#X msg 162 198 17 58 0;
#X msg 176 176 6 29 15;
#X obj 80 129 pack f f f;
#X obj 80 251 sel 1;
#X floatatom 82 36 5 0 0 1 sec. global_sec - 0;
#X obj 82 58 t b;
#X obj 80 280 s EndOfExhibition;
#X obj 317 258 s EndOfExhibition_6pm;
#X msg 30 201 1;
#X obj 13 158 inlet;
#X obj 315 222 inlet;
#X connect 0 0 6 0;
#X connect 0 1 6 1;
#X connect 0 2 6 2;
#X connect 1 0 0 0;
#X connect 2 0 5 0;
#X connect 3 0 7 0;
#X connect 4 0 3 1;
#X connect 6 0 2 0;
#X connect 6 0 3 0;
#X connect 7 0 10 0;
#X connect 8 0 9 0;
#X connect 9 0 1 0;
#X connect 12 0 7 0;
#X connect 13 0 12 0;
#X connect 14 0 11 0;
#X restore 240 120 pd EndOfExhibition;
#X obj 240 99 bng 15 250 50 0 empty empty Charge_Position 17 7 0 10 #fcfcfc #000000 #000000;
#X obj 363 99 bng 15 250 50 0 empty empty Turn_Off_LIght 17 7 0 10 #fcfcfc #000000 #000000;
#N canvas 72 314 523 358 GF3 0;
#X msg 333 206 disconnect;
#X msg 188 174 connect 192.168.0.200 1999;
#X obj 144 229 netsend -u -b 1999;
#X obj 205 143 loadbang;
#X obj 118 11 bang_at 640;
#X msg 127 48 send 0;
#X obj 206 12 bang_at 850;
#X msg 215 48 send 1;
#X msg 329 50 send 2;
#X obj 143 264 sel 0;
#X obj 139 292 print reconnect to Nuc;
#X obj 320 13 bang_at 818;
#X connect 0 0 2 0;
#X connect 1 0 2 0;
#X connect 2 0 9 0;
#X connect 3 0 1 0;
#X connect 5 0 2 0;
#X connect 7 0 2 0;
#X connect 8 0 2 0;
#X connect 9 0 1 0;
#X connect 9 0 10 0;
#X connect 11 0 8 0;
#X restore 17 355 pd GF3;
#X text 135 302 348sec for Bawiseom and 720sec. for 1 cycle;
#N canvas 0 0 564 352 Light 1;
#X obj 195 305 noteout;
#X floatatom 195 270 5 0 0 0 - - - 0;
#X obj 138 105 bang_at 11;
#X connect 1 0 0 0;
#X restore 61 218 pd Light;
#X connect 10 0 9 0;
#X connect 12 0 11 0;
#X connect 14 0 13 0;
#X connect 15 0 13 1;
