#N canvas 2020 70 1654 811 12;
#X msg 127 56 devices;
#X obj 131 120 print;
#X obj 137 89 comport 0 9600;
#X msg 186 56 open 0;
#X obj 74 27 r xbee_command;
#X msg 1093 407 \; xbee_command 255 11 1;
#X msg 1094 454 \; xbee_command 255 11 0;
#X msg 1091 197 \; xbee_command 255 12 1;
#X msg 1090 236 \; xbee_command 255 12 2;
#X msg 1094 152 \; xbee_command 255 12 0;
#X msg 1091 275 \; xbee_command 255 12 3;
#X msg 1090 313 \; xbee_command 255 12 4;
#X text 1094 123 Fan Light;
#X text 1095 378 Windbell and Landscape;
#X text 1260 323 middle;
#X text 1264 158 STOP;
#X text 1262 285 Left Low;
#X text 1260 243 Left Top;
#X text 1264 206 Top;
#X msg 807 184 \; xbee_command 255 6 1;
#X msg 808 145 \; xbee_command 255 6 0;
#X msg 808 224 \; xbee_command 255 6 2;
#X text 781 110 Nael;
#X text 812 273 Ochetuji;
#X msg 818 305 \; xbee_command 255 8 0;
#X msg 816 344 \; xbee_command 255 8 1;
#X msg 818 385 \; xbee_command 255 8 2;
#X text 972 153 default;
#X text 978 187 play;
#X text 980 225 Stop;
#X obj 767 144 t b b;
#X obj 766 115 bng 15 250 50 0 empty empty empty 17 7 0 10 #fcfcfc
#000000 #000000;
#N canvas 2099 444 1722 844 dancing_ladders 1;
#X msg 265 169 \; xbee_command 255 1 0;
#X msg 262 214 \; xbee_command 255 1 1;
#X msg 261 253 \; xbee_command 255 1 2;
#X msg 262 292 \; xbee_command 255 1 3;
#X msg 261 330 \; xbee_command 255 1 4;
#X msg 265 379 \; xbee_command 255 1 5;
#X msg 262 424 \; xbee_command 255 1 6;
#X msg 261 463 \; xbee_command 255 1 7;
#X msg 262 502 \; xbee_command 255 1 8;
#X msg 261 540 \; xbee_command 255 1 9;
#X text 133 176 Home;
#X text 114 223 Play normal speed;
#X text 115 252 Stop;
#X text 112 290 Play slow speed;
#X text 110 341 Normal profile;
#X text 107 386 low profile;
#X text 107 430 high profile;
#X text 76 464 stop at sensor position;
#X text 125 502 collapse;
#X text 122 543 stand up;
#X text 292 127 Ladder1;
#X text 464 123 Ladder2;
#X msg 445 169 \; xbee_command 255 2 0;
#X msg 442 214 \; xbee_command 255 2 1;
#X msg 441 253 \; xbee_command 255 2 2;
#X msg 442 292 \; xbee_command 255 2 3;
#X msg 441 330 \; xbee_command 255 2 4;
#X msg 444 379 \; xbee_command 255 2 5;
#X msg 442 424 \; xbee_command 255 2 6;
#X msg 441 463 \; xbee_command 255 2 7;
#X msg 442 502 \; xbee_command 255 2 8;
#X msg 441 540 \; xbee_command 255 2 9;
#X text 653 127 Ladder3;
#X text 825 123 Ladder4;
#X msg 626 169 \; xbee_command 255 3 0;
#X msg 623 214 \; xbee_command 255 3 1;
#X msg 622 253 \; xbee_command 255 3 2;
#X msg 623 292 \; xbee_command 255 3 3;
#X msg 622 330 \; xbee_command 255 3 4;
#X msg 626 379 \; xbee_command 255 3 5;
#X msg 623 424 \; xbee_command 255 3 6;
#X msg 622 463 \; xbee_command 255 3 7;
#X msg 622 502 \; xbee_command 255 3 8;
#X msg 622 540 \; xbee_command 255 3 9;
#X msg 806 169 \; xbee_command 255 4 0;
#X msg 803 214 \; xbee_command 255 4 1;
#X msg 802 253 \; xbee_command 255 4 2;
#X msg 803 292 \; xbee_command 255 4 3;
#X msg 802 330 \; xbee_command 255 4 4;
#X msg 805 379 \; xbee_command 255 4 5;
#X msg 803 424 \; xbee_command 255 4 6;
#X msg 802 463 \; xbee_command 255 4 7;
#X msg 803 502 \; xbee_command 255 4 8;
#X msg 802 540 \; xbee_command 255 4 9;
#X text 1005 135 Ladder5;
#X msg 978 177 \; xbee_command 255 5 0;
#X msg 975 222 \; xbee_command 255 5 1;
#X msg 974 261 \; xbee_command 255 5 2;
#X msg 975 300 \; xbee_command 255 5 3;
#X msg 974 338 \; xbee_command 255 5 4;
#X msg 978 387 \; xbee_command 255 5 5;
#X msg 975 432 \; xbee_command 255 5 6;
#X msg 974 471 \; xbee_command 255 5 7;
#X msg 974 510 \; xbee_command 255 5 8;
#X msg 974 548 \; xbee_command 255 5 9;
#X obj 184 159 bng 15 250 50 0 empty empty empty 17 7 0 10 #fcfcfc
#000000 #000000;
#X connect 65 0 0 0;
#X connect 65 0 22 0;
#X connect 65 0 34 0;
#X connect 65 0 44 0;
#X connect 65 0 55 0;
#X restore 155 239 pd dancing_ladders;
#X connect 0 0 2 0;
#X connect 2 0 1 0;
#X connect 3 0 2 0;
#X connect 4 0 2 0;
#X connect 30 0 19 0;
#X connect 30 1 21 0;
#X connect 31 0 30 0;
