#N canvas 606 56 724 744 12;
#N canvas 415 329 546 284 DMX 1;
#X obj 20 70 metro 100;
#X obj 20 49 tgl 15 0 empty empty empty 17 7 0 10 #fcfcfc #000000 #000000
0 1;
#X text 44 47 2 start clock;
#X text 165 9 1 Open Comport;
#N canvas 52 108 632 533 DMX_data_serial 1;
#X obj 39 306 list prepend 255;
#X obj 39 331 list append 254;
#X obj 22 292 bng 8 250 50 0 empty empty empty 17 7 0 10 #fcfcfc #000000
#000000;
#X text 99 244 bus 1;
#X text 7 11 control bus;
#X text 30 33 1;
#X obj 39 432 prepend set;
#X msg 39 456 255 60 4 0 0 0 0 254, f 76;
#X obj 22 268 r RGBW-OUT-1;
#X text 53 552 255 \, DMX_address \, n_channel \, control_1 \, control_2
\, control_3 \, control_4 \, 254, f 80;
#X obj 54 357 print;
#X obj 78 33 RGBW 52 4 1 1;
#X obj 78 59 RGBW 56 4 2 1;
#X obj 78 85 RGBW 60 4 3 1;
#X obj 79 111 RGBW 64 4 4 1;
#X obj 77 138 Mac350_Entour 1 17 5 1;
#X obj 118 267 r Mac350-OUT-1;
#X obj 118 290 bng 8 250 50 0 empty empty empty 17 7 0 10 #fcfcfc #000000
#000000;
#X obj 76 163 Mac350_Entour 18 17 6 1;
#X obj 76 186 Mac350_Entour 35 17 7 1;
#X obj 75 386 s light_dmx;
#X connect 0 0 1 0;
#X connect 1 0 6 0;
#X connect 1 0 20 0;
#X connect 6 0 7 0;
#X connect 8 0 2 0;
#X connect 8 0 0 0;
#X connect 16 0 0 0;
#X connect 16 0 17 0;
#X restore 16 7 pd DMX_data_serial;
#X obj 212 35 loadbang;
#X obj 213 69 delay 2000;
#X msg 213 95 1;
#X obj 20 95 s light_clock;
#X connect 0 0 8 0;
#X connect 1 0 0 0;
#X connect 5 0 6 0;
#X connect 6 0 7 0;
#X connect 7 0 1 0;
#X restore 16 128 pd DMX;
#N canvas 2035 61 1440 855 Mixer_New 1;
#X obj 960 38 PresetManager 1;
#X obj 70 19 r c1_s1_1;
#X obj 169 23 r c1_s1_2;
#X obj 268 24 r c1_s1_3;
#X obj 367 25 r c1_s1_4;
#X obj 560 23 r c1_s2_1;
#X obj 659 24 r c1_s2_2;
#X obj 758 24 r c1_s2_3;
#X obj 857 25 r c1_s2_4;
#X obj 76 211 r c1_s3_1;
#X obj 175 212 r c1_s3_2;
#X obj 274 213 r c1_s3_3;
#X obj 373 214 r c1_s3_4;
#X obj 563 210 r c1_s4_1;
#X obj 662 211 r c1_s4_2;
#X obj 761 211 r c1_s4_3;
#X obj 860 212 r c1_s4_4;
#X obj 76 438 r c1_s5_1;
#X obj 179 441 r c1_s5_2;
#X obj 278 442 r c1_s5_3;
#X obj 377 443 r c1_s5_4;
#X obj 76 636 r c1_s6_1;
#X obj 175 637 r c1_s6_2;
#X obj 274 637 r c1_s6_3;
#X obj 373 638 r c1_s6_4;
#X obj 76 462 vsl_pre 1 1 5;
#X obj 179 464 vsl_pre 1 2 5;
#X obj 278 465 vsl_pre 1 3 5;
#X obj 377 465 vsl_pre 1 4 5;
#X obj 474 440 r c1_s5_5;
#X obj 573 441 r c1_s5_6;
#X obj 672 442 r c1_s5_7;
#X obj 771 443 r c1_s5_8;
#X obj 872 441 r c1_s5_9;
#X obj 970 441 r c1_s5_10;
#X obj 474 464 vsl_pre 1 5 5;
#X obj 573 464 vsl_pre 1 6 5;
#X obj 672 465 vsl_pre 1 7 5;
#X obj 771 465 vsl_pre 1 8 5;
#X obj 872 464 vsl_pre 1 9 5;
#X obj 970 463 vsl_pre 1 10 5;
#X text 71 412 Shutter;
#X text 171 412 Fade;
#X text 276 411 Iris;
#X text 372 414 Focus;
#X text 468 410 Pan;
#X text 568 412 Pan fine;
#X text 666 411 Tilt;
#X text 763 411 Tilt fine;
#X text 866 411 Speed;
#X text 966 410 Effects speed;
#X text 960 110 https://drive.google.com/file/d/1hYbBXF_hs6p8yH0l_izqFWbq7o5hFnDt/view?usp=drive_link
;
#X obj 70 46 vsl_pre 1 1 1;
#X obj 169 46 vsl_pre 1 2 1;
#X obj 268 47 vsl_pre 1 3 1;
#X obj 367 47 vsl_pre 1 4 1;
#X obj 560 46 vsl_pre 1 1 2;
#X obj 659 46 vsl_pre 1 2 2;
#X obj 758 47 vsl_pre 1 3 2;
#X obj 857 47 vsl_pre 1 4 2;
#X obj 75 235 vsl_pre 1 1 3;
#X obj 174 235 vsl_pre 1 2 3;
#X obj 273 236 vsl_pre 1 3 3;
#X obj 372 236 vsl_pre 1 4 3;
#X obj 562 233 vsl_pre 1 1 4;
#X obj 661 233 vsl_pre 1 2 4;
#X obj 760 234 vsl_pre 1 3 4;
#X obj 859 233 vsl_pre 1 4 4;
#X obj 76 659 vsl_pre 1 1 6;
#X obj 175 659 vsl_pre 1 2 6;
#X obj 274 660 vsl_pre 1 3 6;
#X obj 373 660 vsl_pre 1 4 6;
#X obj 470 635 r c1_s6_5;
#X obj 569 636 r c1_s6_6;
#X obj 668 637 r c1_s6_7;
#X obj 767 638 r c1_s6_8;
#X obj 868 636 r c1_s6_9;
#X obj 966 636 r c1_s6_10;
#X obj 470 659 vsl_pre 1 5 6;
#X obj 569 659 vsl_pre 1 6 6;
#X obj 668 660 vsl_pre 1 7 6;
#X obj 767 660 vsl_pre 1 8 6;
#X obj 868 659 vsl_pre 1 9 6;
#X obj 966 658 vsl_pre 1 10 6;
#X obj 374 828 r c1_s6_4;
#X obj 77 826 r c1_s7_1;
#X obj 176 827 r c1_s7_2;
#X obj 275 827 r c1_s7_3;
#X obj 471 825 r c1_s7_5;
#X obj 570 826 r c1_s7_6;
#X obj 669 827 r c1_s7_7;
#X obj 768 828 r c1_s7_8;
#X obj 869 826 r c1_s7_9;
#X obj 967 826 r c1_s7_10;
#X obj 77 849 vsl_pre 1 1 7;
#X obj 176 849 vsl_pre 1 2 7;
#X obj 275 850 vsl_pre 1 3 7;
#X obj 374 850 vsl_pre 1 4 7;
#X obj 471 849 vsl_pre 1 5 7;
#X obj 570 849 vsl_pre 1 6 7;
#X obj 669 850 vsl_pre 1 7 7;
#X obj 768 850 vsl_pre 1 8 7;
#X obj 869 849 vsl_pre 1 9 7;
#X obj 967 848 vsl_pre 1 10 7;
#X text 4 87 Light 1;
#X text 487 91 Light 2;
#X text 1 274 Light 3;
#X text 484 270 Light 4;
#X text 5 518 Light 5;
#X text 2 705 Light 6;
#X text 4 906 Light 7;
#X connect 1 0 52 0;
#X connect 2 0 53 0;
#X connect 3 0 54 0;
#X connect 4 0 55 0;
#X connect 5 0 56 0;
#X connect 6 0 57 0;
#X connect 7 0 58 0;
#X connect 8 0 59 0;
#X connect 9 0 60 0;
#X connect 10 0 61 0;
#X connect 11 0 62 0;
#X connect 12 0 63 0;
#X connect 13 0 64 0;
#X connect 14 0 65 0;
#X connect 15 0 66 0;
#X connect 16 0 67 0;
#X connect 17 0 25 0;
#X connect 18 0 26 0;
#X connect 19 0 27 0;
#X connect 20 0 28 0;
#X connect 21 0 68 0;
#X connect 22 0 69 0;
#X connect 23 0 70 0;
#X connect 24 0 71 0;
#X connect 29 0 35 0;
#X connect 30 0 36 0;
#X connect 31 0 37 0;
#X connect 32 0 38 0;
#X connect 33 0 39 0;
#X connect 34 0 40 0;
#X connect 72 0 78 0;
#X connect 73 0 79 0;
#X connect 74 0 80 0;
#X connect 75 0 81 0;
#X connect 76 0 82 0;
#X connect 77 0 83 0;
#X connect 84 0 97 0;
#X connect 85 0 94 0;
#X connect 86 0 95 0;
#X connect 87 0 96 0;
#X connect 88 0 98 0;
#X connect 89 0 99 0;
#X connect 90 0 100 0;
#X connect 91 0 101 0;
#X connect 92 0 102 0;
#X connect 93 0 103 0;
#X coords 0 855 1 854 85 60 0;
#X restore 16 152 pd Mixer_New;
#N canvas 255 431 1665 498 MIDI 0;
#X obj 84 2 ctlin;
#X obj 46 84 pack f f f;
#X text 146 108 channel;
#X obj 2 351 s c1_s1_1;
#X floatatom 2 328 5 0 0 0 - - - 0;
#X floatatom 39 375 5 0 0 0 - - - 0;
#X floatatom 77 328 5 0 0 0 - - - 0;
#X floatatom 115 375 5 0 0 0 - - - 0;
#X obj 46 133 s ch1;
#X obj 43 32 t b f;
#X obj 16 55 delay 1;
#X obj 2 260 r ch1;
#X obj 2 282 route 13 29 49 77, f 22;
#X obj 2 306 sc1;
#X obj 39 306 sc1;
#X obj 77 305 sc1;
#X obj 115 306 sc1;
#X floatatom 188 328 5 0 0 0 - - - 0;
#X floatatom 225 375 5 0 0 0 - - - 0;
#X floatatom 263 328 5 0 0 0 - - - 0;
#X floatatom 301 375 5 0 0 0 - - - 0;
#X obj 188 260 r ch1;
#X obj 188 306 sc1;
#X obj 225 306 sc1;
#X obj 263 305 sc1;
#X obj 301 306 sc1;
#X obj 188 282 route 14 30 50 78, f 22;
#X obj 39 398 s c1_s1_2;
#X obj 77 351 s c1_s1_3;
#X obj 115 398 s c1_s1_4;
#X obj 188 351 s c1_s2_1;
#X obj 225 398 s c1_s2_2;
#X obj 263 351 s c1_s2_3;
#X obj 301 398 s c1_s2_4;
#X floatatom 372 329 5 0 0 0 - - - 0;
#X floatatom 409 376 5 0 0 0 - - - 0;
#X floatatom 447 329 5 0 0 0 - - - 0;
#X floatatom 485 376 5 0 0 0 - - - 0;
#X obj 372 261 r ch1;
#X obj 372 307 sc1;
#X obj 409 307 sc1;
#X obj 447 306 sc1;
#X obj 485 307 sc1;
#X floatatom 558 329 5 0 0 0 - - - 0;
#X floatatom 595 376 5 0 0 0 - - - 0;
#X floatatom 633 329 5 0 0 0 - - - 0;
#X floatatom 671 376 5 0 0 0 - - - 0;
#X obj 558 261 r ch1;
#X obj 558 307 sc1;
#X obj 595 307 sc1;
#X obj 633 306 sc1;
#X obj 671 307 sc1;
#X obj 372 283 route 15 31 51 79, f 22;
#X obj 558 283 route 16 32 52 80, f 22;
#X obj 372 352 s c1_s3_1;
#X obj 447 352 s c1_s3_3;
#X obj 409 399 s c1_s3_2;
#X obj 485 399 s c1_s3_4;
#X obj 558 352 s c1_s4_1;
#X obj 595 399 s c1_s4_2;
#X obj 633 352 s c1_s4_3;
#X obj 671 399 s c1_s4_4;
#X floatatom 740 328 5 0 0 0 - - - 0;
#X floatatom 777 375 5 0 0 0 - - - 0;
#X floatatom 815 328 5 0 0 0 - - - 0;
#X floatatom 853 375 5 0 0 0 - - - 0;
#X obj 740 260 r ch1;
#X obj 740 306 sc1;
#X obj 777 306 sc1;
#X obj 815 305 sc1;
#X obj 853 306 sc1;
#X floatatom 926 328 5 0 0 0 - - - 0;
#X floatatom 963 375 5 0 0 0 - - - 0;
#X floatatom 1001 328 5 0 0 0 - - - 0;
#X floatatom 1039 375 5 0 0 0 - - - 0;
#X obj 926 260 r ch1;
#X obj 926 306 sc1;
#X obj 963 306 sc1;
#X obj 1001 305 sc1;
#X obj 1039 306 sc1;
#X floatatom 1110 329 5 0 0 0 - - - 0;
#X floatatom 1147 376 5 0 0 0 - - - 0;
#X floatatom 1185 329 5 0 0 0 - - - 0;
#X floatatom 1223 376 5 0 0 0 - - - 0;
#X obj 1110 261 r ch1;
#X obj 1110 307 sc1;
#X obj 1147 307 sc1;
#X obj 1185 306 sc1;
#X obj 1223 307 sc1;
#X floatatom 1296 329 5 0 0 0 - - - 0;
#X floatatom 1333 376 5 0 0 0 - - - 0;
#X floatatom 1371 329 5 0 0 0 - - - 0;
#X floatatom 1409 376 5 0 0 0 - - - 0;
#X obj 1296 261 r ch1;
#X obj 1296 307 sc1;
#X obj 1333 307 sc1;
#X obj 1371 306 sc1;
#X obj 1409 307 sc1;
#X obj 740 282 route 17 33 53 81, f 22;
#X obj 926 282 route 18 34 54 82, f 22;
#X obj 1110 283 route 19 35 55 83, f 22;
#X obj 740 351 s c1_s5_1;
#X obj 815 351 s c1_s5_3;
#X obj 777 398 s c1_s5_2;
#X obj 853 397 s c1_s5_4;
#X obj 926 351 s c1_s6_1;
#X obj 1001 351 s c1_s6_3;
#X obj 963 398 s c1_s6_2;
#X obj 1039 398 s c1_s6_4;
#X obj 1110 352 s c1_s7_1;
#X obj 1185 352 s c1_s7_3;
#X obj 1147 399 s c1_s7_2;
#X obj 1223 399 s c1_s7_4;
#X obj 1296 352 s c1_s8_1;
#X obj 1371 352 s c1_s8_3;
#X obj 1333 399 s c1_s8_2;
#X obj 1409 399 s c1_s8_4;
#X obj 1296 283 route 20 36 56 84, f 22;
#X obj 46 108 route 1 2 3 9;
#X obj 112 132 s ch9;
#X obj 501 35 r ch9;
#X obj 501 83 change;
#X obj 553 83 change;
#X obj 501 108 sel 127;
#X obj 501 59 route 106 107 105, f 22;
#X obj 501 131 bng 15 250 50 0 ts1 empty ts1 17 7 0 10 #fcfcfc #000000
#000000;
#X obj 557 108 sel 127;
#X obj 557 131 bng 15 250 50 0 ts2 empty ts2 17 7 0 10 #fcfcfc #000000
#000000;
#X obj 613 82 change;
#X obj 613 108 sel 127;
#X obj 613 131 bng 15 250 50 0 device empty device 17 7 0 10 #fcfcfc
#000000 #000000;
#X obj 697 81 change;
#X obj 749 81 change;
#X obj 697 106 sel 127;
#X obj 697 129 bng 15 250 50 0 ts1_ch1 empty ts1_ch1 17 7 0 10 #fcfcfc
#000000 #000000;
#X obj 753 106 sel 127;
#X obj 753 129 bng 15 250 50 0 ts2_ch1 empty ts2_ch1 17 7 0 10 #fcfcfc
#000000 #000000;
#X obj 697 33 r ch1;
#X obj 257 100 pack f f f;
#X text 357 124 channel;
#X obj 254 48 t b f;
#X obj 227 71 delay 1;
#X obj 257 124 route 1 2 3 9;
#X obj 340 16 notein;
#X obj 257 149 s ch1_note;
#X obj 375 152 s ch9_note;
#X obj 955 74 change;
#X obj 1052 76 change;
#X obj 955 99 sel 127;
#X obj 955 122 bng 15 250 50 0 ts1_ch1_note empty ts1_ch1_note 17 7
0 10 #fcfcfc #000000 #000000;
#X obj 1056 101 sel 127;
#X obj 1056 124 bng 15 250 50 0 ts2_ch1_note empty ts2_ch1_note 17
7 0 10 #fcfcfc #000000 #000000;
#X obj 955 26 r ch1_note;
#X obj 955 50 route 107 108 105, f 22;
#X obj 1155 76 change;
#X obj 1155 102 sel 127;
#X obj 1155 125 bng 15 250 50 0 device_ch1 empty device_ch1 17 7 0
10 #fcfcfc #000000 #000000;
#X obj 1226 65 route 107 108 105, f 22;
#X obj 1327 91 change;
#X obj 1327 117 sel 127;
#X obj 1327 140 bng 15 250 50 0 device_ch9_note empty device_ch1 17
7 0 10 #fcfcfc #000000 #000000;
#X obj 1226 41 r ch9_note;
#X obj 697 57 route 106 107 104 105, f 22;
#X obj 816 85 change;
#X obj 868 85 change;
#X obj 816 110 sel 127;
#X obj 816 133 bng 15 250 50 0 ts3_ch1 empty ts3_ch1 17 7 0 10 #fcfcfc
#000000 #000000;
#X obj 872 110 sel 127;
#X obj 872 133 bng 15 250 50 0 ts4_ch1 empty ts4_ch1 17 7 0 10 #fcfcfc
#000000 #000000;
#X connect 0 0 1 2;
#X connect 0 1 1 1;
#X connect 0 2 9 0;
#X connect 1 0 118 0;
#X connect 4 0 3 0;
#X connect 5 0 27 0;
#X connect 6 0 28 0;
#X connect 7 0 29 0;
#X connect 9 0 10 0;
#X connect 9 1 1 0;
#X connect 10 0 1 0;
#X connect 11 0 12 0;
#X connect 12 0 13 0;
#X connect 12 1 14 0;
#X connect 12 2 15 0;
#X connect 12 3 16 0;
#X connect 13 0 4 0;
#X connect 14 0 5 0;
#X connect 15 0 6 0;
#X connect 16 0 7 0;
#X connect 17 0 30 0;
#X connect 18 0 31 0;
#X connect 19 0 32 0;
#X connect 20 0 33 0;
#X connect 21 0 26 0;
#X connect 22 0 17 0;
#X connect 23 0 18 0;
#X connect 24 0 19 0;
#X connect 25 0 20 0;
#X connect 26 0 22 0;
#X connect 26 1 23 0;
#X connect 26 2 24 0;
#X connect 26 3 25 0;
#X connect 34 0 54 0;
#X connect 35 0 56 0;
#X connect 36 0 55 0;
#X connect 37 0 57 0;
#X connect 38 0 52 0;
#X connect 39 0 34 0;
#X connect 40 0 35 0;
#X connect 41 0 36 0;
#X connect 42 0 37 0;
#X connect 43 0 58 0;
#X connect 44 0 59 0;
#X connect 45 0 60 0;
#X connect 46 0 61 0;
#X connect 47 0 53 0;
#X connect 48 0 43 0;
#X connect 49 0 44 0;
#X connect 50 0 45 0;
#X connect 51 0 46 0;
#X connect 52 0 39 0;
#X connect 52 1 40 0;
#X connect 52 2 41 0;
#X connect 52 3 42 0;
#X connect 53 0 48 0;
#X connect 53 1 49 0;
#X connect 53 2 50 0;
#X connect 53 3 51 0;
#X connect 62 0 101 0;
#X connect 63 0 103 0;
#X connect 64 0 102 0;
#X connect 65 0 104 0;
#X connect 66 0 98 0;
#X connect 67 0 62 0;
#X connect 68 0 63 0;
#X connect 69 0 64 0;
#X connect 70 0 65 0;
#X connect 71 0 105 0;
#X connect 72 0 107 0;
#X connect 73 0 106 0;
#X connect 74 0 108 0;
#X connect 75 0 99 0;
#X connect 76 0 71 0;
#X connect 77 0 72 0;
#X connect 78 0 73 0;
#X connect 79 0 74 0;
#X connect 80 0 109 0;
#X connect 81 0 111 0;
#X connect 82 0 110 0;
#X connect 83 0 112 0;
#X connect 84 0 100 0;
#X connect 85 0 80 0;
#X connect 86 0 81 0;
#X connect 87 0 82 0;
#X connect 88 0 83 0;
#X connect 89 0 113 0;
#X connect 90 0 115 0;
#X connect 91 0 114 0;
#X connect 92 0 116 0;
#X connect 93 0 117 0;
#X connect 94 0 89 0;
#X connect 95 0 90 0;
#X connect 96 0 91 0;
#X connect 97 0 92 0;
#X connect 98 0 67 0;
#X connect 98 1 68 0;
#X connect 98 2 69 0;
#X connect 98 3 70 0;
#X connect 99 0 76 0;
#X connect 99 1 77 0;
#X connect 99 2 78 0;
#X connect 99 3 79 0;
#X connect 100 0 85 0;
#X connect 100 1 86 0;
#X connect 100 2 87 0;
#X connect 100 3 88 0;
#X connect 117 0 94 0;
#X connect 117 1 95 0;
#X connect 117 2 96 0;
#X connect 117 3 97 0;
#X connect 118 0 8 0;
#X connect 118 3 119 0;
#X connect 120 0 124 0;
#X connect 121 0 123 0;
#X connect 122 0 126 0;
#X connect 123 0 125 0;
#X connect 124 0 121 0;
#X connect 124 1 122 0;
#X connect 124 2 128 0;
#X connect 126 0 127 0;
#X connect 128 0 129 0;
#X connect 129 0 130 0;
#X connect 131 0 133 0;
#X connect 132 0 135 0;
#X connect 133 0 134 0;
#X connect 135 0 136 0;
#X connect 137 0 162 0;
#X connect 138 0 142 0;
#X connect 140 0 141 0;
#X connect 140 1 138 0;
#X connect 141 0 138 0;
#X connect 142 0 144 0;
#X connect 142 3 145 0;
#X connect 143 0 138 1;
#X connect 143 1 138 2;
#X connect 143 2 140 0;
#X connect 146 0 148 0;
#X connect 147 0 150 0;
#X connect 148 0 149 0;
#X connect 150 0 151 0;
#X connect 152 0 153 0;
#X connect 153 0 146 0;
#X connect 153 1 147 0;
#X connect 153 2 154 0;
#X connect 154 0 155 0;
#X connect 155 0 156 0;
#X connect 157 2 158 0;
#X connect 158 0 159 0;
#X connect 159 0 160 0;
#X connect 161 0 157 0;
#X connect 162 0 131 0;
#X connect 162 1 132 0;
#X connect 162 2 163 0;
#X connect 162 3 164 0;
#X connect 163 0 165 0;
#X connect 164 0 167 0;
#X connect 165 0 166 0;
#X connect 167 0 168 0;
#X restore 14 27 pd MIDI;
#X text 12 334 Robot;
#X text 14 105 Light;
#X text 11 5 Control;
#N canvas 537 352 428 556 AUDIO 0;
#X obj 26 39 loadbang;
#X msg 26 86 \; pd dsp 1;
#X obj 90 499 dac~;
#X msg 86 272 start;
#X msg 55 302 stop;
#X obj 94 234 t b b;
#X obj 93 216 bng 15 250 50 0 empty empty empty 17 7 0 10 #fcfcfc #000000
#000000;
#X obj 105 328 readsf~ 2;
#X obj 55 284 bng 10 250 50 0 empty Stop_Playing_Global STOP 0 -5 0
10 #0400fc #000000 #000000;
#X obj 32 190 t b b;
#X obj 30 61 bng 15 250 50 0 empty 0sec 0sec 17 7 0 10 #fcfcfc #000000
#000000;
#X obj 90 453 *~;
#X obj 108 431 vline~;
#X obj 151 452 *~;
#X obj 169 430 vline~;
#X msg 180 384 1 5000;
#X obj 229 302 bang_at 0;
#X msg 240 384 0 10000;
#X obj 318 301 bang_at 40;
#X msg 145 273 open ./bawiseom.wav;
#X obj 24 134 r sing_bawiseom;
#X obj 32 163 delay 13000;
#X obj 178 349 r sing_bawiseom;
#X obj 266 465 s bawiseom_ends;
#X connect 0 0 1 0;
#X connect 3 0 7 0;
#X connect 4 0 7 0;
#X connect 5 0 3 0;
#X connect 5 1 19 0;
#X connect 6 0 5 0;
#X connect 7 0 11 0;
#X connect 7 1 13 0;
#X connect 7 2 23 0;
#X connect 8 0 4 0;
#X connect 9 0 6 0;
#X connect 9 1 8 0;
#X connect 10 0 1 0;
#X connect 11 0 2 0;
#X connect 12 0 11 1;
#X connect 13 0 2 1;
#X connect 14 0 13 1;
#X connect 15 0 12 0;
#X connect 15 0 14 0;
#X connect 17 0 14 0;
#X connect 17 0 12 0;
#X connect 19 0 7 0;
#X connect 20 0 21 0;
#X connect 21 0 9 0;
#X connect 22 0 15 0;
#X restore 14 77 pd AUDIO;
#X text 14 53 Audio;
#N canvas 82 787 496 176 Global_Transport 1;
#X floatatom 16 130 5 0 0 1 sec. - global_sec 0;
#N canvas 533 215 772 590 time 0;
#X floatatom 367 378 5 0 0 0 - - - 0;
#X msg 398 248 0;
#X text 406 377 sec;
#X obj 365 491 outlet;
#X obj 275 271 / 60;
#X obj 275 298 int;
#X floatatom 104 176 5 0 100 1 min - - 0;
#X floatatom 165 176 5 0 59 1 sec - - 0;
#X obj 325 407 % 60;
#X obj 367 279 f;
#X obj 396 278 + 1;
#X obj 519 216 == 0;
#X obj 480 258 spigot;
#X obj 519 238 tgl 15 0 empty empty empty 17 7 0 10 #fcfcfc #000000
#000000 0 1;
#X obj 190 376 * 60;
#X obj 230 417 +;
#X obj 165 382 bng 15 250 50 0 empty empty empty 17 7 0 10 #fcfcfc
#000000 #000000;
#X floatatom 230 443 5 0 0 0 - - - 0;
#X obj 111 136 tgl 30 0 Global_Play empty PLAY 0 -5 0 15 #00fc04 #000000
#000000 0 1;
#X obj 164 136 bng 30 250 50 0 Stop_Playing_Global empty STOP 0 -5
0 15 #0400fc #000000 #000000;
#X msg 102 67 0;
#X obj 351 29 metro 10;
#X obj 351 55 f;
#X obj 380 54 + 1;
#X floatatom 351 81 5 0 0 1 Global_Step - - 0;
#X obj 351 111 / 100;
#X obj 351 136 int;
#X obj 351 161 change;
#X obj 351 197 bng 15 250 50 0 empty empty empty 17 7 0 10 #fcfcfc
#000000 #000000;
#X msg 455 34 0;
#X obj 557 -22 == 0;
#X obj 518 20 spigot;
#X obj 557 0 tgl 15 0 empty empty empty 17 7 0 10 #fcfcfc #000000 #000000
0 1;
#X obj 503 -7 * 100;
#X obj 485 489 outlet;
#X msg 71 68 1;
#X obj 158 69 t b b;
#X obj 75 34 bang_at 760;
#X connect 0 0 4 0;
#X connect 0 0 8 0;
#X connect 0 0 3 0;
#X connect 1 0 9 1;
#X connect 4 0 5 0;
#X connect 5 0 6 0;
#X connect 6 0 14 0;
#X connect 7 0 15 1;
#X connect 7 0 16 0;
#X connect 8 0 7 0;
#X connect 9 0 10 0;
#X connect 9 0 0 0;
#X connect 10 0 9 1;
#X connect 11 0 13 0;
#X connect 12 0 9 1;
#X connect 13 0 12 1;
#X connect 14 0 15 0;
#X connect 15 0 17 0;
#X connect 16 0 15 0;
#X connect 17 0 12 0;
#X connect 17 0 33 0;
#X connect 18 0 11 0;
#X connect 18 0 21 0;
#X connect 18 0 30 0;
#X connect 19 0 1 0;
#X connect 19 0 20 0;
#X connect 19 0 29 0;
#X connect 20 0 18 0;
#X connect 21 0 22 0;
#X connect 22 0 23 0;
#X connect 22 0 24 0;
#X connect 23 0 22 1;
#X connect 24 0 25 0;
#X connect 24 0 34 0;
#X connect 25 0 26 0;
#X connect 26 0 27 0;
#X connect 27 0 28 0;
#X connect 28 0 9 0;
#X connect 29 0 22 1;
#X connect 30 0 32 0;
#X connect 31 0 22 1;
#X connect 32 0 31 1;
#X connect 33 0 31 0;
#X connect 35 0 18 0;
#X connect 36 1 19 0;
#X connect 37 0 36 0;
#X connect 37 0 35 0;
#X coords 0 -1 1 1 125 100 1 100 100;
#X restore 16 25 pd time;
#X floatatom 134 130 10 0 0 1 Global_Step - Global_Step 0;
#X obj 113 70 tgl 20 0 Global_Control empty G 20 7 0 15 #fcfcfc #000000
#000000 0 1;
#X obj 205 29 loadbang;
#X msg 205 51 1;
#X connect 1 0 0 0;
#X connect 1 1 2 0;
#X connect 4 0 5 0;
#X connect 5 0 3 0;
#X restore 80 27 pd Global_Transport;
#N canvas 160 441 1414 673 light_control_messages 0;
#X obj 60 25 bang_at 0;
#X msg 61 45 1;
#X msg 135 44 2;
#X msg 221 43 1;
#X msg 299 44 2;
#X msg 391 43 3;
#X msg 489 44 0;
#X msg 581 45 4;
#X msg 680 46 5;
#X msg 778 46 4;
#X msg 882 46 6;
#X msg 980 46 7;
#X msg 397 268 8;
#X msg 495 268 9;
#X msg 1012 268 12;
#X msg 914 268 11;
#X msg 697 268 11;
#X msg 598 268 10;
#X msg 810 275 10;
#X msg 401 348 13;
#X msg 499 348 0;
#X obj 134 24 bang_at 8;
#X obj 220 23 bang_at 16;
#X obj 298 24 bang_at 22;
#X obj 390 23 bang_at 25;
#X obj 488 24 bang_at 30;
#X obj 580 25 bang_at 300;
#X obj 679 26 bang_at 312;
#X obj 777 26 bang_at 325;
#X obj 396 249 bang_at 360;
#X obj 494 248 bang_at 370;
#X obj 598 248 bang_at 380;
#X obj 696 248 bang_at 400;
#X obj 809 248 bang_at 420;
#X obj 913 248 bang_at 440;
#X obj 1011 248 bang_at 450;
#X obj 400 328 bang_at 480;
#X obj 498 328 bang_at 600;
#X obj 236 329 s light_control;
#X msg 597 349 1;
#X obj 596 329 bang_at 620;
#X obj 881 26 bang_at 345;
#X obj 979 26 bang_at 345;
#X connect 0 0 1 0;
#X connect 1 0 38 0;
#X connect 2 0 38 0;
#X connect 3 0 38 0;
#X connect 4 0 38 0;
#X connect 5 0 38 0;
#X connect 6 0 38 0;
#X connect 7 0 38 0;
#X connect 8 0 38 0;
#X connect 9 0 38 0;
#X connect 11 0 38 0;
#X connect 12 0 38 0;
#X connect 14 0 38 0;
#X connect 15 0 38 0;
#X connect 16 0 38 0;
#X connect 17 0 38 0;
#X connect 18 0 38 0;
#X connect 19 0 38 0;
#X connect 20 0 38 0;
#X connect 21 0 2 0;
#X connect 22 0 3 0;
#X connect 23 0 4 0;
#X connect 24 0 5 0;
#X connect 25 0 6 0;
#X connect 26 0 7 0;
#X connect 27 0 8 0;
#X connect 28 0 9 0;
#X connect 29 0 12 0;
#X connect 30 0 13 0;
#X connect 31 0 17 0;
#X connect 32 0 16 0;
#X connect 33 0 18 0;
#X connect 34 0 15 0;
#X connect 35 0 14 0;
#X connect 36 0 19 0;
#X connect 37 0 20 0;
#X connect 39 0 38 0;
#X connect 40 0 39 0;
#X connect 41 0 10 0;
#X connect 42 0 11 0;
#X restore 15 176 pd light_control_messages;
#N canvas 105 439 1805 720 Xbee_commands 0;
#X msg 1529 621 \; xbee_command 255 11 1;
#X msg 1530 668 \; xbee_command 255 11 0;
#X msg 1433 317 \; xbee_command 255 12 1;
#X msg 1432 356 \; xbee_command 255 12 2;
#X msg 1436 272 \; xbee_command 255 12 0;
#X msg 1433 395 \; xbee_command 255 12 3;
#X msg 1432 433 \; xbee_command 255 12 4;
#X text 1436 243 Fan Light;
#X text 1531 592 Windbell and Landscape;
#X text 1602 443 middle;
#X text 1606 278 STOP;
#X text 1604 405 Left Low;
#X text 1602 363 Left Top;
#X text 1606 326 Top;
#X msg 1178 296 \; xbee_command 255 6 1;
#X msg 1179 257 \; xbee_command 255 6 0;
#X msg 1179 336 \; xbee_command 255 6 2;
#X text 1152 222 Nael;
#X text 1122 760 Ochetuji;
#X msg 1128 792 \; xbee_command 255 8 0;
#X msg 1126 831 \; xbee_command 255 8 1;
#X msg 1128 872 \; xbee_command 255 8 2;
#X text 1343 265 default;
#X text 1349 299 play;
#X text 1351 337 Stop;
#X obj 1138 256 t b b;
#X obj 1137 227 bng 15 250 50 0 empty empty empty 17 7 0 10 #fcfcfc
#000000 #000000;
#X msg 234 257 \; xbee_command 255 1 0;
#X msg 231 302 \; xbee_command 255 1 1;
#X msg 230 341 \; xbee_command 255 1 2;
#X msg 231 380 \; xbee_command 255 1 3;
#X msg 230 418 \; xbee_command 255 1 4;
#X msg 234 467 \; xbee_command 255 1 5;
#X msg 231 512 \; xbee_command 255 1 6;
#X msg 230 551 \; xbee_command 255 1 7;
#X msg 231 590 \; xbee_command 255 1 8;
#X msg 230 628 \; xbee_command 255 1 9;
#X text 112 245 Home;
#X text 76 287 Play normal speed;
#X text 161 320 Stop;
#X text 81 378 Play slow speed;
#X text 79 429 Normal profile;
#X text 76 474 low profile;
#X text 76 518 high profile;
#X text 19 540 stop at sensor position;
#X text 94 590 collapse;
#X text 91 631 stand up;
#X text 261 215 Ladder1;
#X text 433 211 Ladder2;
#X msg 414 257 \; xbee_command 255 2 0;
#X msg 411 302 \; xbee_command 255 2 1;
#X msg 410 341 \; xbee_command 255 2 2;
#X msg 411 380 \; xbee_command 255 2 3;
#X msg 410 418 \; xbee_command 255 2 4;
#X msg 413 467 \; xbee_command 255 2 5;
#X msg 411 512 \; xbee_command 255 2 6;
#X msg 410 551 \; xbee_command 255 2 7;
#X msg 411 590 \; xbee_command 255 2 8;
#X msg 410 628 \; xbee_command 255 2 9;
#X text 622 215 Ladder3;
#X text 794 211 Ladder4;
#X msg 595 257 \; xbee_command 255 3 0;
#X msg 592 302 \; xbee_command 255 3 1;
#X msg 591 341 \; xbee_command 255 3 2;
#X msg 592 380 \; xbee_command 255 3 3;
#X msg 591 418 \; xbee_command 255 3 4;
#X msg 595 467 \; xbee_command 255 3 5;
#X msg 592 512 \; xbee_command 255 3 6;
#X msg 591 551 \; xbee_command 255 3 7;
#X msg 591 590 \; xbee_command 255 3 8;
#X msg 591 628 \; xbee_command 255 3 9;
#X msg 775 257 \; xbee_command 255 4 0;
#X msg 772 302 \; xbee_command 255 4 1;
#X msg 771 341 \; xbee_command 255 4 2;
#X msg 772 380 \; xbee_command 255 4 3;
#X msg 771 418 \; xbee_command 255 4 4;
#X msg 774 467 \; xbee_command 255 4 5;
#X msg 772 512 \; xbee_command 255 4 6;
#X msg 771 551 \; xbee_command 255 4 7;
#X msg 772 590 \; xbee_command 255 4 8;
#X msg 771 628 \; xbee_command 255 4 9;
#X text 974 223 Ladder5;
#X msg 947 258 \; xbee_command 255 5 0;
#X msg 944 303 \; xbee_command 255 5 1;
#X msg 943 342 \; xbee_command 255 5 2;
#X msg 944 381 \; xbee_command 255 5 3;
#X msg 943 419 \; xbee_command 255 5 4;
#X msg 947 468 \; xbee_command 255 5 5;
#X msg 944 513 \; xbee_command 255 5 6;
#X msg 943 552 \; xbee_command 255 5 7;
#X msg 943 591 \; xbee_command 255 5 8;
#X msg 943 629 \; xbee_command 255 5 9;
#X obj 153 247 bng 15 250 50 0 empty empty empty 17 7 0 10 #fcfcfc
#000000 #000000;
#X text 1294 797 Bow;
#X text 1293 831 Stop;
#X text 1294 879 Bawiseom;
#X obj 1366 872 t b b;
#X obj 206 288 bng 15 250 50 0 empty empty empty 17 7 0 10 #fcfcfc
#000000 #000000;
#X obj 200 327 bng 15 250 50 0 empty empty empty 17 7 0 10 #fcfcfc
#000000 #000000;
#X obj 1346 817 t b b;
#X obj 1344 796 bng 15 250 50 0 empty empty empty 17 7 0 10 #fcfcfc
#000000 #000000;
#X obj 1410 873 bng 15 250 50 0 empty empty empty 17 7 0 10 #fcfcfc
#000000 #000000;
#X obj 10 273 bng 15 250 50 0 empty empty empty 17 7 0 10 #fcfcfc #000000
#000000;
#X obj 189 539 bng 15 250 50 0 empty empty empty 17 7 0 10 #fcfcfc
#000000 #000000;
#X obj 1577 857 * 5200;
#X msg 1571 826 50;
#X floatatom 1572 885 10 0 0 0 - - - 0;
#X floatatom 1580 951 5 0 0 0 - - - 0;
#X obj 1578 920 / 60000;
#X text 1708 637 On;
#X text 1708 681 Off;
#X obj 38 317 bang_at 10;
#X obj 1409 844 bang_at 10;
#X obj 15 243 bang_at 620;
#X obj 1247 599 bang_at 200;
#X obj 54 354 bang_at 210;
#X obj 1255 649 bang_at 278;
#X obj 1134 195 bang_at 400;
#X obj 1337 598 bang_at 420;
#X obj 1340 648 bang_at 550;
#X obj 1426 598 bang_at 670;
#X obj 1429 643 bang_at 750;
#X connect 25 0 14 0;
#X connect 25 1 16 0;
#X connect 26 0 25 0;
#X connect 92 0 27 0;
#X connect 92 0 49 0;
#X connect 92 0 61 0;
#X connect 92 0 71 0;
#X connect 92 0 82 0;
#X connect 96 0 21 0;
#X connect 96 1 20 0;
#X connect 97 0 28 0;
#X connect 97 0 50 0;
#X connect 97 0 62 0;
#X connect 97 0 72 0;
#X connect 97 0 83 0;
#X connect 98 0 29 0;
#X connect 98 0 51 0;
#X connect 98 0 63 0;
#X connect 98 0 73 0;
#X connect 98 0 84 0;
#X connect 99 0 19 0;
#X connect 99 1 20 0;
#X connect 100 0 99 0;
#X connect 101 0 96 0;
#X connect 102 0 97 0;
#X connect 103 0 34 0;
#X connect 103 0 56 0;
#X connect 103 0 68 0;
#X connect 103 0 78 0;
#X connect 103 0 89 0;
#X connect 104 0 106 0;
#X connect 105 0 104 0;
#X connect 106 0 108 0;
#X connect 108 0 107 0;
#X connect 111 0 98 0;
#X connect 112 0 101 0;
#X connect 113 0 102 0;
#X connect 114 0 0 0;
#X connect 115 0 30 0;
#X connect 115 0 28 0;
#X connect 116 0 1 0;
#X connect 117 0 26 0;
#X connect 118 0 0 0;
#X connect 119 0 1 0;
#X connect 120 0 0 0;
#X connect 121 0 1 0;
#X restore 14 359 pd Xbee_commands;
#X obj 134 643 s sing_bawiseom;
#X obj 134 622 bng 15 250 50 0 empty empty empty 17 7 0 10 #fcfcfc
#000000 #000000;
#X obj 516 662 bng 15 250 50 0 empty empty empty 17 7 0 10 #fcfcfc
#000000 #000000;
#X obj 516 683 s start_journey;
#X msg 123 390 devices;
#X obj 144 574 print;
#X obj 133 423 comport 0 9600;
#X obj 14 388 r xbee_command;
#X obj 133 550 route 255;
#X msg 165 496 zlclear;
#X obj 165 472 sel 255;
#X obj 133 447 t a a;
#X obj 133 525 zl group 2;
#X msg 135 672 sing bawiseom;
#X obj 135 695 print;
#X msg 136 283 devices;
#X msg 256 280 close;
#X obj 198 205 loadbang;
#X obj 199 227 delay 5000;
#X obj 102 256 r light_dmx;
#X text 60 106 add path /Users/youkwak/Documents/GitHub/MMCA_2023/PD/Light
, f 79;
#X obj 134 599 sel 8 9;
#X obj 263 694 print;
#X msg 263 671 BMI270 Error \, Restart Ochetuji!!!;
#X obj 136 311 comport 1 57600;
#X obj 91 283 bng 15 250 50 0 empty empty empty 17 7 0 10 #fcfcfc #000000
#000000;
#X obj 204 599 bang_at 10;
#X msg 199 259 open 0;
#X msg 182 390 open 1;
#X msg 251 391 close;
#X connect 12 0 11 0;
#X connect 12 0 24 0;
#X connect 13 0 14 0;
#X connect 15 0 17 0;
#X connect 17 0 22 0;
#X connect 18 0 17 0;
#X connect 19 0 16 0;
#X connect 19 0 32 0;
#X connect 20 0 23 0;
#X connect 21 0 20 0;
#X connect 22 0 23 0;
#X connect 22 1 21 0;
#X connect 23 0 19 0;
#X connect 24 0 25 0;
#X connect 26 0 35 0;
#X connect 27 0 35 0;
#X connect 28 0 29 0;
#X connect 30 0 35 0;
#X connect 30 0 36 0;
#X connect 32 0 12 0;
#X connect 32 1 34 0;
#X connect 34 0 33 0;
#X connect 37 0 12 0;
#X connect 38 0 35 0;
#X connect 39 0 17 0;
#X connect 40 0 17 0;
