#N canvas 626 90 1330 785 12;
#X obj 45 47 netreceive -u -b 2000;
#X obj 41 183 print;
#X obj 46 70 sel 0;
#X msg 42 156 Motor Over-tempature detected;
#X obj 338 157 osc~ 880;
#X msg 437 41 \; pd dsp 1;
#X obj 321 294 dac~ 1 2;
#X obj 339 252 *~;
#X obj 384 189 vsl 8 50 0 1 0 0 empty empty empty 0 -9 0 10 #fcfcfc
#000000 #000000 0 1;
#X obj 488 224 f;
#X obj 523 225 + 1;
#X obj 488 134 tgl 15 0 empty empty empty 17 7 0 10 #fcfcfc #000000
#000000 0 1;
#X floatatom 487 254 5 0 0 0 - - - 0;
#X obj 487 278 % 2;
#X floatatom 487 306 5 0 0 0 - - - 0;
#X floatatom 553 131 5 0 0 0 - - - 0;
#X obj 488 161 metro 120;
#X obj 47 107 t b b;
#X msg 475 110 1;
#X msg 476 87 0;
#X obj 436 14 loadbang;
#X connect 0 0 2 0;
#X connect 2 0 17 0;
#X connect 3 0 1 0;
#X connect 4 0 7 0;
#X connect 7 0 6 0;
#X connect 8 0 7 1;
#X connect 9 0 10 0;
#X connect 9 0 12 0;
#X connect 10 0 9 1;
#X connect 11 0 16 0;
#X connect 12 0 13 0;
#X connect 13 0 14 0;
#X connect 14 0 8 0;
#X connect 15 0 16 1;
#X connect 16 0 9 0;
#X connect 17 0 3 0;
#X connect 17 1 18 0;
#X connect 18 0 11 0;
#X connect 19 0 11 0;
#X connect 19 0 8 0;
#X connect 20 0 5 0;
