#N struct g3 float x float y float q;
#N struct g2 float x float y float q;
#N struct g1 float x float y float q;
#N canvas 535 51 731 553 12;
#N canvas 513 511 546 284 DMX 1;
#X obj 20 70 metro 100;
#X obj 20 49 tgl 15 0 empty empty empty 17 7 0 10 -262144 -1 -1 1 1
;
#X text 44 47 2 start clock;
#X text 165 9 1 Open Comport;
#N canvas 1210 225 478 604 DMX_data_serial 0;
#X obj 39 306 list prepend 255;
#X obj 39 331 list append 254;
#X obj 38 293 bng 8 250 50 0 empty empty empty 17 7 0 10 -262144 -1
-1;
#X text 121 267 bus 1;
#X text 7 11 control bus;
#X text 30 33 1;
#X msg 228 342 devices;
#X obj 39 432 prepend set;
#X msg 39 456 255 1 4 0 0 110 0 254;
#X msg 348 339 close;
#X obj 78 33 RGBW 1 4 1 1;
#X obj 22 268 r RGBW-OUT-1;
#X obj 78 59 RGBW 5 4 2 1;
#X obj 78 85 RGBW 9 4 3 1;
#X obj 79 111 RGBW 13 4 4 1;
#X obj 78 139 RGBW 17 4 5 1;
#X obj 80 165 RGBW 21 4 6 1;
#X obj 80 190 RGBW 25 4 7 1;
#X obj 80 215 RGBW 29 4 8 1;
#X text 38 479 255 \, DMX_address \, n_channel \, control_1 \, control_2
\, control_3 \, control_4 \, 254, f 80;
#X obj 54 357 print;
#X obj 241 32 RGBW 33 4 9 1;
#X text 197 32 9;
#X msg 291 318 open 2;
#X obj 228 370 comport 2 57600;
#X obj 290 264 loadbang;
#X obj 291 292 delay 5000;
#X connect 0 0 1 0;
#X connect 1 0 7 0;
#X connect 1 0 24 0;
#X connect 6 0 24 0;
#X connect 7 0 8 0;
#X connect 9 0 24 0;
#X connect 11 0 2 0;
#X connect 11 0 0 0;
#X connect 23 0 24 0;
#X connect 25 0 26 0;
#X connect 26 0 23 0;
#X restore 16 7 pd DMX_data_serial;
#X obj 212 35 loadbang;
#X obj 213 69 delay 2000;
#X msg 213 95 1;
#X obj 20 95 s light_clock;
#X connect 0 0 8 0;
#X connect 1 0 0 0;
#X connect 5 0 6 0;
#X connect 6 0 7 0;
#X connect 7 0 1 0;
#X restore 14 161 pd DMX;
#X obj 14 83 Ladderbot03;
#N canvas 1053 241 852 798 Mixer_New 1;
#X obj 7 15 PresetManager 1;
#X obj 6 116 vsl_pre 1 1 1;
#X obj 105 116 vsl_pre 1 2 1;
#X obj 204 117 vsl_pre 1 3 1;
#X obj 303 117 vsl_pre 1 4 1;
#X obj 431 117 vsl_pre 1 5 2;
#X obj 530 117 vsl_pre 1 6 2;
#X obj 629 118 vsl_pre 1 7 2;
#X obj 728 118 vsl_pre 1 8 2;
#X obj 7 291 vsl_pre 1 9 3;
#X obj 106 291 vsl_pre 1 10 3;
#X obj 205 292 vsl_pre 1 11 3;
#X obj 304 292 vsl_pre 1 12 3;
#X obj 432 292 vsl_pre 1 13 4;
#X obj 531 292 vsl_pre 1 14 4;
#X obj 630 293 vsl_pre 1 15 4;
#X obj 729 293 vsl_pre 1 16 4;
#X obj 6 92 r c1_s1_1;
#X obj 105 93 r c1_s1_2;
#X obj 204 94 r c1_s1_3;
#X obj 303 95 r c1_s1_4;
#X obj 431 94 r c1_s2_1;
#X obj 530 95 r c1_s2_2;
#X obj 629 95 r c1_s2_3;
#X obj 728 96 r c1_s2_4;
#X obj 8 267 r c1_s3_1;
#X obj 107 268 r c1_s3_2;
#X obj 206 269 r c1_s3_3;
#X obj 305 270 r c1_s3_4;
#X obj 433 269 r c1_s4_1;
#X obj 532 270 r c1_s4_2;
#X obj 631 270 r c1_s4_3;
#X obj 730 271 r c1_s4_4;
#X obj 5 435 r c1_s5_1;
#X obj 104 436 r c1_s5_2;
#X obj 203 437 r c1_s5_3;
#X obj 302 438 r c1_s5_4;
#X obj 430 437 r c1_s6_1;
#X obj 529 438 r c1_s6_2;
#X obj 628 438 r c1_s6_3;
#X obj 727 439 r c1_s6_4;
#X obj 7 610 r c1_s7_1;
#X obj 106 611 r c1_s7_2;
#X obj 205 612 r c1_s7_3;
#X obj 304 613 r c1_s7_4;
#X obj 432 612 r c1_s8_1;
#X obj 531 613 r c1_s8_2;
#X obj 630 613 r c1_s8_3;
#X obj 729 614 r c1_s8_4;
#X obj 5 459 vsl_pre 1 17 5;
#X obj 104 459 vsl_pre 1 18 5;
#X obj 203 460 vsl_pre 1 19 5;
#X obj 302 460 vsl_pre 1 20 5;
#X obj 430 460 vsl_pre 1 21 6;
#X obj 529 460 vsl_pre 1 22 6;
#X obj 628 461 vsl_pre 1 23 6;
#X obj 727 461 vsl_pre 1 24 6;
#X obj 6 634 vsl_pre 1 25 7;
#X obj 105 634 vsl_pre 1 26 7;
#X obj 204 635 vsl_pre 1 27 7;
#X obj 303 635 vsl_pre 1 28 7;
#X obj 431 635 vsl_pre 1 29 8;
#X obj 530 635 vsl_pre 1 30 8;
#X obj 629 636 vsl_pre 1 31 8;
#X obj 728 636 vsl_pre 1 32 8;
#X connect 17 0 1 0;
#X connect 18 0 2 0;
#X connect 19 0 3 0;
#X connect 20 0 4 0;
#X connect 21 0 5 0;
#X connect 22 0 6 0;
#X connect 23 0 7 0;
#X connect 24 0 8 0;
#X connect 25 0 9 0;
#X connect 26 0 10 0;
#X connect 27 0 11 0;
#X connect 28 0 12 0;
#X connect 29 0 13 0;
#X connect 30 0 14 0;
#X connect 31 0 15 0;
#X connect 32 0 16 0;
#X connect 33 0 49 0;
#X connect 34 0 50 0;
#X connect 35 0 51 0;
#X connect 36 0 52 0;
#X connect 37 0 53 0;
#X connect 38 0 54 0;
#X connect 39 0 55 0;
#X connect 40 0 56 0;
#X connect 41 0 57 0;
#X connect 42 0 58 0;
#X connect 43 0 59 0;
#X connect 44 0 60 0;
#X connect 45 0 61 0;
#X connect 46 0 62 0;
#X connect 47 0 63 0;
#X connect 48 0 64 0;
#X restore 14 185 pd Mixer_New;
#N canvas 255 431 1665 498 MIDI 0;
#X obj 84 2 ctlin;
#X obj 46 84 pack f f f;
#X text 146 108 channel;
#X obj 2 351 s c1_s1_1;
#X floatatom 2 328 5 0 0 0 - - -;
#X floatatom 39 375 5 0 0 0 - - -;
#X floatatom 77 328 5 0 0 0 - - -;
#X floatatom 115 375 5 0 0 0 - - -;
#X obj 46 133 s ch1;
#X obj 43 32 t b f;
#X obj 16 55 delay 1;
#X obj 2 260 r ch1;
#X obj 2 282 route 13 29 49 77, f 22;
#X obj 2 306 sc1;
#X obj 39 306 sc1;
#X obj 77 305 sc1;
#X obj 115 306 sc1;
#X floatatom 188 328 5 0 0 0 - - -;
#X floatatom 225 375 5 0 0 0 - - -;
#X floatatom 263 328 5 0 0 0 - - -;
#X floatatom 301 375 5 0 0 0 - - -;
#X obj 188 260 r ch1;
#X obj 188 306 sc1;
#X obj 225 306 sc1;
#X obj 263 305 sc1;
#X obj 301 306 sc1;
#X obj 188 282 route 14 30 50 78, f 22;
#X obj 39 398 s c1_s1_2;
#X obj 77 351 s c1_s1_3;
#X obj 115 398 s c1_s1_4;
#X obj 188 351 s c1_s2_1;
#X obj 225 398 s c1_s2_2;
#X obj 263 351 s c1_s2_3;
#X obj 301 398 s c1_s2_4;
#X floatatom 372 329 5 0 0 0 - - -;
#X floatatom 409 376 5 0 0 0 - - -;
#X floatatom 447 329 5 0 0 0 - - -;
#X floatatom 485 376 5 0 0 0 - - -;
#X obj 372 261 r ch1;
#X obj 372 307 sc1;
#X obj 409 307 sc1;
#X obj 447 306 sc1;
#X obj 485 307 sc1;
#X floatatom 558 329 5 0 0 0 - - -;
#X floatatom 595 376 5 0 0 0 - - -;
#X floatatom 633 329 5 0 0 0 - - -;
#X floatatom 671 376 5 0 0 0 - - -;
#X obj 558 261 r ch1;
#X obj 558 307 sc1;
#X obj 595 307 sc1;
#X obj 633 306 sc1;
#X obj 671 307 sc1;
#X obj 372 283 route 15 31 51 79, f 22;
#X obj 558 283 route 16 32 52 80, f 22;
#X obj 372 352 s c1_s3_1;
#X obj 447 352 s c1_s3_3;
#X obj 409 399 s c1_s3_2;
#X obj 485 399 s c1_s3_4;
#X obj 558 352 s c1_s4_1;
#X obj 595 399 s c1_s4_2;
#X obj 633 352 s c1_s4_3;
#X obj 671 399 s c1_s4_4;
#X floatatom 740 328 5 0 0 0 - - -;
#X floatatom 777 375 5 0 0 0 - - -;
#X floatatom 815 328 5 0 0 0 - - -;
#X floatatom 853 375 5 0 0 0 - - -;
#X obj 740 260 r ch1;
#X obj 740 306 sc1;
#X obj 777 306 sc1;
#X obj 815 305 sc1;
#X obj 853 306 sc1;
#X floatatom 926 328 5 0 0 0 - - -;
#X floatatom 963 375 5 0 0 0 - - -;
#X floatatom 1001 328 5 0 0 0 - - -;
#X floatatom 1039 375 5 0 0 0 - - -;
#X obj 926 260 r ch1;
#X obj 926 306 sc1;
#X obj 963 306 sc1;
#X obj 1001 305 sc1;
#X obj 1039 306 sc1;
#X floatatom 1110 329 5 0 0 0 - - -;
#X floatatom 1147 376 5 0 0 0 - - -;
#X floatatom 1185 329 5 0 0 0 - - -;
#X floatatom 1223 376 5 0 0 0 - - -;
#X obj 1110 261 r ch1;
#X obj 1110 307 sc1;
#X obj 1147 307 sc1;
#X obj 1185 306 sc1;
#X obj 1223 307 sc1;
#X floatatom 1296 329 5 0 0 0 - - -;
#X floatatom 1333 376 5 0 0 0 - - -;
#X floatatom 1371 329 5 0 0 0 - - -;
#X floatatom 1409 376 5 0 0 0 - - -;
#X obj 1296 261 r ch1;
#X obj 1296 307 sc1;
#X obj 1333 307 sc1;
#X obj 1371 306 sc1;
#X obj 1409 307 sc1;
#X obj 740 282 route 17 33 53 81, f 22;
#X obj 926 282 route 18 34 54 82, f 22;
#X obj 1110 283 route 19 35 55 83, f 22;
#X obj 740 351 s c1_s5_1;
#X obj 815 351 s c1_s5_3;
#X obj 777 398 s c1_s5_2;
#X obj 853 397 s c1_s5_4;
#X obj 926 351 s c1_s6_1;
#X obj 1001 351 s c1_s6_3;
#X obj 963 398 s c1_s6_2;
#X obj 1039 398 s c1_s6_4;
#X obj 1110 352 s c1_s7_1;
#X obj 1185 352 s c1_s7_3;
#X obj 1147 399 s c1_s7_2;
#X obj 1223 399 s c1_s7_4;
#X obj 1296 352 s c1_s8_1;
#X obj 1371 352 s c1_s8_3;
#X obj 1333 399 s c1_s8_2;
#X obj 1409 399 s c1_s8_4;
#X obj 1296 283 route 20 36 56 84, f 22;
#X obj 46 108 route 1 2 3 9;
#X obj 112 132 s ch9;
#X obj 501 35 r ch9;
#X obj 501 83 change;
#X obj 553 83 change;
#X obj 501 108 sel 127;
#X obj 501 59 route 106 107 105, f 22;
#X obj 501 131 bng 15 250 50 0 ts1 empty ts1 17 7 0 10 -262144 -1 -1
;
#X obj 557 108 sel 127;
#X obj 557 131 bng 15 250 50 0 ts2 empty ts2 17 7 0 10 -262144 -1 -1
;
#X obj 613 82 change;
#X obj 613 108 sel 127;
#X obj 613 131 bng 15 250 50 0 device empty device 17 7 0 10 -262144
-1 -1;
#X obj 697 81 change;
#X obj 749 81 change;
#X obj 697 106 sel 127;
#X obj 697 129 bng 15 250 50 0 ts1_ch1 empty ts1_ch1 17 7 0 10 -262144
-1 -1;
#X obj 753 106 sel 127;
#X obj 753 129 bng 15 250 50 0 ts2_ch1 empty ts2_ch1 17 7 0 10 -262144
-1 -1;
#X obj 697 33 r ch1;
#X obj 257 100 pack f f f;
#X text 357 124 channel;
#X obj 254 48 t b f;
#X obj 227 71 delay 1;
#X obj 257 124 route 1 2 3 9;
#X obj 340 16 notein;
#X obj 257 149 s ch1_note;
#X obj 375 152 s ch9_note;
#X obj 955 74 change;
#X obj 1052 76 change;
#X obj 955 99 sel 127;
#X obj 955 122 bng 15 250 50 0 ts1_ch1_note empty ts1_ch1_note 17 7
0 10 -262144 -1 -1;
#X obj 1056 101 sel 127;
#X obj 1056 124 bng 15 250 50 0 ts2_ch1_note empty ts2_ch1_note 17
7 0 10 -262144 -1 -1;
#X obj 955 26 r ch1_note;
#X obj 955 50 route 107 108 105, f 22;
#X obj 1155 76 change;
#X obj 1155 102 sel 127;
#X obj 1155 125 bng 15 250 50 0 device_ch1 empty device_ch1 17 7 0
10 -262144 -1 -1;
#X obj 1226 65 route 107 108 105, f 22;
#X obj 1327 91 change;
#X obj 1327 117 sel 127;
#X obj 1327 140 bng 15 250 50 0 device_ch9_note empty device_ch1 17
7 0 10 -262144 -1 -1;
#X obj 1226 41 r ch9_note;
#X obj 697 57 route 106 107 104 105, f 22;
#X obj 816 85 change;
#X obj 868 85 change;
#X obj 816 110 sel 127;
#X obj 816 133 bng 15 250 50 0 ts3_ch1 empty ts3_ch1 17 7 0 10 -262144
-1 -1;
#X obj 872 110 sel 127;
#X obj 872 133 bng 15 250 50 0 ts4_ch1 empty ts4_ch1 17 7 0 10 -262144
-1 -1;
#X connect 0 0 1 2;
#X connect 0 1 1 1;
#X connect 0 2 9 0;
#X connect 1 0 118 0;
#X connect 4 0 3 0;
#X connect 5 0 27 0;
#X connect 6 0 28 0;
#X connect 7 0 29 0;
#X connect 9 0 10 0;
#X connect 9 1 1 0;
#X connect 10 0 1 0;
#X connect 11 0 12 0;
#X connect 12 0 13 0;
#X connect 12 1 14 0;
#X connect 12 2 15 0;
#X connect 12 3 16 0;
#X connect 13 0 4 0;
#X connect 14 0 5 0;
#X connect 15 0 6 0;
#X connect 16 0 7 0;
#X connect 17 0 30 0;
#X connect 18 0 31 0;
#X connect 19 0 32 0;
#X connect 20 0 33 0;
#X connect 21 0 26 0;
#X connect 22 0 17 0;
#X connect 23 0 18 0;
#X connect 24 0 19 0;
#X connect 25 0 20 0;
#X connect 26 0 22 0;
#X connect 26 1 23 0;
#X connect 26 2 24 0;
#X connect 26 3 25 0;
#X connect 34 0 54 0;
#X connect 35 0 56 0;
#X connect 36 0 55 0;
#X connect 37 0 57 0;
#X connect 38 0 52 0;
#X connect 39 0 34 0;
#X connect 40 0 35 0;
#X connect 41 0 36 0;
#X connect 42 0 37 0;
#X connect 43 0 58 0;
#X connect 44 0 59 0;
#X connect 45 0 60 0;
#X connect 46 0 61 0;
#X connect 47 0 53 0;
#X connect 48 0 43 0;
#X connect 49 0 44 0;
#X connect 50 0 45 0;
#X connect 51 0 46 0;
#X connect 52 0 39 0;
#X connect 52 1 40 0;
#X connect 52 2 41 0;
#X connect 52 3 42 0;
#X connect 53 0 48 0;
#X connect 53 1 49 0;
#X connect 53 2 50 0;
#X connect 53 3 51 0;
#X connect 62 0 101 0;
#X connect 63 0 103 0;
#X connect 64 0 102 0;
#X connect 65 0 104 0;
#X connect 66 0 98 0;
#X connect 67 0 62 0;
#X connect 68 0 63 0;
#X connect 69 0 64 0;
#X connect 70 0 65 0;
#X connect 71 0 105 0;
#X connect 72 0 107 0;
#X connect 73 0 106 0;
#X connect 74 0 108 0;
#X connect 75 0 99 0;
#X connect 76 0 71 0;
#X connect 77 0 72 0;
#X connect 78 0 73 0;
#X connect 79 0 74 0;
#X connect 80 0 109 0;
#X connect 81 0 111 0;
#X connect 82 0 110 0;
#X connect 83 0 112 0;
#X connect 84 0 100 0;
#X connect 85 0 80 0;
#X connect 86 0 81 0;
#X connect 87 0 82 0;
#X connect 88 0 83 0;
#X connect 89 0 113 0;
#X connect 90 0 115 0;
#X connect 91 0 114 0;
#X connect 92 0 116 0;
#X connect 93 0 117 0;
#X connect 94 0 89 0;
#X connect 95 0 90 0;
#X connect 96 0 91 0;
#X connect 97 0 92 0;
#X connect 98 0 67 0;
#X connect 98 1 68 0;
#X connect 98 2 69 0;
#X connect 98 3 70 0;
#X connect 99 0 76 0;
#X connect 99 1 77 0;
#X connect 99 2 78 0;
#X connect 99 3 79 0;
#X connect 100 0 85 0;
#X connect 100 1 86 0;
#X connect 100 2 87 0;
#X connect 100 3 88 0;
#X connect 117 0 94 0;
#X connect 117 1 95 0;
#X connect 117 2 96 0;
#X connect 117 3 97 0;
#X connect 118 0 8 0;
#X connect 118 3 119 0;
#X connect 120 0 124 0;
#X connect 121 0 123 0;
#X connect 122 0 126 0;
#X connect 123 0 125 0;
#X connect 124 0 121 0;
#X connect 124 1 122 0;
#X connect 124 2 128 0;
#X connect 126 0 127 0;
#X connect 128 0 129 0;
#X connect 129 0 130 0;
#X connect 131 0 133 0;
#X connect 132 0 135 0;
#X connect 133 0 134 0;
#X connect 135 0 136 0;
#X connect 137 0 162 0;
#X connect 138 0 142 0;
#X connect 140 0 141 0;
#X connect 140 1 138 0;
#X connect 141 0 138 0;
#X connect 142 0 144 0;
#X connect 142 3 145 0;
#X connect 143 0 138 1;
#X connect 143 1 138 2;
#X connect 143 2 140 0;
#X connect 146 0 148 0;
#X connect 147 0 150 0;
#X connect 148 0 149 0;
#X connect 150 0 151 0;
#X connect 152 0 153 0;
#X connect 153 0 146 0;
#X connect 153 1 147 0;
#X connect 153 2 154 0;
#X connect 154 0 155 0;
#X connect 155 0 156 0;
#X connect 157 2 158 0;
#X connect 158 0 159 0;
#X connect 159 0 160 0;
#X connect 161 0 157 0;
#X connect 162 0 131 0;
#X connect 162 1 132 0;
#X connect 162 2 163 0;
#X connect 162 3 164 0;
#X connect 163 0 165 0;
#X connect 164 0 167 0;
#X connect 165 0 166 0;
#X connect 167 0 168 0;
#X restore 14 27 pd MIDI;
#X obj 14 241 VLC;
#X text 12 61 Robot;
#X obj 14 108 SufiRobot;
#X text 12 218 Video;
#X text 12 138 Light;
#X text 11 5 Control;
#X text 71 160 add path /Users/youkwak/Desktop/2021_SimpleThoughts/PD/SimpleThoughts02/Light
, f 79;
#N canvas 118 25 1322 779 AUDIO 0;
#X obj 26 39 loadbang;
#X msg 26 86 \; pd dsp 1;
#X obj 69 776 dac~;
#X obj 82 1019 dac~;
#X msg 62 937 start;
#X msg 31 967 stop;
#X obj 70 899 t b b;
#X obj 69 879 bng 15 250 50 0 empty empty empty 17 7 0 10 -262144 -1
-1;
#X floatatom 72 822 5 0 0 1 sec. global_sec -;
#X obj 81 993 readsf~ 2;
#X obj 72 850 sel 2295;
#X obj 37 949 bng 10 250 50 0 empty Stop_Playing_Global STOP 0 -5 0
10 -4160 -1 -1;
#X obj 1033 1276 dac~;
#X msg 1013 1194 start;
#X msg 982 1224 stop;
#X obj 1021 1156 t b b;
#X obj 1020 1136 bng 15 250 50 0 empty empty empty 17 7 0 10 -262144
-1 -1;
#X floatatom 1023 1079 5 0 0 1 sec. global_sec -;
#X obj 1032 1250 readsf~ 2;
#X obj 988 1206 bng 10 250 50 0 empty Stop_Playing_Global STOP 0 -5
0 10 -4160 -1 -1;
#X msg 1072 1195 open ./Audio/Scene09_01.wav;
#X obj 1113 1121 bng 15 250 50 0 empty scene9_start_bang scene9_start_bang
17 7 0 10 -262144 -1 -1;
#X obj 364 1278 dac~;
#X msg 344 1196 start;
#X msg 313 1226 stop;
#X obj 352 1158 t b b;
#X obj 351 1140 bng 15 250 50 0 empty empty empty 17 7 0 10 -262144
-1 -1;
#X floatatom 354 1083 5 0 0 1 sec. global_sec -;
#X obj 363 1252 readsf~ 2;
#X obj 319 1208 bng 10 250 50 0 empty Stop_Playing_Global STOP 0 -5
0 10 -4160 -1 -1;
#X obj 372 779 dac~;
#X obj 762 1023 dac~;
#X msg 742 941 start;
#X msg 711 971 stop;
#X obj 750 903 t b b;
#X obj 749 883 bng 15 250 50 0 empty empty empty 17 7 0 10 -262144
-1 -1;
#X floatatom 752 826 5 0 0 1 sec. global_sec -;
#X obj 761 997 readsf~ 2;
#X obj 717 953 bng 10 250 50 0 empty Stop_Playing_Global STOP 0 -5
0 10 -4160 -1 -1;
#X obj 354 1111 sel 2790;
#X obj 370 1027 dac~;
#X msg 350 945 start;
#X msg 319 975 stop;
#X obj 358 907 t b b;
#X obj 357 887 bng 15 250 50 0 empty empty empty 17 7 0 10 -262144
-1 -1;
#X floatatom 360 830 5 0 0 1 sec. global_sec -;
#X obj 369 1001 readsf~ 2;
#X obj 325 957 bng 10 250 50 0 empty Stop_Playing_Global STOP 0 -5
0 10 -4160 -1 -1;
#X obj 360 858 sel 2550;
#X msg 409 946 open ./Audio/SIMGAK.WAV;
#X msg 801 942 open ./Audio/Scene7_5.wav;
#X obj 752 854 sel 2730;
#X obj 1063 1019 dac~;
#X msg 1043 937 start;
#X msg 1012 967 stop;
#X obj 1051 899 t b b;
#X obj 1050 879 bng 15 250 50 0 empty empty empty 17 7 0 10 -262144
-1 -1;
#X floatatom 1053 822 5 0 0 1 sec. global_sec -;
#X obj 1062 993 readsf~ 2;
#X obj 1018 949 bng 10 250 50 0 empty Stop_Playing_Global STOP 0 -5
0 10 -4160 -1 -1;
#X obj 1053 850 sel 2800;
#X msg 1102 938 open ./Audio/windy_noise.wav;
#X obj 1023 1107 sel 3030;
#X obj 680 1281 dac~;
#X msg 660 1199 start;
#X msg 629 1229 stop;
#X obj 668 1161 t b b;
#X obj 667 1141 bng 15 250 50 0 empty empty empty 17 7 0 10 -262144
-1 -1;
#X floatatom 670 1084 5 0 0 1 sec. global_sec -;
#X obj 679 1255 readsf~ 2;
#X obj 635 1211 bng 10 250 50 0 empty Stop_Playing_Global STOP 0 -5
0 10 -4160 -1 -1;
#X msg 719 1200 open ./Audio/Radio_noise.wav;
#X obj 670 1112 sel 2956;
#X text 428 1104 3min;
#X msg 403 1197 open ./Audio/Scene08_02.wav;
#X msg 121 938 open ./Audio/Scene06_01.wav;
#X obj 153 463 dac~;
#X msg 149 236 start;
#X msg 118 266 stop;
#X obj 157 198 t b b;
#X obj 156 180 bng 15 250 50 0 empty empty empty 17 7 0 10 -262144
-1 -1;
#X obj 168 292 readsf~ 2;
#X obj 118 248 bng 10 250 50 0 empty Stop_Playing_Global STOP 0 -5
0 10 -4160 -1 -1;
#X obj 711 317 dac~;
#X msg 691 235 start;
#X msg 660 265 stop;
#X obj 699 197 t b b;
#X obj 698 179 bng 15 250 50 0 empty empty empty 17 7 0 10 -262144
-1 -1;
#X obj 710 291 readsf~ 2;
#X obj 661 247 bng 10 250 50 0 empty Stop_Playing_Global STOP 0 -5
0 10 -4160 -1 -1;
#X obj 95 154 t b b;
#X obj 651 155 t b b;
#X obj 30 61 bng 15 250 50 0 empty 0sec 0sec 17 7 0 10 -262144 -1 -1
;
#X msg 208 237 open ./SufiRobot/audio/SumpleThoughts_Loop01.wav;
#X msg 750 236 open ./SufiRobot/audio/SumpleThoughts_Loop02.wav;
#X obj 165 715 dac~;
#X msg 145 633 start;
#X msg 114 663 stop;
#X obj 153 595 t b b;
#X obj 152 577 bng 15 250 50 0 empty empty empty 17 7 0 10 -262144
-1 -1;
#X obj 164 689 readsf~ 2;
#X obj 114 645 bng 10 250 50 0 empty Stop_Playing_Global STOP 0 -5
0 10 -4160 -1 -1;
#X obj 91 551 t b b;
#X obj 89 524 bang_at 30;
#X msg 204 634 open ./SufiRobot/audio/KGKKK.wav;
#X obj 650 132 bang_at 340;
#X obj 95 130 bang_at 0;
#X obj 153 417 *~;
#X obj 171 395 vline~;
#X obj 214 416 *~;
#X obj 232 394 vline~;
#X msg 243 348 1 5000;
#X obj 243 323 bang_at 0;
#X msg 303 348 0 10000;
#X obj 327 322 bang_at 40;
#X connect 0 0 1 0;
#X connect 4 0 9 0;
#X connect 5 0 9 0;
#X connect 6 0 4 0;
#X connect 6 1 75 0;
#X connect 7 0 6 0;
#X connect 8 0 10 0;
#X connect 9 0 3 0;
#X connect 9 1 3 1;
#X connect 10 0 7 0;
#X connect 11 0 5 0;
#X connect 13 0 18 0;
#X connect 14 0 18 0;
#X connect 15 0 13 0;
#X connect 15 1 20 0;
#X connect 16 0 15 0;
#X connect 17 0 62 0;
#X connect 18 0 12 0;
#X connect 18 1 12 1;
#X connect 19 0 14 0;
#X connect 20 0 18 0;
#X connect 21 0 16 0;
#X connect 23 0 28 0;
#X connect 24 0 28 0;
#X connect 25 0 23 0;
#X connect 25 1 74 0;
#X connect 26 0 25 0;
#X connect 27 0 39 0;
#X connect 28 0 22 0;
#X connect 28 1 22 1;
#X connect 29 0 24 0;
#X connect 32 0 37 0;
#X connect 33 0 37 0;
#X connect 34 0 32 0;
#X connect 34 1 50 0;
#X connect 35 0 34 0;
#X connect 36 0 51 0;
#X connect 37 0 31 0;
#X connect 37 1 31 1;
#X connect 38 0 33 0;
#X connect 39 0 26 0;
#X connect 41 0 46 0;
#X connect 42 0 46 0;
#X connect 43 0 41 0;
#X connect 43 1 49 0;
#X connect 44 0 43 0;
#X connect 45 0 48 0;
#X connect 46 0 40 0;
#X connect 46 1 40 1;
#X connect 47 0 42 0;
#X connect 48 0 44 0;
#X connect 49 0 46 0;
#X connect 50 0 37 0;
#X connect 51 0 35 0;
#X connect 53 0 58 0;
#X connect 54 0 58 0;
#X connect 56 0 55 0;
#X connect 57 0 60 0;
#X connect 58 0 52 0;
#X connect 58 1 52 1;
#X connect 59 0 54 0;
#X connect 60 0 56 0;
#X connect 61 0 58 0;
#X connect 62 0 16 0;
#X connect 64 0 69 0;
#X connect 65 0 69 0;
#X connect 66 0 64 0;
#X connect 66 1 71 0;
#X connect 67 0 66 0;
#X connect 68 0 72 0;
#X connect 69 0 63 0;
#X connect 69 1 63 1;
#X connect 70 0 65 0;
#X connect 71 0 69 0;
#X connect 72 0 67 0;
#X connect 74 0 28 0;
#X connect 75 0 9 0;
#X connect 77 0 81 0;
#X connect 78 0 81 0;
#X connect 79 0 77 0;
#X connect 79 1 93 0;
#X connect 80 0 79 0;
#X connect 81 0 107 0;
#X connect 81 1 109 0;
#X connect 82 0 78 0;
#X connect 84 0 88 0;
#X connect 85 0 88 0;
#X connect 86 0 84 0;
#X connect 86 1 94 0;
#X connect 87 0 86 0;
#X connect 88 0 83 0;
#X connect 88 1 83 1;
#X connect 89 0 85 0;
#X connect 90 0 80 0;
#X connect 90 1 82 0;
#X connect 91 0 87 0;
#X connect 91 1 89 0;
#X connect 92 0 1 0;
#X connect 93 0 81 0;
#X connect 94 0 88 0;
#X connect 96 0 100 0;
#X connect 97 0 100 0;
#X connect 98 0 96 0;
#X connect 98 1 104 0;
#X connect 99 0 98 0;
#X connect 100 0 95 0;
#X connect 100 1 95 1;
#X connect 101 0 97 0;
#X connect 102 0 99 0;
#X connect 102 1 101 0;
#X connect 103 0 102 0;
#X connect 104 0 100 0;
#X connect 105 0 91 0;
#X connect 106 0 90 0;
#X connect 107 0 76 0;
#X connect 108 0 107 1;
#X connect 109 0 76 1;
#X connect 110 0 109 1;
#X connect 111 0 108 0;
#X connect 111 0 110 0;
#X connect 112 0 111 0;
#X connect 113 0 110 0;
#X connect 113 0 108 0;
#X connect 114 0 113 0;
#X restore 13 288 pd AUDIO;
#X text 13 264 Audio;
#N canvas 21 479 496 176 Global_Transport 1;
#X floatatom 16 130 5 0 0 1 sec. - global_sec;
#N canvas 533 215 772 590 time 0;
#X floatatom 367 378 5 0 0 0 - - -;
#X msg 398 248 0;
#X text 406 377 sec;
#X obj 365 491 outlet;
#X obj 275 271 / 60;
#X obj 275 298 int;
#X floatatom 104 176 5 0 100 1 min - -;
#X floatatom 165 176 5 0 59 1 sec - -;
#X obj 325 407 % 60;
#X obj 367 279 f;
#X obj 396 278 + 1;
#X obj 519 216 == 0;
#X obj 480 258 spigot;
#X obj 519 238 tgl 15 0 empty empty empty 17 7 0 10 -262144 -1 -1 1
1;
#X obj 190 376 * 60;
#X obj 230 417 +;
#X obj 165 382 bng 15 250 50 0 empty empty empty 17 7 0 10 -262144
-1 -1;
#X floatatom 230 443 5 0 0 0 - - -;
#X obj 111 136 tgl 30 0 Global_Play empty PLAY 0 -5 0 15 -4034 -1 -1
0 1;
#X obj 164 136 bng 30 250 50 0 Stop_Playing_Global empty STOP 0 -5
0 15 -4160 -1 -1;
#X msg 102 67 0;
#X obj 351 29 metro 10;
#X obj 351 55 f;
#X obj 380 54 + 1;
#X floatatom 351 81 5 0 0 1 Global_Step - -;
#X obj 351 111 / 100;
#X obj 351 136 int;
#X obj 351 161 change;
#X obj 351 197 bng 15 250 50 0 empty empty empty 17 7 0 10 -262144
-1 -1;
#X msg 455 34 0;
#X obj 557 -22 == 0;
#X obj 518 20 spigot;
#X obj 557 0 tgl 15 0 empty empty empty 17 7 0 10 -262144 -1 -1 1 1
;
#X obj 503 -7 * 100;
#X obj 485 489 outlet;
#X obj 165 65 bang_at 720;
#X connect 0 0 4 0;
#X connect 0 0 8 0;
#X connect 0 0 3 0;
#X connect 1 0 9 1;
#X connect 4 0 5 0;
#X connect 5 0 6 0;
#X connect 6 0 14 0;
#X connect 7 0 15 1;
#X connect 7 0 16 0;
#X connect 8 0 7 0;
#X connect 9 0 10 0;
#X connect 9 0 0 0;
#X connect 10 0 9 1;
#X connect 11 0 13 0;
#X connect 12 0 9 1;
#X connect 13 0 12 1;
#X connect 14 0 15 0;
#X connect 15 0 17 0;
#X connect 16 0 15 0;
#X connect 17 0 12 0;
#X connect 17 0 33 0;
#X connect 18 0 11 0;
#X connect 18 0 21 0;
#X connect 18 0 30 0;
#X connect 19 0 1 0;
#X connect 19 0 20 0;
#X connect 19 0 29 0;
#X connect 20 0 18 0;
#X connect 21 0 22 0;
#X connect 22 0 23 0;
#X connect 22 0 24 0;
#X connect 23 0 22 1;
#X connect 24 0 25 0;
#X connect 24 0 34 0;
#X connect 25 0 26 0;
#X connect 26 0 27 0;
#X connect 27 0 28 0;
#X connect 28 0 9 0;
#X connect 29 0 22 1;
#X connect 30 0 32 0;
#X connect 31 0 22 1;
#X connect 32 0 31 1;
#X connect 33 0 31 0;
#X connect 35 0 19 0;
#X coords 0 -1 1 1 125 100 1 100 100;
#X restore 16 25 pd time;
#X floatatom 134 130 10 0 0 1 Global_Step - Global_Step;
#X obj 113 70 tgl 20 0 Global_Control empty G 20 7 0 15 -262144 -1
-1 1 1;
#X obj 205 29 loadbang;
#X msg 205 51 1;
#X obj 265 95 bng 15 250 50 0 connect_ims empty connect_ims 17 7 0
10 -262144 -1 -1;
#X obj 266 70 bang_at 470;
#X connect 1 0 0 0;
#X connect 1 1 2 0;
#X connect 4 0 5 0;
#X connect 5 0 3 0;
#X connect 7 0 6 0;
#X restore 80 27 pd Global_Transport;
#X text 80 289 48khz;
#X floatatom 16 484 0 0 254 2 ctl1 - l-1-9;
#X msg 16 443 0;
#X msg 52 443 255;
#X text 9 335 Fog;
#X obj 109 423 bng 15 250 50 0 empty ts1_ch1_note ts1_ch1_note 17 7
0 10 -262144 -1 -1;
#X obj 16 423 bng 15 250 50 0 empty ts2_ch1_note ts2_ch1_note 17 7
0 10 -262144 -1 -1;
#X text 90 442 ON: Solo button;
#X text 90 458 OFF: Record Arm button;
#X obj 109 393 bang_at 0;
#N canvas 488 379 1414 673 light_control_messages 0;
#X obj 60 25 bang_at 0;
#X msg 61 45 1;
#X msg 135 44 2;
#X msg 221 43 1;
#X msg 299 44 2;
#X msg 391 43 3;
#X msg 489 44 0;
#X msg 581 45 4;
#X msg 680 46 5;
#X msg 778 46 4;
#X msg 882 46 6;
#X msg 980 46 7;
#X msg 397 268 8;
#X msg 495 268 9;
#X msg 1012 268 12;
#X msg 914 268 11;
#X msg 697 268 11;
#X msg 598 268 10;
#X msg 810 275 10;
#X msg 401 348 13;
#X msg 499 348 0;
#X obj 134 24 bang_at 8;
#X obj 220 23 bang_at 16;
#X obj 298 24 bang_at 22;
#X obj 390 23 bang_at 25;
#X obj 488 24 bang_at 30;
#X obj 580 25 bang_at 300;
#X obj 679 26 bang_at 312;
#X obj 777 26 bang_at 325;
#X obj 396 249 bang_at 360;
#X obj 494 248 bang_at 370;
#X obj 598 248 bang_at 380;
#X obj 696 248 bang_at 400;
#X obj 809 248 bang_at 420;
#X obj 913 248 bang_at 440;
#X obj 1011 248 bang_at 450;
#X obj 400 328 bang_at 480;
#X obj 498 328 bang_at 600;
#X obj 236 329 s light_control;
#X msg 597 349 1;
#X obj 596 329 bang_at 620;
#X obj 881 26 bang_at 345;
#X obj 979 26 bang_at 345;
#X connect 0 0 1 0;
#X connect 1 0 38 0;
#X connect 2 0 38 0;
#X connect 3 0 38 0;
#X connect 4 0 38 0;
#X connect 5 0 38 0;
#X connect 6 0 38 0;
#X connect 7 0 38 0;
#X connect 8 0 38 0;
#X connect 9 0 38 0;
#X connect 11 0 38 0;
#X connect 12 0 38 0;
#X connect 14 0 38 0;
#X connect 15 0 38 0;
#X connect 16 0 38 0;
#X connect 17 0 38 0;
#X connect 18 0 38 0;
#X connect 19 0 38 0;
#X connect 20 0 38 0;
#X connect 21 0 2 0;
#X connect 22 0 3 0;
#X connect 23 0 4 0;
#X connect 24 0 5 0;
#X connect 25 0 6 0;
#X connect 26 0 7 0;
#X connect 27 0 8 0;
#X connect 28 0 9 0;
#X connect 29 0 12 0;
#X connect 30 0 13 0;
#X connect 31 0 17 0;
#X connect 32 0 16 0;
#X connect 33 0 18 0;
#X connect 34 0 15 0;
#X connect 35 0 14 0;
#X connect 36 0 19 0;
#X connect 37 0 20 0;
#X connect 39 0 38 0;
#X connect 40 0 39 0;
#X connect 41 0 10 0;
#X connect 42 0 11 0;
#X restore 116 185 pd light_control_messages;
#X obj 107 369 bang_at 180;
#X obj 16 394 bang_at 30;
#X obj 16 371 bang_at 480;
#X connect 16 0 15 0;
#X connect 17 0 15 0;
#X connect 19 0 17 0;
#X connect 20 0 16 0;
#X connect 23 0 19 0;
#X connect 25 0 19 0;
#X connect 26 0 20 0;
#X connect 27 0 20 0;
