#N canvas 507 105 540 679 12;
#X floatatom 99 256 0 0 254 2 ctl1 l-1-#3 -;
#X floatatom 140 257 0 0 254 2 ctl2 l-2-#3 -;
#X floatatom 180 255 0 0 254 2 ctl3 l-3-#3 -;
#X floatatom 222 254 0 0 254 2 ctl4 l-0-#3 -;
#X obj 24 234 inlet;
#X text 645 6 Argument 1: DMX address(1~255) 2: n_chnnels 3: control_bus
4:output_bus, f 80;
#X obj 184 491 list-compare;
#X obj 238 475 list;
#X obj 184 515 == 0;
#X obj 78 482 spigot;
#X obj 116 459 tgl 15 0 empty empty empty 17 7 0 10 -262144 -1 -1 0
1;
#X obj 203 445 t l l l b;
#X obj 88 508 bng 15 250 50 0 empty empty empty 17 7 0 10 -262144 -1
-1;
#X text 293 473 output only when changed;
#X obj 19 555 outlet;
#X obj 19 320 pack \$1 \$2 f f f f, f 30;
#X obj 78 538 s RGBW-OUT-\$4;
#X text 99 580 6 bytes;
#X obj 13 46 r light_clock;
#X connect 0 0 15 2;
#X connect 1 0 15 3;
#X connect 2 0 15 4;
#X connect 3 0 15 5;
#X connect 4 0 15 0;
#X connect 6 0 8 0;
#X connect 7 0 6 1;
#X connect 8 0 10 0;
#X connect 9 0 12 0;
#X connect 9 0 14 0;
#X connect 9 0 16 0;
#X connect 10 0 9 1;
#X connect 11 0 9 0;
#X connect 11 1 6 0;
#X connect 11 2 7 1;
#X connect 11 3 7 0;
#X connect 15 0 11 0;
#X connect 18 0 15 0;
